<?xml version="1.0" encoding="UTF-8"?>
<svg id="Capa_2" data-name="Capa 2" xmlns="http://www.w3.org/2000/svg" viewBox="0 0 72.71 72.7">
  <defs>
    <style>
      .cls-1 {
        fill: #fdf5e9;
        fill-rule: evenodd;
      }
    </style>
  </defs>
  <g id="Capa_1-2" data-name="Capa 1">
    <path class="cls-1" d="M23.8,19.35c-.6,0-1.58.23-2.41,1.13-.83.9-3.17,3.08-3.17,7.51s3.24,8.71,3.7,9.31c.45.6,6.38,9.69,15.45,13.59,2.16.93,3.84,1.48,5.15,1.9,2.17.69,4.14.59,5.7.36,1.74-.26,5.35-2.18,6.1-4.28.75-2.1.75-3.9.53-4.28-.23-.37-.82-.6-1.73-1.05-.91-.45-5.36-2.62-6.18-2.93-.83-.3-1.43-.45-2.03.45-.61.9-2.34,2.93-2.86,3.53-.53.6-1.05.68-1.96.23-.91-.45-3.82-1.4-7.28-4.47-2.69-2.39-4.5-5.34-5.03-6.24-.53-.9-.06-1.39.39-1.83.41-.4.91-1.05,1.36-1.58.45-.53.61-.91.91-1.51.3-.6.15-1.12-.07-1.58-.23-.45-2.03-4.88-2.79-6.68-.74-1.75-1.48-1.51-2.04-1.54-.53-.03-1.13-.03-1.73-.03ZM36.52,6.08c8.04,0,15.59,3.12,21.28,8.79,5.68,5.66,8.81,13.18,8.8,21.18,0,16.51-13.51,29.94-30.09,29.94h-.01c-5.4,0-10.7-1.44-15.32-4.17l-1.1-.65-11.39,2.97,3.04-11.04-.71-1.13c-3.01-4.77-4.6-10.28-4.6-15.93,0-16.51,13.5-29.95,30.1-29.95ZM36.51,0C16.55,0,.31,16.16.3,36.02c0,6.35,1.67,12.55,4.83,18.01L0,72.7l19.19-5.01c5.29,2.87,11.24,4.38,17.3,4.38h.02c19.95,0,36.19-16.16,36.2-36.02,0-9.63-3.76-18.68-10.59-25.49C55.29,3.75,46.19,0,36.51,0Z"/>
  </g>
</svg>