<?xml version="1.0" encoding="UTF-8"?>
<svg id="Capa_2" xmlns="http://www.w3.org/2000/svg" viewBox="0 0 624.71 508.73">
  <defs>
    <style>
      .cls-1 {
        fill: #791738;
      }

      .cls-2 {
        fill: #bd8200;
      }
    </style>
  </defs>
  <g id="Capa_1-2" data-name="Capa_1">
    <g>
      <path class="cls-1" d="M614.66,229.85c-4.89-.9-8.67,4.08-10.3,4.34-7.44,1.18-12.97,17.85-21.94,30.74-8.62,12.4-21.16,21.72-33.09,19.87-21.98-3.4-25.36-30.13-26.33-54.96-.97-24.83,1.63-30.78,1.63-30.78,0,0-.99-4.71-7.51-5.47-6.53-.75-8.3-3.22-9.63-1.58-.91,1.13-1.77,4.04-2.22,5.76v.6c-1.83-1.28-5.37-3.31-10.84-4.6-10.81-2.54-32.31-1.18-58.88,27.83-12.27,13.4-20.02,30.5-23.23,46.46-12.08,14.66-31.92,36.75-39.64,33.95-12.59-4.57-4.84-77.28-.36-90.27,2.41-7,25.55-75.56,36.85-116.2,5.9-21.21-5.76-19.44-19.92-21.19-13.65-1.68-23.81,50.83-25.12,56.55-5.71,24.87-17.28,78.67-18.59,82.24-1.63,4.44-2.6,8.63-4.46,10.58-1.54,1.6-2.62.25-2.62.25,0,0-1.8-8.63-14.97-11.37-23.87-4.96-52.39,22.15-66.21,46.63-22.59,39.99-22.71,74.3-3.84,87.51,14,9.8,33.4-3.16,52.52-26.78,20.72-25.59,32.17-54.19,34.71-53.1,2.54,1.09,2.95,5.99,3.02,7.1.06,1.11.13,47.2,20.93,51.36,17.64,3.53,35.65-9.58,46.9-28.05.13-.21.25-.42.37-.64,1.76,7.86,5.34,13.98,10.78,17.11,22.98,13.22,46.26-10.4,64.04-33.2,13.44-17.24,16.04-24.65,17.63-27.37l.5-1.11c.36-.81,1.63-2.21,1.88-.85,2.26,12.14,6.05,49.04,39.75,55.6,19.53,3.8,39.12-8.37,56.62-28.07,11.4-12.83,21.62-28.01,21.62-35.4,0-5.95-3.74-12.34-10.05-13.5M299.2,296.18c-11.95,14.73-23.68,30.33-31.15,26.46-6.24-3.24-6.41-26.61,10.19-54.99,8.51-14.55,29.25-42.55,45.96-36.77,9.14,3.16,12.04,13.85,12.04,13.85,0,0-25.09,36.73-37.04,51.45M473.62,264.22c-9.52,11.72-25.84,37.89-36.08,32.06-9.08-5.17-6.03-35.68,14.56-60.67,14.41-17.49,28.87-29.02,41.02-25.87,8.71,2.25,11.8,10.01,12.15,10.98v.15c-.77,1.1-21.89,31.33-31.65,43.34"/>
      <path class="cls-2" d="M590.78,376.78c-2.22,2.65-3.88,4.98-6.33,7.01-2.25,1.87-3.67,3.32-6.82,5.54-4.07,2.88-7.96,5.92-12.2,8.48-3.96,2.39-8.09,4.45-12.47,6-2.58.91-5.22,1.33-7.96,1.3-3.05-.03-5.08-1.61-6.5-4.13-.72-1.28-1.08-2.68-1.12-4.2-.09-2.86.54-5.59,1.18-8.33.33-1.41.47-2.9.41-4.33-.06-1.45-.88-2.59-2.47-2.78-1.37-.17-2.53-.7-3.77-1.34-1.23-.65-2.9-.83-4.42-.62-1.89.27-3.3.63-5.01,1.41-3.28,1.48-5.7,2.74-8.67,4.78-1.63,1.12-3.63,2.46-5.41,4.01-.84.73-1.86,1.53-2.72,2.25-6.81,5.73-13.47,11.63-19.89,17.8-3.42,3.28-7.14,6.21-11.23,8.64-3.36,2-6.98,3.11-10.9,3.16-3.56.04-5.48-1.69-5.73-5.23-.18-2.42-.06-5.1,1.36-7.13,2.13-3.05,4.54-5.3,8.23-8.22,2.36-1.86,6.15-3.94,8.79-5.43.53-.3,2.48-.65,3.13-.64.55.01,1.09.14,1.64.22,1.26.17,2.21-.51,2.52-1.72.32-1.24-.14-2.42-1.28-3.24-1.24-.88-2.67-1.12-4.16-1.16-3.63-.08-6.89,1.19-9.93,2.95-4.09,2.36-8.15,4.81-12.08,7.43-6.37,4.26-12.45,8.93-18.43,13.72-5.54,4.44-11.19,8.73-17.17,12.58-3.34,2.15-6.83,3.96-10.6,5.17-1.48.48-3.07.72-4.62.83-.97.07-2.02-.21-2.96-.53-1.69-.57-2-1.52-1.13-2.98.98-1.63,1.29-1.95,2.51-3.45.48-.6,1.51-1.27,2.06-1.81,2.13-2.06,3.82-3.89,5.26-6.12.77-1.2,1.52-2.51,2.08-3.85.87-2.1,1.38-4.3,1.13-6.6-.34-3.02-2.73-4.88-5.69-4.35-1.08.19-2.17.64-3.13,1.19-2.35,1.37-4.42,3.14-6.15,5.24-3.88,4.71-6.44,10.04-7.08,16.17-.21,2.05-.98,3.63-2.63,4.86-5.34,3.96-10.57,8.08-16.62,10.95-1.11.53-2.29.98-3.48,1.26-1.35.32-2.45-.59-2.56-2-.05-.66,0-1.36.16-2,.37-1.53.7-3.09,1.28-4.55,1.61-4.08,3.28-8.14,5.02-12.17,3.48-8.08,7.53-15.88,11.95-23.49,1.18-2.04,2.53-4.01,4.01-5.84,2.78-3.4,5.36-6.94,8.15-10.35.74-.91,1.77-1.92,3.27-2.56h-.03c.37-.14.77-.28,1.2-.37,4.84-1.05,10.34-2.36,15.27-3.55,6.57-1.58,10.41-2.4,16.75-3.98,7.05-1.75,13.61-3.16,20.62-4.86,6.74-1.63,11.18-2.58,18.01-4.31,1.86-.47,3.72-.91,5.56-1.45,1.18-.34,2.37-.74,3.47-1.29,1.14-.57,2.12-2.53,1.75-3.4-.55-1.28-1.72-1.72-3.02-1.78-.78-.03-1.58.03-2.35.17-1.88.35-3.76.73-5.62,1.18-14.01,3.36-25.34,5.75-39.36,9.08-8.88,2.11-13.71,3.17-27.49,6.84-2.35.63-4.58.46-6.91-.72-1.42-.71-2.87-.3-4.03.86-.48.48-.98.93-1.45,1.41-.81.82-1.75,1.37-2.88,1.67-2.83.75-5.62,1.64-8.46,2.35-6.23,1.56-12.47,3.07-18.72,4.56-5.81,1.38-11.61,2.77-17.44,4.06-7.59,1.68-15.2,3.26-22.79,4.92-.98.21-1.96.53-2.86.97-.87.42-1.05,2.49-.97,3.49.07.97.7,2.15,1.77,2.28.77.09,2.72-.19,3.48-.36,4.96-1.09,7.93-1.94,12.26-2.96,6.48-1.53,13.59-3.23,20.41-4.73,8.91-1.96,17.77-4.12,26.66-6.18.53-.12,1.59-.37,2.11-.45.49-.07,1.02-.29,1.18-.12-.36.54-.76,1.13-.89,1.34-1.45,2.42-3.01,4.75-4.98,6.8-6.65,6.93-14.17,12.87-21.58,18.94-.26.21-.56.37-.86.53-4.39,2.53-8.76,5.1-13.19,7.56-4.17,2.31-8.68,3.74-13.34,4.7-1.22.25-2.51.49-3.64-.18-1.93-1.15-3.94-2.25-5.61-3.71-1.91-1.67-3.84-1.78-5.92-.81-1.31.61-2.55,1.45-3.69,2.35-4.25,3.34-8.45,6.74-12.67,10.12-2.2,1.76-4.37,3.55-6.59,5.28-3.99,3.12-8.03,6.19-12.02,9.33-6.83,5.37-13.97,10.3-21.33,14.9-1.33.83-2.75,1.54-4.19,2.17-.42.19-1.21.1-1.53-.2-.32-.3-.39-1.01-.35-1.52.04-.54.3-1.09.55-1.58,1.64-3.21,3.13-6.51,5.01-9.57,1.85-3.01,3.2-6.18,4.35-9.49.54-1.55.64-3.05.63-4.64-.03-2.25-1.22-3.6-3.22-4.23-1.05-.33-2.23-.53-3.31-.41-1.78.21-3.59.55-5.26,1.16-4.04,1.49-7.64,3.84-11.13,6.33-2.56,1.83-4.94,3.94-7.61,5.58-4.86,2.98-8.74,7.09-12.95,10.8-3.71,3.27-7.07,6.94-10.61,10.4-.35.35-.9.49-1.69.9.04-.82-.06-1.29.09-1.65.88-2.07,1.83-4.11,2.74-6.17,1.05-2.37,2.18-4.71,3.1-7.13.85-2.22,1.35-4.54,1.05-6.96-.43-3.44-2.62-5.15-6.08-4.71-1.7.22-3.28.8-4.69,1.81-3.94,2.81-8.01,5.45-11.77,8.47-4.38,3.53-8.55,7.34-12.69,11.15-7.3,6.72-14.59,13.45-22.96,18.85-2.17,1.4-4.47,2.62-6.79,3.75-1.46.71-2.61-.15-2.27-1.71.54-2.41,1.13-4.85,2.09-7.11,2.55-6.04,5.71-11.76,9.81-16.91.88-1.1,1.42-2.3,1.31-3.73-.09-1.21-.6-2.18-1.74-2.69-1.12-.5-2.25-.44-3.17.39-.92.82-1.76,1.74-2.58,2.66-4.04,4.55-7.93,9.21-12.3,13.47-5.89,5.76-11.89,11.36-18.42,16.38-4.03,3.09-8.26,5.88-12.76,8.25-2.31,1.22-4.68,2.23-7.35,2.29-.56.01-1.13.1-1.66.26-1.34.42-1.81,1.76-1.1,2.98.8,1.39,2.02,2.22,3.58,2.15,1.79-.08,3.61-.25,5.32-.72,3.83-1.04,7.39-2.74,10.67-4.99,2.23-1.53,4.5-3.01,6.62-4.68,3.09-2.43,6.06-5.02,9.09-7.53,1.3-1.07,2.58-2.17,3.97-3.12.91-.62,1.86,0,1.79,1.11-.07,1.12-.31,2.23-.36,3.36-.23,5.3,3.82,8.75,8.96,7.67.55-.11,1.08-.31,1.62-.47,5.05-1.5,9.4-4.32,13.63-7.33,2.57-1.83,4.93-3.94,7.36-5.94.87-.71,1.82-1.38,2.5-2.26,2.66-3.44,6.11-6,9.48-8.61,4.92-3.8,9.17-8.31,13.87-12.35,1.96-1.69,3.94-3.36,5.99-4.94.66-.51,1.57-1.19,2.42-.39.69.64.18,1.47-.09,2.2-.04.1-.09.21-.14.31-2.67,5.46-5.37,10.91-8.02,16.39-1.18,2.43-2.31,4.89-3.38,7.37-.4.92-.73,1.92-.84,2.9-.24,2.18,1.06,3.64,2.7,4.74,1.29.86,2.64.26,3.81-.47,4.23-2.65,7.76-6.14,11.3-9.6,1.12-1.1,2.08-2.37,3.24-3.43,3.9-3.57,7.37-7.61,11.73-10.67.45-.32.79-.8,1.19-1.19.81-.78,1.6-1.58,2.43-2.34,4.91-4.5,10.49-8.14,15.83-12.06,2.07-1.52,4.31-2.92,6.86-3.56.57-.14,1.22.05,2.14.1-.62,2.6-1.52,4.74-2.72,6.78-1.08,1.84-2.19,3.68-3.2,5.56-1.67,3.09-2.7,6.43-3.61,9.81-1.07,3.97,2.06,8.96,6.96,8.53,2.53-.22,4.92-.7,7.11-1.92,4.41-2.45,9.02-4.49,12.81-8.07,2.84-2.68,6.31-4.7,9.57-6.92,3.91-2.65,7.78-5.35,11.41-8.39,1.98-1.66,4.21-3.01,6.36-4.47.33-.23.79-.28,1.1-.39.91.83.48,1.6.26,2.32-.63,2.04-1.4,4.05-1.93,6.12-.77,2.97-.39,5.8,1.47,8.36,1.15,1.59,2.63,2.4,4.57,2.45,2.7.07,5.12-.69,7.24-2.35.89-.69,1.73-1.44,2.59-2.17,3.17-2.71,6.12-5.63,8.4-9.16,2.35-3.63,4.21-7.45,4.86-11.78.15-1,.33-2,.48-3,.2-1.24.84-2.06,2.13-2.28.33-.06.66-.16.99-.22,4.95-.78,9.58-2.62,14.03-4.76,6.39-3.07,12.63-6.45,18.4-10.63.73-.52,1.55-.92,2.36-1.32.52-.26,1.09-.33,1.56.33.19,1.36-.54,2.54-1.09,3.75-1.3,2.87-2.75,5.69-3.94,8.6-1.58,3.85-3.16,7.72-4.11,11.79-.52,2.22-.72,4.46-.48,6.71.36,3.44,3.04,6.53,6.01,6.89,1.8.22,3.6.03,5.3-.71,1.24-.54,2.5-1.04,3.72-1.61,2.14-1,4.35-1.9,6.39-3.08,2.71-1.58,5.31-3.37,7.92-5.13,1.4-.94,2.71-2.02,4.09-3,1.26-.89,1.79-.94,3.03.02,1.27.98,2.59,1.94,4.17,2.11,2.23.24,4.52.47,6.72.18,4.83-.64,9.41-2.26,13.71-4.54,3.08-1.63,6-3.55,8.68-5.82,2.06-1.74,4.25-3.34,6.39-4.98,3.03-2.33,6.05-4.68,9.12-6.97,1.6-1.19,3.06-2.63,5.18-3.52.27.79.6,1.37.65,1.97.09,1.35-.09,2.72.07,4.05.52,4.17,2.6,7.48,6.26,9.49,2.15,1.19,4.7,1.65,7.19,1.57,6.38-.19,12.26-2.22,17.25-6.11,4.51-3.52,9.43-6.57,13.27-10.92.07-.08.18-.14.27-.21.87-.64,1.72-.6,2.39.2.58.69,1.03,1.49,1.65,2.14,1.93,1.99,4.15,3.06,6.99,2.02,4.6-1.69,8.92-3.97,12.3-7.51,2.57-2.7,5.32-5.18,7.95-7.81.48-.48.94-.97,1.44-1.42,1.16-1.03,2.08-.85,2.6.51.2.53.26,1.11.48,1.62.68,1.54,1.31,3.12,2.13,4.58,2.32,4.1,5.96,6.01,10.6,6.08,5.02.08,9.88-.75,14.5-2.76,2.28-.99,4.59-1.9,6.81-3,3.02-1.5,5.37-2.87,8.59-5.05,1.01-.69,3.03-1.94,4.05-2.63,2.15-1.44,3.48-2.36,5.45-4.02,2.83-2.39,5.52-4.97,8.09-7.63,1.31-1.35,2.36-3,3.31-4.64.92-1.58.63-3.3-.22-4.85-.89-1.63-3.16-2.02-4.51-.42M324.29,429.63c-.22,2.32-.75,4.62-1.77,6.76-2.04,4.29-4.73,8.15-8.3,11.32-1.24,1.1-2.72,1.97-4.17,2.79-.9.51-1.59-.25-1.73-1.29-.21-1.52.21-3.63.79-5.07,0,0,5.45-12.11,9.36-15.73.48-.44.98-.87,1.29-1.19.94-.97,2.11-1.15,3.11-.72,1.07.46,1.5,1.29,1.44,2.41-.01.22-.02.45-.03.72M400.12,422.36c-.18.03-.42.02-.85.02-.6-.39.32-3.16.46-3.6.73-2.37,6.45-9.96,8.82-10.88.22-.09.71-.13.88.03.19.17.24.65.19.9-.85,3.96-7.82,13.26-9.49,13.54M529.27,389.02c-.44,1.13-1.43,2.3-2.21,3.19l-16.18,15.09c-1.12.9-2.51,1.47-3.87,1.95-1.45.51-2.38-.78-2.01-2.27.74-2.96,1.78-5.12,3.98-7.38,3.78-3.88,7.85-7.42,12.65-10.01,1.48-.8,3.03-1.47,4.58-2.14.5-.22,1.09-.23,1.36-.28,1.29.04,2.06.92,1.7,1.85"/>
      <path class="cls-2" d="M115.05,455.04c2.69-2.58,5.47-5.03,8.49-7.21,1.28-.92,2.64-1.73,3.87-2.71,7.9-6.28,19.09-13.63,28.25-17.82,3.5-1.6,7.08-2.17,10.83-.99.43.14.84.32,1.28.43,1.69.4,2.82-.11,3.7-1.58.85-1.42.74-2.81-.12-4.15-1.66-2.58-4.14-3.73-7.13-3.84-3.42-.12-6.7.49-9.91,1.73-8.04,3.11-17.95,9.76-25.04,14.59-12.34,8.4-23.38,18.36-34.03,28.76-2.42,2.36-4.77,4.79-7.09,7.25-4.17,4.42-8.33,8.86-12.44,13.35-2.51,2.74-4.88,5.61-7.35,8.38-.65.72-1.19,1.67-2.76,1.76-.06-.63-.21-1.08-.13-1.49.49-2.54.93-5.1,1.58-7.61,1.68-6.55,3.48-13.06,5.19-19.6.45-1.74.72-3.53,1.07-5.3.24-1.22-.12-2.21-1.1-2.99-2.3-1.84-5.62-.81-6.44,2.13-1.05,3.8-1.92,7.65-2.84,11.47-1.37,5.76-2.45,8.83-4.05,14.32-.51,1.72-1.62,5.61-2.03,7.39-.77,3.39-1.16,6.18-1.7,9.28-.29,1.67-.33,3.36.25,5.01.53,1.5,1.52,2.54,3.07,2.85,2.76.56,5.41.43,7.51-1.81,1.54-1.64,3.12-3.25,4.58-4.96,4.75-5.57,9.36-11.27,14.19-16.76,5.8-6.6,11.88-12.96,18.33-18.94,3.97-3.68,8.08-7.2,11.98-10.94"/>
      <path class="cls-1" d="M119.8,144.87c-4.32-4.31-2.47-10.31-8.44-11.35-4.74-.82-9.12,5.03-17.32,2.74-7.25-2.02-13.1,6.28-13.1,6.28,0,0-27.57,32.37-34.88,107.86-5.81,60.02,15.61,118.64,54.84,130.88,50.99,15.91,113.95-41.91,141.89-181.31C267.94,74.44,228.23,12.6,174.43,2.09,104.96-11.48,40.66,42.99,16.25,110.68c-24.79,68.72-18.38,159.08.32,153.99,2.28-.62,2.51-5.9,3.76-7.73,1.94-2.82,5.08-5.44,6.03-6.76,1.79-2.49,3.68-9.73,3.62-12.32-.61-25.17-5.02-89.55,42.76-162.22,31.65-48.14,77.09-59.33,106.58-50.02,45.45,14.35,61.07,80.62,29.23,194.34-22.14,79.07-65.48,141.55-96.72,126.86-20.08-9.44-30.32-47.72-15.6-99.44,6.93-24.36,27.4-67.1,26-73.25-.61-2.68-1.8-2.28-3.52-3.56-2.8-2.07,5.67-21.14,1.1-25.7"/>
    </g>
  </g>
</svg>