<?xml version="1.0" encoding="UTF-8"?>
<svg id="Capa_2" data-name="Capa 2" xmlns="http://www.w3.org/2000/svg" xmlns:xlink="http://www.w3.org/1999/xlink" viewBox="0 0 224.61 252.22">
  <defs>
    <style>
      .cls-1 {
        filter: url(#drop-shadow-1);
      }

      .cls-2 {
        fill: #4c5409;
      }
    </style>
    <filter id="drop-shadow-1" x=".57" y="0" width="224.03" height="207.76" filterUnits="userSpaceOnUse">
      <feOffset dx="7.81" dy="7.81"/>
      <feGaussianBlur result="blur" stdDeviation="22.32"/>
      <feFlood flood-color="#000" flood-opacity=".75"/>
      <feComposite in2="blur" operator="in"/>
      <feComposite in="SourceGraphic"/>
    </filter>
  </defs>
  <g id="Capa_1-2" data-name="Capa 1">
    <g>
      <g class="cls-1">
        <g>
          <path class="cls-2" d="M21.1,205.7H1.82v-1.93l.93-.47c2.33-1.13,6.87-11.8,20.01-39.72h2.33c2.73,5.73,6.87,14.46,9.47,20.2,5.67,12.2,8.41,17.93,10.67,19.46l.8.53v1.93h-21.68v-2l1.4-.2c1.47-.13,2.4-.53,2.4-2.2,0-1.4-1.4-5-3.4-9.6-1.6-.07-3.27-.13-5.14-.13-1.67,0-3,0-4.47.07-.13,1.87-.2,3.6-.2,5.07,0,4,1.33,6.13,4.54,6.73l1.6.27v2ZM23.97,189.97c-2.2-5.07-4.47-9.93-5.8-12.53-1.47,3.73-2.33,8.33-2.8,12.6,1.33.07,2.67.07,4.27.07s3-.07,4.34-.13Z"/>
          <path class="cls-2" d="M48.78,168.11l-2.33-.87v-1.73c8.41-1.67,12.21-2.73,14.88-5.47l1.47.2c-.2,6.33-.2,12.6-.2,19.06,0,22.59,0,22.93,2.07,23.79l1.87.67v1.93h-20.21v-1.93l2.27-.67c1.87-.67,1.67-2.27,1.67-17.46,0-16.06.13-16.8-1.47-17.53Z"/>
          <path class="cls-2" d="M98.35,207.76c-2.94-5.6-7.27-14.8-10.01-20.46-6.07-12.6-8.54-17.66-10.54-19.13l-.87-.53.07-1.93h21.48v2l-.93.13c-1.47.2-2.47.6-2.47,2.27s1.93,6.2,4.27,11.53c2.2,4.8,4.47,9.46,5.67,12,1.87-5.93,3.2-13.73,3.2-18.86,0-4.2-1.4-6.2-4.87-6.8l-1.47-.27v-2h19.68v1.93l-.6.27c-2.33,1-7,11.93-20.75,39.86h-1.87Z"/>
          <path class="cls-2" d="M139.84,203.1l2.07.67v1.93h-20.01v-1.93l1.74-.8c1.93-.8,1.93-1.67,1.93-11.33,0-12,0-12.6-1.47-13.33l-2.2-1.07v-1.6c5.54-1.2,10.81-2.4,15.01-4l.93.33c-.07,4.73-.13,9.46-.13,14.2,0,16,.07,16.33,2.13,16.93ZM123.03,166.71c0-4.13,3.67-6,9.34-6,3.74,0,6.14,1.47,6.14,4.33,0,4.07-3.67,6.07-9.41,6.07-3.67,0-6.07-1.53-6.07-4.4Z"/>
          <path class="cls-2" d="M158.12,172.04v9.73h.53c1.13-4.67,6.74-10.13,13.21-10.13,4.94,0,8.41,2.87,8.41,8.26,0,4-.13,8.6-.13,12.6,0,10.4.07,10.4,2.54,11l1.13.27v1.93h-19.28v-1.93l1.2-.33c2.27-.53,2.2-1.73,2.2-12.46,0-9.4-1.07-10.53-4.8-10.53-2.27,0-4.27.8-4.27,3.93,0,18.26,0,18.33,2.33,18.93l1.67.47v1.93h-19.81v-1.93l1.07-.33c2.54-.93,2.6-1.73,2.6-11.8,0-12,0-12.6-1.47-13.33l-2.2-1.07v-1.6c4.6-.87,10.67-2.53,14.14-3.93l.93.33Z"/>
          <path class="cls-2" d="M201.82,206.36c-9.94,0-16.54-6.6-16.54-16.93,0-11.53,6.54-17.8,19.81-17.8,11.07,0,16.48,5.6,16.48,15.06,0,13-7.47,19.66-19.75,19.66ZM206.35,204.1c1.93,0,2.47-1.4,2.47-10.13,0-13.4-3.8-20.19-8.14-20.19-1.74,0-2.54,1.13-2.54,12.06,0,13,3,18.26,8.21,18.26Z"/>
        </g>
        <g>
          <path class="cls-2" d="M221,82.35c-1.75-.32-3.11,1.46-3.7,1.55-2.67.42-4.65,6.4-7.87,11.01-3.09,4.44-7.59,7.78-11.87,7.12-7.88-1.22-9.09-10.8-9.44-19.69-.35-8.89.58-11.03.58-11.03,0,0-.35-1.69-2.69-1.96-2.34-.27-2.98-1.15-3.45-.57-.33.4-.63,1.45-.8,2.06v.22c-.66-.46-1.92-1.19-3.89-1.65-3.88-.91-11.59-.42-21.12,9.97-4.4,4.8-7.18,10.93-8.33,16.65-4.33,5.25-11.45,13.17-14.22,12.16-4.52-1.64-1.74-27.69-.13-32.34.87-2.51,9.16-27.07,13.21-41.63,2.12-7.6-2.06-6.96-7.14-7.59-4.9-.6-8.54,18.21-9.01,20.26-2.05,8.91-6.2,28.19-6.67,29.47-.58,1.59-.93,3.09-1.6,3.79-.55.57-.94.09-.94.09,0,0-.65-3.09-5.37-4.07-8.56-1.78-18.79,7.94-23.75,16.71-8.1,14.33-8.15,26.62-1.38,31.35,5.02,3.51,11.98-1.13,18.83-9.59,7.43-9.17,11.54-19.41,12.45-19.03.91.39,1.06,2.15,1.08,2.54.02.4.05,16.91,7.5,18.4,6.33,1.26,12.79-3.43,16.82-10.05.05-.08.09-.15.13-.23.63,2.82,1.92,5.01,3.87,6.13,8.24,4.74,16.59-3.73,22.97-11.9,4.82-6.18,5.75-8.83,6.32-9.81l.18-.4c.13-.29.58-.79.68-.31.81,4.35,2.17,17.57,14.25,19.92,7,1.36,14.03-3,20.31-10.06,4.09-4.6,7.75-10.04,7.75-12.68,0-2.13-1.34-4.42-3.6-4.84ZM107.87,106.12c-4.29,5.28-8.49,10.87-11.17,9.48-2.24-1.16-2.3-9.54,3.66-19.7,3.05-5.21,10.49-15.24,16.48-13.18,3.28,1.13,4.32,4.96,4.32,4.96,0,0-9,13.16-13.28,18.43ZM170.42,94.67c-3.42,4.2-9.27,13.58-12.94,11.49-3.26-1.85-2.16-12.78,5.22-21.74,5.17-6.27,10.35-10.4,14.71-9.27,3.12.81,4.23,3.59,4.36,3.94v.06c-.27.39-7.85,11.23-11.35,15.53Z"/>
          <path class="cls-2" d="M43.54,51.91c-1.55-1.54-.88-3.69-3.03-4.07-1.7-.3-3.27,1.8-6.21.98-2.6-.72-4.7,2.25-4.7,2.25,0,0-9.89,11.6-12.51,38.65-2.08,21.5,5.6,42.51,19.67,46.89,18.28,5.7,40.86-15.02,50.88-64.96C96.66,26.67,82.42,4.51,63.13.75,38.22-4.11,15.16,15.4,6.4,39.66c-8.89,24.62-6.59,57,.11,55.17.82-.22.9-2.11,1.35-2.77.69-1.01,1.82-1.95,2.16-2.42.64-.89,1.32-3.48,1.3-4.41-.22-9.02-1.8-32.09,15.33-58.12,11.35-17.25,27.65-21.26,38.22-17.92,16.3,5.14,21.9,28.88,10.48,69.63-7.94,28.33-23.48,50.72-34.68,45.45-7.2-3.38-10.87-17.1-5.59-35.63,2.49-8.73,9.83-24.04,9.32-26.25-.22-.96-.65-.82-1.26-1.28-1-.74,2.03-7.58.39-9.21Z"/>
        </g>
      </g>
      <g>
        <path class="cls-2" d="M10.71,228.53c-.05.95-.28,2.7-.28,11.46,0,9.91.09,10.29,1.27,10.59l2.12.38-.05.84H0v-.84l2.55-.42c1.13-.23,1.37-.72,1.37-9.72,0-8.2-.14-8.16-2.17-8.43l-1.65-.15v-.72c3.4-.3,6.65-1.06,9.76-3.08l.85.08Z"/>
        <path class="cls-2" d="M27.54,252.19c-7.73,0-11.98-4.71-11.98-11.73,0-7.4,4.95-11.77,14.1-11.77,8.25,0,11.98,3.87,11.98,10.21,0,8.43-5.52,13.29-14.1,13.29ZM30.28,250.89c2.97,0,4.2-1.9,4.2-8.31,0-8.47-3.11-12.68-7.4-12.68-3.07,0-4.34,1.37-4.34,8.47,0,8.54,2.74,12.53,7.55,12.53Z"/>
        <path class="cls-2" d="M49.38,228.72c3.35,0,5.71,1.9,5.71,4.59s-2.36,4.52-5.71,4.52-5.75-1.9-5.75-4.52,2.26-4.59,5.75-4.59ZM49.38,236.51c2.22,0,3.91-1.25,3.91-3.19s-1.7-3.26-3.91-3.26c-2.36,0-4.01,1.25-4.01,3.26s1.65,3.19,4.01,3.19Z"/>
        <path class="cls-2" d="M86.35,239.85l-5.94.84-9.34-.15v.34c0,5.66,2.88,7.33,7.26,7.33,3.68,0,6.04-1.14,7.55-4.44l.61.46c-1.51,4.33-3.77,8.01-10.99,8.01-6.65,0-11.27-3.11-11.27-9.68,0-6.04,5-9.64,13.25-9.64,6.51,0,8.96,2.51,8.87,6.95ZM71.07,240.23l8.02-.57c.8-.08,1.08-.42,1.08-1.02,0-2.7-2.26-4.67-5.05-4.67s-3.96,1.44-4.06,6.26Z"/>
        <path class="cls-2" d="M105.45,246.95h-.28c-.8,2.43-4.53,5.24-8.87,5.24-5.85,0-7.73-3.8-7.73-8.2,0-7.06,4.62-11.05,12.83-11.05,1.04,0,2.22.08,3.63.3-.14-3.49-.47-3.61-1.37-3.72l-2.69-.38v-.61c4.48-.61,8.35-1.48,9.95-2.7l.8.11c-.09,2.09-.14,4.48-.14,14.31s.09,9.79,1.75,10.33l1.46.38v.84h-9.2c-.09-1.48-.14-3.04-.14-4.86ZM105.03,235.03c-2.45-.87-4.24-1.06-5.75-1.06-2.59,0-3.96,2.24-3.96,7.59s1.37,7.21,4.81,7.21c2.5,0,4.95-.87,4.95-3.91,0-4.48,0-7.59-.05-9.83Z"/>
        <path class="cls-2" d="M126.72,250.59l1.89.38v.84h-12.92v-.84l1.41-.38c1.65-.38,1.65-.76,1.65-6.87,0-6.99,0-7.25-1.32-7.55l-1.75-.46v-.68c3.49-.65,6.56-1.29,9.1-2.09l.52.15c-.05,2.73-.09,5.16-.09,7.82,0,9.19.09,9.38,1.51,9.68ZM117.15,229.22c0-1.94,2.03-2.85,5.14-2.85,2.17,0,3.54.72,3.54,2.13,0,1.94-2.03,2.85-5.19,2.85-2.12,0-3.49-.72-3.49-2.13Z"/>
        <path class="cls-2" d="M136.53,240.27c0,5.43,2.97,7.9,7.31,7.9,3.58,0,5.61-.95,6.93-3.95l.61.42c-1.27,3.91-3.49,7.55-10.61,7.55-6.32,0-10.75-3.08-10.75-9.3s6.13-9.98,13.77-9.98c3.82,0,6.37.72,7.36,1.14-.38,2.05-.61,4.56-.75,7.59h-.94l-1.13-2.51c-1.65-3.49-4.48-5.01-7.69-5.01-2.83.04-4.1,1.71-4.1,6.15Z"/>
        <path class="cls-2" d="M164.4,250.59l1.89.38v.84h-12.92v-.84l1.41-.38c1.65-.38,1.65-.76,1.65-6.87,0-6.99,0-7.25-1.32-7.55l-1.75-.46v-.68c3.49-.65,6.56-1.29,9.1-2.09l.52.15c-.05,2.73-.09,5.16-.09,7.82,0,9.19.09,9.38,1.51,9.68ZM154.83,229.22c0-1.94,2.03-2.85,5.14-2.85,2.17,0,3.54.72,3.54,2.13,0,1.94-2.03,2.85-5.19,2.85-2.12,0-3.49-.72-3.49-2.13Z"/>
        <path class="cls-2" d="M178.93,252.19c-6.74,0-11.18-3.76-11.18-9.64s4.39-9.68,13.3-9.68c7.26,0,11.13,3.11,11.13,8.39,0,6.95-5.19,10.93-13.25,10.93ZM181.67,251.01c2.64,0,3.73-1.48,3.73-6.64,0-6.99-2.97-10.52-6.84-10.52-2.45,0-3.96,1.21-3.96,7.06,0,6.91,2.55,10.1,7.07,10.1ZM186.33,225.46c-2.92,1.94-6.74,4.14-10.14,5.88l-.61-.08c1.65-2.2,3.35-5.01,4.48-7.14,1.93.34,4.15.61,6.27,1.06v.27Z"/>
        <path class="cls-2" d="M203.22,233.13l-.05,5.35.33.04c.8-2.73,4.57-5.66,9.43-5.66,3.87,0,6.08,1.63,6.08,4.71,0,2.2-.09,4.75-.09,6.95,0,5.69.09,5.96,1.74,6.26l1.27.19v.84h-12.97v-.84l1.98-.23c1.51-.27,1.51-.91,1.51-7.71,0-5.39-.71-6.38-4.1-6.38-2.45,0-4.81.87-4.81,3.53,0,10.06.09,10.17,1.6,10.48l2.22.3v.84h-13.35v-.84l1.04-.19c1.98-.42,2.03-.76,2.03-7.06,0-6.99,0-7.25-1.32-7.55l-1.75-.46v-.68c3.02-.49,6.51-1.33,8.63-2.09l.57.19Z"/>
      </g>
    </g>
  </g>
</svg>