<?xml version="1.0" encoding="UTF-8"?>
<svg id="Capa_2" data-name="Capa 2" xmlns="http://www.w3.org/2000/svg" viewBox="0 0 1937.02 1163.01">
  <defs>
    
  </defs>
  <g id="Capa_1-2" data-name="Capa 1">
    <g>
      <g>
        <polygon class="cls-1" points="79.12 321.74 79.12 39.98 118.69 0 118.69 281.76 79.12 321.74"></polygon>
        <polygon class="cls-1" points="0 321.74 0 39.98 39.56 0 39.56 281.76 0 321.74"></polygon>
        <polygon class="cls-2" points="117.69 0 159.09 39.51 159.1 321.74 117.69 281.76 117.69 0"></polygon>
        <polygon class="cls-2" points="38.72 0 80.12 39.51 80.13 321.74 38.72 281.76 38.72 0"></polygon>
        <polygon class="cls-2" points="79.12 603.02 79.12 321.27 118.69 281.29 118.69 563.04 79.12 603.02"></polygon>
        <polygon class="cls-2" points="0 603.02 0 321.27 39.56 281.29 39.56 563.04 0 603.02"></polygon>
        <polygon class="cls-1" points="117.69 281.29 159.09 320.8 159.1 603.02 117.69 563.04 117.69 281.29"></polygon>
        <polygon class="cls-1" points="38.72 281.29 80.12 320.8 80.13 603.02 38.72 563.04 38.72 281.29"></polygon>
        <polygon class="cls-1" points="79.12 881.49 79.12 599.73 118.69 559.75 118.69 841.5 79.12 881.49"></polygon>
        <polygon class="cls-1" points="0 881.49 0 599.73 39.56 559.75 39.56 841.5 0 881.49"></polygon>
        <polygon class="cls-2" points="117.69 559.75 159.09 599.26 159.1 881.49 117.69 841.5 117.69 559.75"></polygon>
        <polygon class="cls-2" points="38.72 559.75 80.12 599.26 80.13 881.49 38.72 841.5 38.72 559.75"></polygon>
        <polygon class="cls-2" points="79.12 1162.77 79.12 881.02 118.69 841.03 118.69 1122.79 79.12 1162.77"></polygon>
        <polygon class="cls-2" points="0 1162.77 0 881.02 39.56 841.03 39.56 1122.79 0 1162.77"></polygon>
        <polygon class="cls-1" points="117.69 841.03 159.09 880.55 159.1 1162.77 117.69 1122.79 117.69 841.03"></polygon>
        <polygon class="cls-1" points="38.72 841.03 80.12 880.55 80.13 1162.77 38.72 1122.79 38.72 841.03"></polygon>
        <polygon class="cls-1" points="237.46 321.97 237.46 40.22 277.02 .24 277.02 281.99 237.46 321.97"></polygon>
        <polygon class="cls-1" points="158.33 321.97 158.33 40.22 197.9 .24 197.9 281.99 158.33 321.97"></polygon>
        <polygon class="cls-2" points="197.05 .24 238.46 39.75 238.47 321.97 197.05 281.99 197.05 .24"></polygon>
        <polygon class="cls-2" points="237.46 603.26 237.46 321.5 277.02 281.52 277.02 563.28 237.46 603.26"></polygon>
        <polygon class="cls-2" points="158.33 603.26 158.33 321.5 197.9 281.52 197.9 563.28 158.33 603.26"></polygon>
        <polygon class="cls-1" points="197.05 281.52 238.46 321.03 238.47 603.26 197.05 563.28 197.05 281.52"></polygon>
        <polygon class="cls-1" points="237.46 881.72 237.46 599.97 277.02 559.98 277.02 841.74 237.46 881.72"></polygon>
        <polygon class="cls-1" points="158.33 881.72 158.33 599.97 197.9 559.98 197.9 841.74 158.33 881.72"></polygon>
        <polygon class="cls-2" points="197.05 559.98 238.46 599.5 238.47 881.72 197.05 841.74 197.05 559.98"></polygon>
        <polygon class="cls-2" points="237.46 1163.01 237.46 881.25 277.02 841.27 277.02 1123.03 237.46 1163.01"></polygon>
        <polygon class="cls-2" points="158.33 1163.01 158.33 881.25 197.9 841.27 197.9 1123.03 158.33 1163.01"></polygon>
        <polygon class="cls-1" points="197.05 841.27 238.46 880.78 238.47 1163.01 197.05 1123.03 197.05 841.27"></polygon>
      </g>
      <g>
        <polygon class="cls-1" points="317.12 321.74 317.12 39.98 356.69 0 356.69 281.76 317.12 321.74"></polygon>
        <polygon class="cls-2" points="355.69 0 397.09 39.51 397.1 321.74 355.69 281.76 355.69 0"></polygon>
        <polygon class="cls-2" points="276.72 0 318.12 39.51 318.13 321.74 276.72 281.76 276.72 0"></polygon>
        <polygon class="cls-2" points="317.12 603.02 317.12 321.27 356.69 281.29 356.69 563.04 317.12 603.02"></polygon>
        <polygon class="cls-1" points="355.69 281.29 397.09 320.8 397.1 603.02 355.69 563.04 355.69 281.29"></polygon>
        <polygon class="cls-1" points="276.72 281.29 318.12 320.8 318.13 603.02 276.72 563.04 276.72 281.29"></polygon>
        <polygon class="cls-1" points="317.12 881.49 317.12 599.73 356.69 559.75 356.69 841.5 317.12 881.49"></polygon>
        <polygon class="cls-2" points="355.69 559.75 397.09 599.26 397.1 881.49 355.69 841.5 355.69 559.75"></polygon>
        <polygon class="cls-2" points="276.72 559.75 318.12 599.26 318.13 881.49 276.72 841.5 276.72 559.75"></polygon>
        <polygon class="cls-2" points="317.12 1162.77 317.12 881.02 356.69 841.03 356.69 1122.79 317.12 1162.77"></polygon>
        <polygon class="cls-1" points="355.69 841.03 397.09 880.55 397.1 1162.77 355.69 1122.79 355.69 841.03"></polygon>
        <polygon class="cls-1" points="276.72 841.03 318.12 880.55 318.13 1162.77 276.72 1122.79 276.72 841.03"></polygon>
        <polygon class="cls-1" points="475.46 321.97 475.46 40.22 515.02 .24 515.02 281.99 475.46 321.97"></polygon>
        <polygon class="cls-1" points="396.33 321.97 396.33 40.22 435.9 .24 435.9 281.99 396.33 321.97"></polygon>
        <polygon class="cls-2" points="435.05 .24 476.46 39.75 476.47 321.97 435.05 281.99 435.05 .24"></polygon>
        <polygon class="cls-2" points="475.46 603.26 475.46 321.5 515.02 281.52 515.02 563.28 475.46 603.26"></polygon>
        <polygon class="cls-2" points="396.33 603.26 396.33 321.5 435.9 281.52 435.9 563.28 396.33 603.26"></polygon>
        <polygon class="cls-1" points="435.05 281.52 476.46 321.03 476.47 603.26 435.05 563.28 435.05 281.52"></polygon>
        <polygon class="cls-1" points="475.46 881.72 475.46 599.97 515.02 559.98 515.02 841.74 475.46 881.72"></polygon>
        <polygon class="cls-1" points="396.33 881.72 396.33 599.97 435.9 559.98 435.9 841.74 396.33 881.72"></polygon>
        <polygon class="cls-2" points="435.05 559.98 476.46 599.5 476.47 881.72 435.05 841.74 435.05 559.98"></polygon>
        <polygon class="cls-2" points="475.46 1163.01 475.46 881.25 515.02 841.27 515.02 1123.03 475.46 1163.01"></polygon>
        <polygon class="cls-2" points="396.33 1163.01 396.33 881.25 435.9 841.27 435.9 1123.03 396.33 1163.01"></polygon>
        <polygon class="cls-1" points="435.05 841.27 476.46 880.78 476.47 1163.01 435.05 1123.03 435.05 841.27"></polygon>
      </g>
      <g>
        <polygon class="cls-1" points="1739.12 321.74 1739.12 39.98 1778.69 0 1778.69 281.76 1739.12 321.74"></polygon>
        <polygon class="cls-2" points="1777.69 0 1819.09 39.51 1819.1 321.74 1777.69 281.76 1777.69 0"></polygon>
        <polygon class="cls-2" points="1698.72 0 1740.12 39.51 1740.13 321.74 1698.72 281.76 1698.72 0"></polygon>
        <polygon class="cls-2" points="1739.12 603.02 1739.12 321.27 1778.69 281.29 1778.69 563.04 1739.12 603.02"></polygon>
        <polygon class="cls-1" points="1777.69 281.29 1819.09 320.8 1819.1 603.02 1777.69 563.04 1777.69 281.29"></polygon>
        <polygon class="cls-1" points="1698.72 281.29 1740.12 320.8 1740.13 603.02 1698.72 563.04 1698.72 281.29"></polygon>
        <polygon class="cls-1" points="1739.12 881.49 1739.12 599.73 1778.69 559.75 1778.69 841.5 1739.12 881.49"></polygon>
        <polygon class="cls-2" points="1777.69 559.75 1819.09 599.26 1819.1 881.49 1777.69 841.5 1777.69 559.75"></polygon>
        <polygon class="cls-2" points="1698.72 559.75 1740.12 599.26 1740.13 881.49 1698.72 841.5 1698.72 559.75"></polygon>
        <polygon class="cls-2" points="1739.12 1162.77 1739.12 881.02 1778.69 841.03 1778.69 1122.79 1739.12 1162.77"></polygon>
        <polygon class="cls-1" points="1777.69 841.03 1819.09 880.55 1819.1 1162.77 1777.69 1122.79 1777.69 841.03"></polygon>
        <polygon class="cls-1" points="1698.72 841.03 1740.12 880.55 1740.13 1162.77 1698.72 1122.79 1698.72 841.03"></polygon>
        <polygon class="cls-1" points="1897.46 321.97 1897.46 40.22 1937.02 .24 1937.02 281.99 1897.46 321.97"></polygon>
        <polygon class="cls-1" points="1818.33 321.97 1818.33 40.22 1857.9 .24 1857.9 281.99 1818.33 321.97"></polygon>
        <polygon class="cls-2" points="1857.05 .24 1898.46 39.75 1898.47 321.97 1857.05 281.99 1857.05 .24"></polygon>
        <polygon class="cls-2" points="1897.46 603.26 1897.46 321.5 1937.02 281.52 1937.02 563.28 1897.46 603.26"></polygon>
        <polygon class="cls-2" points="1818.33 603.26 1818.33 321.5 1857.9 281.52 1857.9 563.28 1818.33 603.26"></polygon>
        <polygon class="cls-1" points="1857.05 281.52 1898.46 321.03 1898.47 603.26 1857.05 563.28 1857.05 281.52"></polygon>
        <polygon class="cls-1" points="1897.46 881.72 1897.46 599.97 1937.02 559.98 1937.02 841.74 1897.46 881.72"></polygon>
        <polygon class="cls-1" points="1818.33 881.72 1818.33 599.97 1857.9 559.98 1857.9 841.74 1818.33 881.72"></polygon>
        <polygon class="cls-2" points="1857.05 559.98 1898.46 599.5 1898.47 881.72 1857.05 841.74 1857.05 559.98"></polygon>
        <polygon class="cls-2" points="1897.46 1163.01 1897.46 881.25 1937.02 841.27 1937.02 1123.03 1897.46 1163.01"></polygon>
        <polygon class="cls-2" points="1818.33 1163.01 1818.33 881.25 1857.9 841.27 1857.9 1123.03 1818.33 1163.01"></polygon>
        <polygon class="cls-1" points="1857.05 841.27 1898.46 880.78 1898.47 1163.01 1857.05 1123.03 1857.05 841.27"></polygon>
      </g>
      <g>
        <g>
          <polygon class="cls-1" points="554.12 321.74 554.12 39.98 593.69 0 593.69 281.76 554.12 321.74"></polygon>
          <polygon class="cls-2" points="592.69 0 634.09 39.51 634.1 321.74 592.69 281.76 592.69 0"></polygon>
          <polygon class="cls-2" points="513.72 0 555.12 39.51 555.13 321.74 513.72 281.76 513.72 0"></polygon>
          <polygon class="cls-2" points="554.12 603.02 554.12 321.27 593.69 281.29 593.69 563.04 554.12 603.02"></polygon>
          <polygon class="cls-1" points="592.69 281.29 634.09 320.8 634.1 603.02 592.69 563.04 592.69 281.29"></polygon>
          <polygon class="cls-1" points="513.72 281.29 555.12 320.8 555.13 603.02 513.72 563.04 513.72 281.29"></polygon>
          <polygon class="cls-1" points="554.12 881.49 554.12 599.73 593.69 559.75 593.69 841.5 554.12 881.49"></polygon>
          <polygon class="cls-2" points="592.69 559.75 634.09 599.26 634.1 881.49 592.69 841.5 592.69 559.75"></polygon>
          <polygon class="cls-2" points="513.72 559.75 555.12 599.26 555.13 881.49 513.72 841.5 513.72 559.75"></polygon>
          <polygon class="cls-2" points="554.12 1162.77 554.12 881.02 593.69 841.03 593.69 1122.79 554.12 1162.77"></polygon>
          <polygon class="cls-1" points="592.69 841.03 634.09 880.55 634.1 1162.77 592.69 1122.79 592.69 841.03"></polygon>
          <polygon class="cls-1" points="513.72 841.03 555.12 880.55 555.13 1162.77 513.72 1122.79 513.72 841.03"></polygon>
          <polygon class="cls-1" points="712.46 321.97 712.46 40.22 752.02 .24 752.02 281.99 712.46 321.97"></polygon>
          <polygon class="cls-1" points="633.33 321.97 633.33 40.22 672.9 .24 672.9 281.99 633.33 321.97"></polygon>
          <polygon class="cls-2" points="672.05 .24 713.46 39.75 713.47 321.97 672.05 281.99 672.05 .24"></polygon>
          <polygon class="cls-2" points="712.46 603.26 712.46 321.5 752.02 281.52 752.02 563.28 712.46 603.26"></polygon>
          <polygon class="cls-2" points="633.33 603.26 633.33 321.5 672.9 281.52 672.9 563.28 633.33 603.26"></polygon>
          <polygon class="cls-1" points="672.05 281.52 713.46 321.03 713.47 603.26 672.05 563.28 672.05 281.52"></polygon>
          <polygon class="cls-1" points="712.46 881.72 712.46 599.97 752.02 559.98 752.02 841.74 712.46 881.72"></polygon>
          <polygon class="cls-1" points="633.33 881.72 633.33 599.97 672.9 559.98 672.9 841.74 633.33 881.72"></polygon>
          <polygon class="cls-2" points="672.05 559.98 713.46 599.5 713.47 881.72 672.05 841.74 672.05 559.98"></polygon>
          <polygon class="cls-2" points="712.46 1163.01 712.46 881.25 752.02 841.27 752.02 1123.03 712.46 1163.01"></polygon>
          <polygon class="cls-2" points="633.33 1163.01 633.33 881.25 672.9 841.27 672.9 1123.03 633.33 1163.01"></polygon>
          <polygon class="cls-1" points="672.05 841.27 713.46 880.78 713.47 1163.01 672.05 1123.03 672.05 841.27"></polygon>
        </g>
        <g>
          <polygon class="cls-1" points="792.12 321.74 792.12 39.98 831.69 0 831.69 281.76 792.12 321.74"></polygon>
          <polygon class="cls-2" points="830.69 0 872.09 39.51 872.1 321.74 830.69 281.76 830.69 0"></polygon>
          <polygon class="cls-2" points="751.72 0 793.12 39.51 793.13 321.74 751.72 281.76 751.72 0"></polygon>
          <polygon class="cls-2" points="792.12 603.02 792.12 321.27 831.69 281.29 831.69 563.04 792.12 603.02"></polygon>
          <polygon class="cls-1" points="830.69 281.29 872.09 320.8 872.1 603.02 830.69 563.04 830.69 281.29"></polygon>
          <polygon class="cls-1" points="751.72 281.29 793.12 320.8 793.13 603.02 751.72 563.04 751.72 281.29"></polygon>
          <polygon class="cls-1" points="792.12 881.49 792.12 599.73 831.69 559.75 831.69 841.5 792.12 881.49"></polygon>
          <polygon class="cls-2" points="830.69 559.75 872.09 599.26 872.1 881.49 830.69 841.5 830.69 559.75"></polygon>
          <polygon class="cls-2" points="751.72 559.75 793.12 599.26 793.13 881.49 751.72 841.5 751.72 559.75"></polygon>
          <polygon class="cls-2" points="792.12 1162.77 792.12 881.02 831.69 841.03 831.69 1122.79 792.12 1162.77"></polygon>
          <polygon class="cls-1" points="830.69 841.03 872.09 880.55 872.1 1162.77 830.69 1122.79 830.69 841.03"></polygon>
          <polygon class="cls-1" points="751.72 841.03 793.12 880.55 793.13 1162.77 751.72 1122.79 751.72 841.03"></polygon>
          <polygon class="cls-1" points="950.46 321.97 950.46 40.22 990.02 .24 990.02 281.99 950.46 321.97"></polygon>
          <polygon class="cls-1" points="871.33 321.97 871.33 40.22 910.9 .24 910.9 281.99 871.33 321.97"></polygon>
          <polygon class="cls-2" points="910.05 .24 951.46 39.75 951.47 321.97 910.05 281.99 910.05 .24"></polygon>
          <polygon class="cls-2" points="950.46 603.26 950.46 321.5 990.02 281.52 990.02 563.28 950.46 603.26"></polygon>
          <polygon class="cls-2" points="871.33 603.26 871.33 321.5 910.9 281.52 910.9 563.28 871.33 603.26"></polygon>
          <polygon class="cls-1" points="910.05 281.52 951.46 321.03 951.47 603.26 910.05 563.28 910.05 281.52"></polygon>
          <polygon class="cls-1" points="950.46 881.72 950.46 599.97 990.02 559.98 990.02 841.74 950.46 881.72"></polygon>
          <polygon class="cls-1" points="871.33 881.72 871.33 599.97 910.9 559.98 910.9 841.74 871.33 881.72"></polygon>
          <polygon class="cls-2" points="910.05 559.98 951.46 599.5 951.47 881.72 910.05 841.74 910.05 559.98"></polygon>
          <polygon class="cls-2" points="950.46 1163.01 950.46 881.25 990.02 841.27 990.02 1123.03 950.46 1163.01"></polygon>
          <polygon class="cls-2" points="871.33 1163.01 871.33 881.25 910.9 841.27 910.9 1123.03 871.33 1163.01"></polygon>
          <polygon class="cls-1" points="910.05 841.27 951.46 880.78 951.47 1163.01 910.05 1123.03 910.05 841.27"></polygon>
        </g>
      </g>
      <g>
        <g>
          <polygon class="cls-1" points="1028.12 321.74 1028.12 39.98 1067.69 0 1067.69 281.76 1028.12 321.74"></polygon>
          <polygon class="cls-2" points="1066.69 0 1108.09 39.51 1108.1 321.74 1066.69 281.76 1066.69 0"></polygon>
          <polygon class="cls-2" points="987.72 0 1029.12 39.51 1029.13 321.74 987.72 281.76 987.72 0"></polygon>
          <polygon class="cls-2" points="1028.12 603.02 1028.12 321.27 1067.69 281.29 1067.69 563.04 1028.12 603.02"></polygon>
          <polygon class="cls-1" points="1066.69 281.29 1108.09 320.8 1108.1 603.02 1066.69 563.04 1066.69 281.29"></polygon>
          <polygon class="cls-1" points="987.72 281.29 1029.12 320.8 1029.13 603.02 987.72 563.04 987.72 281.29"></polygon>
          <polygon class="cls-1" points="1028.12 881.49 1028.12 599.73 1067.69 559.75 1067.69 841.5 1028.12 881.49"></polygon>
          <polygon class="cls-2" points="1066.69 559.75 1108.09 599.26 1108.1 881.49 1066.69 841.5 1066.69 559.75"></polygon>
          <polygon class="cls-2" points="987.72 559.75 1029.12 599.26 1029.13 881.49 987.72 841.5 987.72 559.75"></polygon>
          <polygon class="cls-2" points="1028.12 1162.77 1028.12 881.02 1067.69 841.03 1067.69 1122.79 1028.12 1162.77"></polygon>
          <polygon class="cls-1" points="1066.69 841.03 1108.09 880.55 1108.1 1162.77 1066.69 1122.79 1066.69 841.03"></polygon>
          <polygon class="cls-1" points="987.72 841.03 1029.12 880.55 1029.13 1162.77 987.72 1122.79 987.72 841.03"></polygon>
          <polygon class="cls-1" points="1186.46 321.97 1186.46 40.22 1226.02 .24 1226.02 281.99 1186.46 321.97"></polygon>
          <polygon class="cls-1" points="1107.33 321.97 1107.33 40.22 1146.9 .24 1146.9 281.99 1107.33 321.97"></polygon>
          <polygon class="cls-2" points="1146.05 .24 1187.46 39.75 1187.47 321.97 1146.05 281.99 1146.05 .24"></polygon>
          <polygon class="cls-2" points="1186.46 603.26 1186.46 321.5 1226.02 281.52 1226.02 563.28 1186.46 603.26"></polygon>
          <polygon class="cls-2" points="1107.33 603.26 1107.33 321.5 1146.9 281.52 1146.9 563.28 1107.33 603.26"></polygon>
          <polygon class="cls-1" points="1146.05 281.52 1187.46 321.03 1187.47 603.26 1146.05 563.28 1146.05 281.52"></polygon>
          <polygon class="cls-1" points="1186.46 881.72 1186.46 599.97 1226.02 559.98 1226.02 841.74 1186.46 881.72"></polygon>
          <polygon class="cls-1" points="1107.33 881.72 1107.33 599.97 1146.9 559.98 1146.9 841.74 1107.33 881.72"></polygon>
          <polygon class="cls-2" points="1146.05 559.98 1187.46 599.5 1187.47 881.72 1146.05 841.74 1146.05 559.98"></polygon>
          <polygon class="cls-2" points="1186.46 1163.01 1186.46 881.25 1226.02 841.27 1226.02 1123.03 1186.46 1163.01"></polygon>
          <polygon class="cls-2" points="1107.33 1163.01 1107.33 881.25 1146.9 841.27 1146.9 1123.03 1107.33 1163.01"></polygon>
          <polygon class="cls-1" points="1146.05 841.27 1187.46 880.78 1187.47 1163.01 1146.05 1123.03 1146.05 841.27"></polygon>
        </g>
        <g>
          <g>
            <polygon class="cls-1" points="1265.12 321.74 1265.12 39.98 1304.69 0 1304.69 281.76 1265.12 321.74"></polygon>
            <polygon class="cls-2" points="1303.69 0 1345.09 39.51 1345.1 321.74 1303.69 281.76 1303.69 0"></polygon>
            <polygon class="cls-2" points="1224.72 0 1266.12 39.51 1266.13 321.74 1224.72 281.76 1224.72 0"></polygon>
            <polygon class="cls-2" points="1265.12 603.02 1265.12 321.27 1304.69 281.29 1304.69 563.04 1265.12 603.02"></polygon>
            <polygon class="cls-1" points="1303.69 281.29 1345.09 320.8 1345.1 603.02 1303.69 563.04 1303.69 281.29"></polygon>
            <polygon class="cls-1" points="1224.72 281.29 1266.12 320.8 1266.13 603.02 1224.72 563.04 1224.72 281.29"></polygon>
            <polygon class="cls-1" points="1265.12 881.49 1265.12 599.73 1304.69 559.75 1304.69 841.5 1265.12 881.49"></polygon>
            <polygon class="cls-2" points="1303.69 559.75 1345.09 599.26 1345.1 881.49 1303.69 841.5 1303.69 559.75"></polygon>
            <polygon class="cls-2" points="1224.72 559.75 1266.12 599.26 1266.13 881.49 1224.72 841.5 1224.72 559.75"></polygon>
            <polygon class="cls-2" points="1265.12 1162.77 1265.12 881.02 1304.69 841.03 1304.69 1122.79 1265.12 1162.77"></polygon>
            <polygon class="cls-1" points="1303.69 841.03 1345.09 880.55 1345.1 1162.77 1303.69 1122.79 1303.69 841.03"></polygon>
            <polygon class="cls-1" points="1224.72 841.03 1266.12 880.55 1266.13 1162.77 1224.72 1122.79 1224.72 841.03"></polygon>
            <polygon class="cls-1" points="1423.46 321.97 1423.46 40.22 1463.02 .24 1463.02 281.99 1423.46 321.97"></polygon>
            <polygon class="cls-1" points="1344.33 321.97 1344.33 40.22 1383.9 .24 1383.9 281.99 1344.33 321.97"></polygon>
            <polygon class="cls-2" points="1383.05 .24 1424.46 39.75 1424.47 321.97 1383.05 281.99 1383.05 .24"></polygon>
            <polygon class="cls-2" points="1423.46 603.26 1423.46 321.5 1463.02 281.52 1463.02 563.28 1423.46 603.26"></polygon>
            <polygon class="cls-2" points="1344.33 603.26 1344.33 321.5 1383.9 281.52 1383.9 563.28 1344.33 603.26"></polygon>
            <polygon class="cls-1" points="1383.05 281.52 1424.46 321.03 1424.47 603.26 1383.05 563.28 1383.05 281.52"></polygon>
            <polygon class="cls-1" points="1423.46 881.72 1423.46 599.97 1463.02 559.98 1463.02 841.74 1423.46 881.72"></polygon>
            <polygon class="cls-1" points="1344.33 881.72 1344.33 599.97 1383.9 559.98 1383.9 841.74 1344.33 881.72"></polygon>
            <polygon class="cls-2" points="1383.05 559.98 1424.46 599.5 1424.47 881.72 1383.05 841.74 1383.05 559.98"></polygon>
            <polygon class="cls-2" points="1423.46 1163.01 1423.46 881.25 1463.02 841.27 1463.02 1123.03 1423.46 1163.01"></polygon>
            <polygon class="cls-2" points="1344.33 1163.01 1344.33 881.25 1383.9 841.27 1383.9 1123.03 1344.33 1163.01"></polygon>
            <polygon class="cls-1" points="1383.05 841.27 1424.46 880.78 1424.47 1163.01 1383.05 1123.03 1383.05 841.27"></polygon>
          </g>
          <g>
            <polygon class="cls-1" points="1503.12 321.74 1503.12 39.98 1542.69 0 1542.69 281.76 1503.12 321.74"></polygon>
            <polygon class="cls-2" points="1541.69 0 1583.09 39.51 1583.1 321.74 1541.69 281.76 1541.69 0"></polygon>
            <polygon class="cls-2" points="1462.72 0 1504.12 39.51 1504.13 321.74 1462.72 281.76 1462.72 0"></polygon>
            <polygon class="cls-2" points="1503.12 603.02 1503.12 321.27 1542.69 281.29 1542.69 563.04 1503.12 603.02"></polygon>
            <polygon class="cls-1" points="1541.69 281.29 1583.09 320.8 1583.1 603.02 1541.69 563.04 1541.69 281.29"></polygon>
            <polygon class="cls-1" points="1462.72 281.29 1504.12 320.8 1504.13 603.02 1462.72 563.04 1462.72 281.29"></polygon>
            <polygon class="cls-1" points="1503.12 881.49 1503.12 599.73 1542.69 559.75 1542.69 841.5 1503.12 881.49"></polygon>
            <polygon class="cls-2" points="1541.69 559.75 1583.09 599.26 1583.1 881.49 1541.69 841.5 1541.69 559.75"></polygon>
            <polygon class="cls-2" points="1462.72 559.75 1504.12 599.26 1504.13 881.49 1462.72 841.5 1462.72 559.75"></polygon>
            <polygon class="cls-2" points="1503.12 1162.77 1503.12 881.02 1542.69 841.03 1542.69 1122.79 1503.12 1162.77"></polygon>
            <polygon class="cls-1" points="1541.69 841.03 1583.09 880.55 1583.1 1162.77 1541.69 1122.79 1541.69 841.03"></polygon>
            <polygon class="cls-1" points="1462.72 841.03 1504.12 880.55 1504.13 1162.77 1462.72 1122.79 1462.72 841.03"></polygon>
            <polygon class="cls-1" points="1661.46 321.97 1661.46 40.22 1701.02 .24 1701.02 281.99 1661.46 321.97"></polygon>
            <polygon class="cls-1" points="1582.33 321.97 1582.33 40.22 1621.9 .24 1621.9 281.99 1582.33 321.97"></polygon>
            <polygon class="cls-2" points="1621.05 .24 1662.46 39.75 1662.47 321.97 1621.05 281.99 1621.05 .24"></polygon>
            <polygon class="cls-2" points="1661.46 603.26 1661.46 321.5 1701.02 281.52 1701.02 563.28 1661.46 603.26"></polygon>
            <polygon class="cls-2" points="1582.33 603.26 1582.33 321.5 1621.9 281.52 1621.9 563.28 1582.33 603.26"></polygon>
            <polygon class="cls-1" points="1621.05 281.52 1662.46 321.03 1662.47 603.26 1621.05 563.28 1621.05 281.52"></polygon>
            <polygon class="cls-1" points="1661.46 881.72 1661.46 599.97 1701.02 559.98 1701.02 841.74 1661.46 881.72"></polygon>
            <polygon class="cls-1" points="1582.33 881.72 1582.33 599.97 1621.9 559.98 1621.9 841.74 1582.33 881.72"></polygon>
            <polygon class="cls-2" points="1621.05 559.98 1662.46 599.5 1662.47 881.72 1621.05 841.74 1621.05 559.98"></polygon>
            <polygon class="cls-2" points="1661.46 1163.01 1661.46 881.25 1701.02 841.27 1701.02 1123.03 1661.46 1163.01"></polygon>
            <polygon class="cls-2" points="1582.33 1163.01 1582.33 881.25 1621.9 841.27 1621.9 1123.03 1582.33 1163.01"></polygon>
            <polygon class="cls-1" points="1621.05 841.27 1662.46 880.78 1662.47 1163.01 1621.05 1123.03 1621.05 841.27"></polygon>
          </g>
        </g>
      </g>
    </g>
  </g>
</svg>