<?xml version="1.0" encoding="UTF-8"?>
<svg id="Capa_2" data-name="Capa 2" xmlns="http://www.w3.org/2000/svg" viewBox="0 0 522.02 152.96">
  <defs>
    
  </defs>
  <g id="Capa_1-2" data-name="Capa 1">
    <g>
      <g>
        <path class="cls-1" d="M295.04,74.81h-21.42v-2.15l1.04-.52c2.59-1.26,7.64-13.12,22.24-44.18h2.59c3.04,6.38,7.64,16.09,10.53,22.46,6.3,13.57,9.34,19.94,11.86,21.65l.89.59v2.15h-24.09v-2.22l1.56-.22c1.63-.15,2.67-.59,2.67-2.45,0-1.56-1.56-5.56-3.78-10.67-1.78-.07-3.63-.15-5.71-.15-1.85,0-3.34,0-4.97.07-.15,2.08-.22,4-.22,5.63,0,4.45,1.48,6.82,5.04,7.49l1.78.3v2.22ZM298.23,57.31c-2.45-5.63-4.97-11.05-6.45-13.94-1.63,4.15-2.59,9.27-3.11,14.01,1.48.07,2.96.07,4.74.07s3.34-.07,4.82-.15Z"></path>
        <path class="cls-1" d="M325.8,33l-2.59-.96v-1.93c9.34-1.85,13.57-3.04,16.53-6.08l1.63.22c-.22,7.04-.22,14.01-.22,21.2,0,25.13,0,25.5,2.3,26.46l2.08.74v2.15h-22.46v-2.15l2.52-.74c2.08-.74,1.85-2.52,1.85-19.42,0-17.87.15-18.68-1.63-19.5Z"></path>
        <path class="cls-1" d="M380.88,77.1c-3.26-6.23-8.08-16.46-11.12-22.76-6.75-14.01-9.49-19.64-11.71-21.28l-.96-.59.07-2.15h23.87v2.22l-1.04.15c-1.63.22-2.74.67-2.74,2.52s2.15,6.89,4.74,12.82c2.45,5.34,4.97,10.53,6.3,13.34,2.08-6.6,3.56-15.27,3.56-20.98,0-4.67-1.56-6.89-5.41-7.56l-1.63-.3v-2.22h21.87v2.15l-.67.3c-2.59,1.11-7.78,13.27-23.05,44.33h-2.08Z"></path>
        <path class="cls-1" d="M426.99,71.92l2.3.74v2.15h-22.24v-2.15l1.93-.89c2.15-.89,2.15-1.85,2.15-12.6,0-13.34,0-14.01-1.63-14.83l-2.45-1.19v-1.78c6.15-1.33,12.01-2.67,16.68-4.45l1.04.37c-.07,5.26-.15,10.53-.15,15.79,0,17.79.07,18.16,2.37,18.83ZM408.31,31.44c0-4.6,4.08-6.67,10.38-6.67,4.15,0,6.82,1.63,6.82,4.82,0,4.52-4.08,6.75-10.45,6.75-4.08,0-6.75-1.71-6.75-4.89Z"></path>
        <path class="cls-1" d="M447.3,37.37v10.82h.59c1.26-5.19,7.49-11.27,14.68-11.27,5.49,0,9.34,3.19,9.34,9.19,0,4.45-.15,9.56-.15,14.01,0,11.56.07,11.56,2.82,12.23l1.26.3v2.15h-21.42v-2.15l1.33-.37c2.52-.59,2.45-1.93,2.45-13.86,0-10.45-1.19-11.71-5.34-11.71-2.52,0-4.74.89-4.74,4.37,0,20.31,0,20.39,2.59,21.05l1.85.52v2.15h-22.02v-2.15l1.19-.37c2.82-1.04,2.89-1.93,2.89-13.12,0-13.34,0-14.01-1.63-14.83l-2.45-1.19v-1.78c5.11-.96,11.86-2.82,15.72-4.37l1.04.37Z"></path>
        <path class="cls-1" d="M495.85,75.55c-11.05,0-18.38-7.34-18.38-18.83,0-12.82,7.27-19.79,22.02-19.79,12.3,0,18.31,6.23,18.31,16.75,0,14.46-8.3,21.87-21.94,21.87ZM500.89,73.03c2.15,0,2.74-1.56,2.74-11.27,0-14.9-4.23-22.46-9.04-22.46-1.93,0-2.82,1.26-2.82,13.42,0,14.46,3.34,20.31,9.12,20.31Z"></path>
        <g>
          <path class="cls-1" d="M279.97,101.14c-.05,1.09-.32,3.09-.32,13.14,0,11.35.11,11.79,1.46,12.14l2.43.43-.05.96h-15.78v-.96l2.92-.48c1.3-.26,1.57-.83,1.57-11.14,0-9.4-.16-9.35-2.49-9.66l-1.89-.17v-.83c3.89-.35,7.62-1.22,11.19-3.52l.97.09Z"></path>
          <path class="cls-1" d="M299.26,128.24c-8.86,0-13.73-5.39-13.73-13.44,0-8.48,5.67-13.49,16.16-13.49,9.46,0,13.73,4.44,13.73,11.7,0,9.66-6.32,15.23-16.16,15.23ZM302.39,126.76c3.4,0,4.81-2.18,4.81-9.53,0-9.7-3.57-14.53-8.48-14.53-3.51,0-4.97,1.57-4.97,9.7,0,9.79,3.13,14.36,8.65,14.36Z"></path>
          <path class="cls-1" d="M324.28,101.35c3.84,0,6.54,2.18,6.54,5.26s-2.7,5.18-6.54,5.18-6.59-2.18-6.59-5.18,2.59-5.26,6.59-5.26ZM324.28,110.27c2.54,0,4.49-1.44,4.49-3.65s-1.95-3.74-4.49-3.74c-2.7,0-4.59,1.44-4.59,3.74s1.89,3.65,4.59,3.65Z"></path>
          <path class="cls-1" d="M366.65,114.1l-6.81.96-10.7-.17v.39c0,6.48,3.3,8.4,8.32,8.4,4.22,0,6.92-1.31,8.65-5.09l.7.52c-1.73,4.96-4.32,9.18-12.59,9.18-7.62,0-12.92-3.57-12.92-11.09,0-6.92,5.73-11.05,15.19-11.05,7.46,0,10.27,2.87,10.16,7.96ZM349.14,114.53l9.19-.65c.92-.09,1.24-.48,1.24-1.17,0-3.09-2.59-5.35-5.78-5.35s-4.54,1.65-4.65,7.18Z"></path>
          <path class="cls-1" d="M388.53,122.23h-.32c-.92,2.78-5.19,6-10.16,6-6.7,0-8.86-4.35-8.86-9.4,0-8.09,5.3-12.66,14.7-12.66,1.19,0,2.54.09,4.16.35-.16-4-.54-4.13-1.57-4.26l-3.08-.44v-.7c5.13-.7,9.57-1.7,11.4-3.09l.92.13c-.11,2.39-.16,5.13-.16,16.4s.11,11.22,2,11.83l1.68.43v.96h-10.54c-.11-1.7-.16-3.48-.16-5.57ZM388.05,108.57c-2.81-1-4.86-1.22-6.59-1.22-2.97,0-4.54,2.57-4.54,8.7s1.57,8.27,5.51,8.27c2.86,0,5.67-1,5.67-4.48,0-5.13,0-8.7-.05-11.27Z"></path>
          <path class="cls-1" d="M412.91,126.41l2.16.43v.96h-14.81v-.96l1.62-.43c1.89-.43,1.89-.87,1.89-7.87,0-8,0-8.31-1.51-8.66l-2-.52v-.78c4-.74,7.51-1.48,10.43-2.39l.59.17c-.05,3.13-.11,5.92-.11,8.96,0,10.53.11,10.74,1.73,11.09ZM401.94,101.92c0-2.22,2.32-3.26,5.89-3.26,2.49,0,4.05.83,4.05,2.44,0,2.22-2.32,3.26-5.94,3.26-2.43,0-4-.83-4-2.44Z"></path>
          <path class="cls-1" d="M424.15,114.58c0,6.22,3.4,9.05,8.38,9.05,4.11,0,6.43-1.09,7.94-4.52l.7.48c-1.46,4.48-4,8.66-12.16,8.66-7.24,0-12.32-3.52-12.32-10.66s7.03-11.44,15.78-11.44c4.38,0,7.3.83,8.43,1.3-.43,2.35-.7,5.22-.86,8.7h-1.08l-1.3-2.87c-1.89-4-5.13-5.74-8.81-5.74-3.24.04-4.7,1.96-4.7,7.05Z"></path>
          <path class="cls-1" d="M456.09,126.41l2.16.43v.96h-14.81v-.96l1.62-.43c1.89-.43,1.89-.87,1.89-7.87,0-8,0-8.31-1.51-8.66l-2-.52v-.78c4-.74,7.51-1.48,10.43-2.39l.59.17c-.05,3.13-.11,5.92-.11,8.96,0,10.53.11,10.74,1.73,11.09ZM445.12,101.92c0-2.22,2.32-3.26,5.89-3.26,2.49,0,4.05.83,4.05,2.44,0,2.22-2.32,3.26-5.94,3.26-2.43,0-4-.83-4-2.44Z"></path>
          <path class="cls-1" d="M472.73,128.24c-7.73,0-12.81-4.31-12.81-11.05s5.03-11.09,15.24-11.09c8.32,0,12.75,3.57,12.75,9.61,0,7.96-5.94,12.53-15.19,12.53ZM475.86,126.89c3.03,0,4.27-1.7,4.27-7.61,0-8-3.4-12.05-7.84-12.05-2.81,0-4.54,1.39-4.54,8.09,0,7.92,2.92,11.57,8.11,11.57ZM481.22,97.61c-3.35,2.22-7.73,4.74-11.62,6.74l-.7-.09c1.89-2.52,3.84-5.74,5.13-8.18,2.22.39,4.76.7,7.19,1.22v.3Z"></path>
          <path class="cls-1" d="M500.56,106.4l-.05,6.13.38.04c.92-3.13,5.24-6.48,10.81-6.48,4.43,0,6.97,1.87,6.97,5.39,0,2.52-.11,5.44-.11,7.96,0,6.53.11,6.83,2,7.18l1.46.22v.96h-14.86v-.96l2.27-.26c1.73-.3,1.73-1.04,1.73-8.83,0-6.18-.81-7.31-4.7-7.31-2.81,0-5.51,1-5.51,4.05,0,11.53.11,11.66,1.84,12.01l2.54.35v.96h-15.29v-.96l1.19-.22c2.27-.48,2.32-.87,2.32-8.09,0-8,0-8.31-1.51-8.66l-2-.52v-.78c3.46-.57,7.46-1.52,9.89-2.39l.65.22Z"></path>
        </g>
      </g>
      <g>
        <path class="cls-1" d="M244.94,91.59c-1.95-.36-3.46,1.63-4.11,1.73-2.97.47-5.17,7.11-8.74,12.25-3.44,4.94-8.43,8.65-13.19,7.92-8.76-1.35-10.11-12.01-10.49-21.9-.38-9.89.65-12.27.65-12.27,0,0-.39-1.88-2.99-2.18-2.6-.3-3.31-1.28-3.84-.63-.36.45-.7,1.61-.88,2.3v.24c-.73-.51-2.14-1.32-4.32-1.83-4.31-1.01-12.88-.47-23.46,11.09-4.89,5.34-7.98,12.15-9.26,18.51-4.82,5.84-12.72,14.64-15.8,13.53-5.02-1.82-1.93-30.79-.14-35.97.96-2.79,10.18-30.11,14.68-46.31,2.35-8.45-2.29-7.75-7.94-8.44-5.44-.67-9.49,20.26-10.01,22.53-2.28,9.91-6.89,31.35-7.41,32.77-.65,1.77-1.04,3.44-1.78,4.21-.61.64-1.05.1-1.05.1,0,0-.72-3.44-5.96-4.53-9.51-1.98-20.88,8.83-26.39,18.58-9,15.94-9.05,29.61-1.53,34.87,5.58,3.91,13.31-1.26,20.93-10.67,8.26-10.2,12.82-21.59,13.83-21.16s1.18,2.39,1.2,2.83c.03.44.05,18.81,8.34,20.47,7.03,1.41,14.21-3.82,18.69-11.18.05-.08.1-.17.15-.25.7,3.13,2.13,5.57,4.29,6.82,9.16,5.27,18.43-4.14,25.52-13.23,5.36-6.87,6.39-9.82,7.03-10.91l.2-.44c.14-.32.65-.88.75-.34.9,4.84,2.41,19.54,15.84,22.16,7.78,1.52,15.59-3.34,22.56-11.19,4.54-5.11,8.62-11.16,8.62-14.11,0-2.37-1.49-4.92-4-5.38ZM119.23,118.02c-4.76,5.87-9.44,12.09-12.41,10.54-2.49-1.29-2.55-10.6,4.06-21.91,3.39-5.8,11.66-16.95,18.31-14.65,3.64,1.26,4.8,5.52,4.8,5.52,0,0-10,14.64-14.76,20.5ZM188.73,105.29c-3.79,4.67-10.3,15.1-14.38,12.78-3.62-2.06-2.4-14.22,5.8-24.18,5.74-6.97,11.51-11.56,16.35-10.31,3.47.9,4.7,3.99,4.84,4.38v.06c-.3.44-8.72,12.49-12.61,17.27Z"></path>
        <path class="cls-1" d="M47.74,57.73c-1.72-1.72-.98-4.11-3.36-4.52-1.89-.33-3.63,2-6.9,1.09-2.89-.81-5.22,2.5-5.22,2.5,0,0-10.99,12.9-13.9,42.98-2.32,23.92,6.22,47.28,21.85,52.15,20.32,6.34,45.41-16.7,56.54-72.25C106.77,29.66,90.95,5.02,69.51.83,41.83-4.58,16.2,17.13,6.47,44.1c-9.88,27.39-7.33,63.39.13,61.36.91-.25,1-2.35,1.5-3.08.77-1.12,2.02-2.17,2.4-2.69.71-.99,1.47-3.88,1.44-4.91-.24-10.03-2-35.69,17.04-64.64,12.61-19.18,30.72-23.64,42.47-19.93,18.11,5.72,24.34,32.12,11.65,77.44-8.82,31.51-26.09,56.41-38.54,50.55-8-3.76-12.08-19.02-6.22-39.62,2.76-9.71,10.92-26.74,10.36-29.19-.24-1.07-.72-.91-1.4-1.42-1.11-.83,2.26-8.43.44-10.24Z"></path>
      </g>
    </g>
  </g>
</svg>