<?xml version="1.0" encoding="UTF-8"?>
<svg id="Capa_2" xmlns="http://www.w3.org/2000/svg" version="1.1" viewBox="0 0 224.6 252.2">
  
  <defs>
    
  </defs>
  <path class="st0" d="M21.1,205.7H1.8v-1.9l.9-.5c2.3-1.1,6.9-11.8,20-39.7h2.3c2.7,5.7,6.9,14.5,9.5,20.2,5.7,12.2,8.4,17.9,10.7,19.5l.8.5v1.9h-21.7v-2l1.4-.2c1.5-.1,2.4-.5,2.4-2.2s-1.4-5-3.4-9.6c-1.6,0-3.3-.1-5.1-.1s-3,0-4.5,0c-.1,1.9-.2,3.6-.2,5.1,0,4,1.3,6.1,4.5,6.7l1.6.3v2h0ZM24,190c-2.2-5.1-4.5-9.9-5.8-12.5-1.5,3.7-2.3,8.3-2.8,12.6,1.3,0,2.7,0,4.3,0s3,0,4.3-.1h0Z"></path>
  <path class="st0" d="M48.8,168.1l-2.3-.9v-1.7c8.4-1.7,12.2-2.7,14.9-5.5l1.5.2c-.2,6.3-.2,12.6-.2,19.1,0,22.6,0,22.9,2.1,23.8l1.9.7v1.9h-20.2v-1.9l2.3-.7c1.9-.7,1.7-2.3,1.7-17.5s.1-16.8-1.5-17.5h0Z"></path>
  <path class="st0" d="M98.3,207.8c-2.9-5.6-7.3-14.8-10-20.5-6.1-12.6-8.5-17.7-10.5-19.1l-.9-.5v-1.9h21.6v2h-.9c-1.5.3-2.5.7-2.5,2.4s1.9,6.2,4.3,11.5c2.2,4.8,4.5,9.5,5.7,12,1.9-5.9,3.2-13.7,3.2-18.9s-1.4-6.2-4.9-6.8l-1.5-.3v-2h19.7v1.9l-.6.3c-2.3,1-7,11.9-20.8,39.9h-1.9,0Z"></path>
  <path class="st0" d="M139.8,203.1l2.1.7v1.9h-20v-1.9l1.7-.8c1.9-.8,1.9-1.7,1.9-11.3s0-12.6-1.5-13.3l-2.2-1.1v-1.6c5.5-1.2,10.8-2.4,15-4l.9.3c0,4.7-.1,9.5-.1,14.2,0,16,0,16.3,2.1,16.9h0ZM123,166.7c0-4.1,3.7-6,9.3-6s6.1,1.5,6.1,4.3c0,4.1-3.7,6.1-9.4,6.1s-6.1-1.5-6.1-4.4h0Z"></path>
  <path class="st0" d="M158.1,172v9.7h.5c1.1-4.7,6.7-10.1,13.2-10.1s8.4,2.9,8.4,8.3-.1,8.6-.1,12.6c0,10.4,0,10.4,2.5,11l1.1.3v1.9h-19.3v-1.9l1.2-.3c2.3-.5,2.2-1.7,2.2-12.5s-1.1-10.5-4.8-10.5-4.3.8-4.3,3.9c0,18.3,0,18.3,2.3,18.9l1.7.5v1.9h-19.8v-1.9l1.1-.3c2.5-.9,2.6-1.7,2.6-11.8s0-12.6-1.5-13.3l-2.2-1.1v-1.6c4.6-.9,10.7-2.5,14.1-3.9l.9.3h0Z"></path>
  <path class="st0" d="M201.8,206.4c-9.9,0-16.5-6.6-16.5-16.9s6.5-17.8,19.8-17.8,16.5,5.6,16.5,15.1-7.5,19.7-19.8,19.7h0ZM206.4,204.1c1.9,0,2.5-1.4,2.5-10.1,0-13.4-3.8-20.2-8.1-20.2s-2.5,1.1-2.5,12.1,3,18.3,8.2,18.3h0Z"></path>
  <path class="st0" d="M221,82.3c-1.8-.3-3.1,1.5-3.7,1.6-2.7.4-4.6,6.4-7.9,11-3.1,4.4-7.6,7.8-11.9,7.1-7.9-1.2-9.1-10.8-9.4-19.7s.6-11,.6-11c0,0-.4-1.7-2.7-2s-3-1.2-3.4-.6c-.3.4-.6,1.4-.8,2.1v.2c-.7-.5-1.9-1.2-3.9-1.7-3.9-.9-11.6-.4-21.1,10-4.4,4.8-7.2,10.9-8.3,16.7-4.3,5.2-11.4,13.2-14.2,12.2-4.5-1.6-1.7-27.7-.1-32.3.9-2.5,9.2-27.1,13.2-41.6,2.1-7.6-2.1-7-7.1-7.6-4.9-.6-8.5,18.2-9,20.3-2.1,8.9-6.2,28.2-6.7,29.5-.6,1.6-.9,3.1-1.6,3.8-.6.6-.9,0-.9,0,0,0-.7-3.1-5.4-4.1-8.6-1.8-18.8,7.9-23.8,16.7-8.1,14.3-8.2,26.6-1.4,31.3,5,3.5,12-1.1,18.8-9.6,7.4-9.2,11.5-19.4,12.4-19,.9.4,1.1,2.2,1.1,2.5,0,.4,0,16.9,7.5,18.4,6.3,1.3,12.8-3.4,16.8-10.1,0,0,0-.2.1-.2.6,2.8,1.9,5,3.9,6.1,8.2,4.7,16.6-3.7,23-11.9,4.8-6.2,5.8-8.8,6.3-9.8l.2-.4c.1-.3.6-.8.7-.3.8,4.3,2.2,17.6,14.2,19.9,7,1.4,14-3,20.3-10.1,4.1-4.6,7.8-10,7.8-12.7s-1.3-4.4-3.6-4.8h0ZM107.9,106.1c-4.3,5.3-8.5,10.9-11.2,9.5-2.2-1.2-2.3-9.5,3.7-19.7,3.1-5.2,10.5-15.2,16.5-13.2,3.3,1.1,4.3,5,4.3,5,0,0-9,13.2-13.3,18.4h0ZM170.4,94.7c-3.4,4.2-9.3,13.6-12.9,11.5-3.3-1.8-2.2-12.8,5.2-21.7,5.2-6.3,10.4-10.4,14.7-9.3,3.1.8,4.2,3.6,4.4,3.9h0c-.3.4-7.9,11.3-11.4,15.6h0Z"></path>
  <path class="st0" d="M43.5,51.9c-1.5-1.5-.9-3.7-3-4.1-1.7-.3-3.3,1.8-6.2,1-2.6-.7-4.7,2.2-4.7,2.2,0,0-9.9,11.6-12.5,38.7-2.1,21.5,5.6,42.5,19.7,46.9,18.3,5.7,40.9-15,50.9-65C96.7,26.7,82.4,4.5,63.1.8,38.2-4.1,15.2,15.4,6.4,39.7c-8.9,24.6-6.6,57,.1,55.2.8-.2.9-2.1,1.3-2.8.7-1,1.8-1.9,2.2-2.4.6-.9,1.3-3.5,1.3-4.4-.2-9-1.8-32.1,15.3-58.1,11.3-17.2,27.7-21.3,38.2-17.9,16.3,5.1,21.9,28.9,10.5,69.6-7.9,28.3-23.5,50.7-34.7,45.4-7.2-3.4-10.9-17.1-5.6-35.6,2.5-8.7,9.8-24,9.3-26.2-.2-1-.7-.8-1.3-1.3-1-.7,2-7.6.4-9.2h0Z"></path>
  <path class="st0" d="M10.7,228.5c0,.9-.3,2.7-.3,11.5s0,10.3,1.3,10.6l2.1.4v.8H0v-.8l2.5-.4c1.1-.2,1.4-.7,1.4-9.7s-.1-8.2-2.2-8.4H.1v-.9c3.4-.3,6.6-1.1,9.8-3.1h.9c0,0,0,0,0,0Z"></path>
  <path class="st0" d="M27.5,252.2c-7.7,0-12-4.7-12-11.7s5-11.8,14.1-11.8,12,3.9,12,10.2-5.5,13.3-14.1,13.3ZM30.3,250.9c3,0,4.2-1.9,4.2-8.3s-3.1-12.7-7.4-12.7-4.3,1.4-4.3,8.5,2.7,12.5,7.6,12.5h0Z"></path>
  <path class="st0" d="M49.4,228.7c3.3,0,5.7,1.9,5.7,4.6s-2.4,4.5-5.7,4.5-5.8-1.9-5.8-4.5,2.3-4.6,5.8-4.6ZM49.4,236.5c2.2,0,3.9-1.2,3.9-3.2s-1.7-3.3-3.9-3.3-4,1.2-4,3.3,1.7,3.2,4,3.2Z"></path>
  <path class="st0" d="M86.3,239.9l-5.9.8h-9.3c0-.1,0,.2,0,.2,0,5.7,2.9,7.3,7.3,7.3s6-1.1,7.6-4.4l.6.5c-1.5,4.3-3.8,8-11,8s-11.3-3.1-11.3-9.7,5-9.6,13.2-9.6,9,2.5,8.9,6.9h0ZM71.1,240.2l8-.6c.8,0,1.1-.4,1.1-1,0-2.7-2.3-4.7-5.1-4.7s-4,1.4-4.1,6.3h0Z"></path>
  <path class="st0" d="M105.4,246.9h-.3c-.8,2.4-4.5,5.2-8.9,5.2s-7.7-3.8-7.7-8.2c0-7.1,4.6-11.1,12.8-11.1s2.2,0,3.6.3c-.1-3.5-.5-3.6-1.4-3.7l-2.7-.4v-.6c4.5-.6,8.3-1.5,9.9-2.7h.8c0,2.2-.1,4.6-.1,14.4s0,9.8,1.8,10.3l1.5.4v.8h-9.2c0-1.5-.1-3-.1-4.9h0ZM105,235c-2.4-.9-4.2-1.1-5.8-1.1-2.6,0-4,2.2-4,7.6s1.4,7.2,4.8,7.2,4.9-.9,4.9-3.9c0-4.5,0-7.6,0-9.8Z"></path>
  <path class="st0" d="M126.7,250.6l1.9.4v.8h-12.9v-.8l1.4-.4c1.7-.4,1.7-.8,1.7-6.9s0-7.2-1.3-7.6l-1.8-.5v-.7c3.5-.6,6.6-1.3,9.1-2.1h.5c0,2.9,0,5.3,0,8,0,9.2,0,9.4,1.5,9.7ZM117.2,229.2c0-1.9,2-2.9,5.1-2.9s3.5.7,3.5,2.1-2,2.9-5.2,2.9-3.5-.7-3.5-2.1Z"></path>
  <path class="st0" d="M136.5,240.3c0,5.4,3,7.9,7.3,7.9s5.6-.9,6.9-3.9l.6.4c-1.3,3.9-3.5,7.6-10.6,7.6s-10.8-3.1-10.8-9.3,6.1-10,13.8-10,6.4.7,7.4,1.1c-.4,2.1-.6,4.6-.8,7.6h-.9l-1.1-2.5c-1.6-3.5-4.5-5-7.7-5-2.8,0-4.1,1.7-4.1,6.1h0Z"></path>
  <path class="st0" d="M164.4,250.6l1.9.4v.8h-12.9v-.8l1.4-.4c1.6-.4,1.6-.8,1.6-6.9s0-7.2-1.3-7.6l-1.8-.5v-.7c3.5-.6,6.6-1.3,9.1-2.1h.5c0,2.9,0,5.3,0,8,0,9.2,0,9.4,1.5,9.7ZM154.8,229.2c0-1.9,2-2.9,5.1-2.9s3.5.7,3.5,2.1-2,2.9-5.2,2.9-3.5-.7-3.5-2.1h0Z"></path>
  <path class="st0" d="M178.9,252.2c-6.7,0-11.2-3.8-11.2-9.6s4.4-9.7,13.3-9.7,11.1,3.1,11.1,8.4-5.2,10.9-13.2,10.9h0ZM181.7,251c2.6,0,3.7-1.5,3.7-6.6s-3-10.5-6.8-10.5-4,1.2-4,7.1,2.6,10.1,7.1,10.1ZM186.3,225.5c-2.9,1.9-6.7,4.1-10.1,5.9h-.6c1.6-2.3,3.4-5.1,4.5-7.2,1.9.3,4.1.6,6.3,1.1v.3h0Z"></path>
  <path class="st0" d="M203.2,233.1v5.4c0,0,.3,0,.3,0,.8-2.7,4.6-5.7,9.4-5.7s6.1,1.6,6.1,4.7,0,4.8,0,6.9c0,5.7,0,6,1.7,6.3l1.3.2v.8h-13v-.8l2-.2c1.5-.3,1.5-.9,1.5-7.7s-.7-6.4-4.1-6.4-4.8.9-4.8,3.5c0,10.1,0,10.2,1.6,10.5l2.2.3v.8h-13.4v-.8l1-.2c2-.4,2-.8,2-7.1s0-7.2-1.3-7.6l-1.8-.5v-.7c3-.5,6.5-1.3,8.6-2.1l.6.2h0Z"></path>
</svg>