<?xml version="1.0" encoding="UTF-8"?>
<svg id="Capa_2" data-name="Capa 2" xmlns="http://www.w3.org/2000/svg" viewBox="0 0 25.62 171.71">
  <defs>
    
  </defs>
  <g id="Capa_1-2" data-name="Capa 1">
    <g>
      <g>
        <path class="cls-1" d="M13.34,146.13c7.06.29,12.54,6.25,12.24,13.31-.29,7.06-6.25,12.54-13.31,12.25-7.06-.29-12.54-6.25-12.24-13.31.29-7.06,6.25-12.54,13.31-12.25ZM10.02,151.28c-6.35,2.8-9.53,7.48-8.3,11.78,1.24,4.3,7.85,6.3,14.2,3.5,6.35-2.8,9.21-7.61,7.97-11.92-1.24-4.3-7.53-6.17-13.88-3.37Z"></path>
        <path class="cls-1" d="M12.05,129.09c11.93-.03,13.39,7.07,13.53,9.42v2.26h0s0,4.26,0,4.26c-.58-.38-2.84-.8-5.61-.98-.62-.04-1.26-.07-1.92-.08H7.56c-3.6.07-6.82.59-7.53,1.06l-.02-3.42c0-1.68-.08-3.97.4-5.41,1.6-4.73,4.39-7.09,11.64-7.11ZM23.67,136.46c-1.44-1.58-4.65-3.05-11.57-3.05-5.63,0-11.45.5-11.15,5.3.03.49.14,1.16.41,1.66h20.51c2.03,0,3.16-2.41,1.8-3.91h0Z"></path>
        <path class="cls-1" d="M25.58,119.85c-.44-.31-1.97-.71-3.88-.93-1.31-.16-5.4.59-9.59,1.47l5.49,5.93c2.42.42,3.95.21,6.52-.52.44-.13.95-.26,1.45-.38v4.05s-12.69-3.33-12.69-3.33l-10.79-2.74c-.9.42-1.88,1-2.07,1.11v-4.71c1.3-.32,2.6-.64,3.89-.97,7.2-1.79,14.46-3.59,21.66-5.38v6.39h0ZM10.75,120.67c-3.95.86-7.36,1.7-8.33,2.1,0,0,9.85,2.51,14.52,3.46l-6.19-5.56Z"></path>
        <path class="cls-1" d="M25.58,95.67c-.44-.31-1.97-.71-3.88-.93-1.31-.16-5.4.59-9.59,1.47l5.49,5.93c2.42.42,3.95.21,6.52-.52.44-.13.95-.26,1.45-.38v4.05s-12.69-3.33-12.69-3.33l-10.79-2.74c-.9.42-1.88,1-2.07,1.11v-4.71c1.3-.32,2.6-.64,3.89-.97,7.2-1.79,14.46-3.59,21.66-5.38v6.39h0ZM10.75,96.49c-3.95.86-7.36,1.7-8.33,2.1,0,0,9.85,2.51,14.52,3.46l-6.19-5.56Z"></path>
        <path class="cls-1" d="M20,87.65c-.62-.05-1.27-.08-1.92-.09H7.58c-.66.02-1.31.05-1.93.09-2.78.2-5.04.68-5.62,1.11v-6.03c.58.43,2.85.91,5.62,1.11.62.05,1.27.08,1.93.09h17.09c0-2.69-1.43-5.45-3-8.98l3.93-.04-.03,13.84c-.58-.43-2.79-.9-5.57-1.11h0Z"></path>
        <path class="cls-1" d="M0,50.16l24.17,6.4,1.4-.84v4.52s-18.3,4.76-18.3,4.76L.02,66.9v-6.67c.43.33,1.93.72,3.84.95,1.67.2,3.65.02,5.28-.39l14.12-3.63-15.86-2.92c-1.95-.53-3.99-.54-5.93.03-.45.13-.91.26-1.42.39l-.04-4.5h0Z"></path>
        <path class="cls-1" d="M19.98,44.73c2.78-.2,5.04-.68,5.62-1.11v6.03c-.58-.43-2.84-.91-5.62-1.11-.62-.05-1.27-.08-1.92-.09H7.57c-.66.02-1.31.05-1.93.09-2.78.2-5.04.68-5.62,1.11v-6.03c.58.43,2.84.91,5.62,1.11.62.05,1.27.08,1.93.09h10.49c.66-.01,1.3-.05,1.92-.09Z"></path>
        <path class="cls-1" d="M21.65,27.74l3.95-1.11v3.61c-1.29.27-2.46.8-3.6,1.38l-11.97,5.85-6.18,3.03,7.27-.04c5.55-.18,10.8-1.65,14.51-2.44l-.03,4.09c-4.18-.56-5.38-.57-9.64-.67h-3.04s-11.1.01-11.1.01l-1.79.49v-3.93c0-.06,1.15-.32,1.26-.35.62-.18,1.22-.45,1.77-.72.11-.05,12.5-6.13,12.5-6.13l4.29-2.03-5.29-.03c-5.55.18-10.8,1.65-14.51,2.44v-4.1c4.18.56,5.38.57,9.64.67h3.04s8.95,0,8.95,0h0Z"></path>
        <path class="cls-1" d="M13.34.01c7.06.29,12.54,6.25,12.24,13.31-.29,7.06-6.25,12.54-13.31,12.25C5.22,25.28-.26,19.32.04,12.26.33,5.2,6.29-.28,13.34.01ZM10.02,5.16C3.67,7.96.49,12.63,1.72,16.94c1.24,4.3,7.85,6.3,14.2,3.5,6.35-2.8,9.21-7.61,7.97-11.92-1.24-4.3-7.53-6.17-13.88-3.37Z"></path>
      </g>
      <path class="cls-1" d="M6.17,158.7c-.15-.11,0-.16.13-.18.42-.05.92.04,1.35,0,3.28-.29,5.98-1.89,5.95-5.5.06,1.09.21,2.13.82,3.06,1.32,2.02,4.04,2.47,6.28,2.5.11,0,.2-.09.25.12-3.53-.25-7.51,1.4-7.35,5.5-.14-1.82-.72-3.36-2.31-4.37-.74-.47-2.52-1.13-3.37-1.13h-1.76Z"></path>
    </g>
  </g>
</svg>