<?xml version="1.0" encoding="UTF-8"?>
<svg id="Capa_2" data-name="Capa 2" xmlns="http://www.w3.org/2000/svg" viewBox="0 0 418.18 267.64">
  <defs>
    <style>
      .cls-1 {
        fill: #fff5e1;
      }
    </style>
  </defs>
  <g id="Capa_1-2" data-name="Capa 1">
    <path class="cls-1" d="M0,129.14c-.35,36.63,23.4,84.24,63.93,93.41-9.36,11.35.89,25.71,13.54,30.87,14.44,5.9,31.44,2.13,39.37-10.68,6.15,11.18,19.51,16.97,32.02,20.14,9.44,2.39,19.11,3.03,28.83,2.26,9.4-.74,19.14-2.33,27.77.75-.02.02-.06.04-.1.06,1.45.33,2.84.86,3.96,1.69,1.45-1.1,3.13-1.97,4.89-2.24,8.24-2.41,17.4-.94,26.26-.26,9.73.77,19.4.13,28.83-2.26,12.49-3.16,25.87-8.95,32.02-20.13,7.93,12.82,24.91,16.59,39.37,10.68,12.63-5.17,22.9-19.53,13.54-30.87,40.53-9.18,64.28-56.78,63.93-93.41-.37-37.33-27.48-75.04-66.17-85.14.02-.09.08-.18.08-.29.21-10.72-8.32-19.25-18.27-23.17-5.99-2.35-12.43-2.91-18.85-2.41-3.64.28-7.25.92-10.81,1.73-3.56.79-10.09,4.3-13.57,3.92-5.09-.53-8.59-6.29-13.27-8.86-5.61-3.09-11.97-4.85-18.27-6-16.53-2.98-33.3-1.75-48.9-8.53-.25-.26-.62-.42-1.04-.37-.41-.06-.77.11-1.02.37-15.62,6.79-32.39,5.55-48.9,8.53-6.32,1.14-12.67,2.91-18.27,6-4.68,2.57-8.18,8.33-13.27,8.86-3.48.39-10.04-3.13-13.57-3.92-3.56-.81-7.17-1.45-10.83-1.73-6.4-.5-12.86.05-18.83,2.41-9.98,3.92-18.51,12.45-18.27,23.17,0,.11.04.2.06.29C27.48,54.09.37,91.81,0,129.14Z"/>
  </g>
</svg>