<?xml version="1.0" encoding="UTF-8"?>
<svg id="Capa_2" data-name="Capa 2" xmlns="http://www.w3.org/2000/svg" viewBox="0 0 376.6 290.05">
  <defs>
    <style>
      .cls-1 {
        fill: #fff5e1;
      }
    </style>
  </defs>
  <g id="Capa_1-2" data-name="Capa 1">
    <path class="cls-1" d="M.16,145.37c-1.19,22.25,4.23,45.82,23.02,57.81.11.08.22.08.32.12-9.42,6.86-11.27,27.22-6.01,37.31,5.07,9.71,15.53,12.73,24.21,8.75-3.74,7.72,2.31,17.44,10.28,20.6,16.16,6.4,36.2-1.57,49.33-11.93.28-.22.43-.48.54-.76,10.02,11.02,22.7,18.67,36.65,22.17,15.36,3.84,33.52-.64,47.11,8.51-.04.04-.07.1-.13.14,1.01.54,1.96,1.21,2.77,1.97,1.92-1.79,4-3.5,6.31-4.12,13.11-6.4,29.5-2.98,43.56-6.5,13.97-3.5,26.65-11.14,36.67-22.17.11.28.26.54.54.76,13.11,10.36,33.17,18.32,49.31,11.93,7.97-3.16,14.04-12.87,10.28-20.6,8.68,3.98,19.16.96,24.23-8.75,5.25-10.1,3.41-30.45-6.03-37.31.11-.04.22-.04.32-.12,18.81-11.99,24.23-35.56,23.04-57.81-1.06-19.73-6.41-50.79-24.08-61.73,8.66-5.63,11.1-18.22,5.96-27.8-6.22-11.59-20.69-16.21-32.09-11.59,5.64-6.68-.54-16.39-7.93-18.99-14.66-5.15-35.14-.6-49.2,5.81-.07-.12-.13-.24-.24-.36-8.83-9.15-19.93-13.8-31.77-16.47-15.33-3.46-34.77-2.05-47.11-13.92-.6-.58-1.32-.3-1.69.22-.35-.52-1.08-.8-1.69-.22-12.35,11.87-31.79,10.46-47.11,13.92-11.82,2.68-22.92,7.32-31.77,16.47-.11.12-.15.24-.22.36-14.08-6.42-34.56-10.96-49.2-5.81-7.39,2.6-13.58,12.31-7.95,18.99-11.4-4.63-25.85,0-32.07,11.59-5.14,9.57-2.72,22.17,5.96,27.8C6.54,94.58,1.22,125.64.16,145.37Z"/>
  </g>
</svg>