<?xml version="1.0" encoding="UTF-8"?>
<svg id="Capa_2" data-name="Capa 2" xmlns="http://www.w3.org/2000/svg" viewBox="0 0 422.04 328.58">
  <defs>
    <style>
      .cls-1 {
        fill: #fff5e1;
      }
    </style>
  </defs>
  <g id="Capa_1-2" data-name="Capa 1">
    <path class="cls-1" d="M422.04,164.28s-19.13,15.47-23.23,44.61c-1.25,8.91-8.02,16.01-16.79,17.64l-6.31,1.17-3.86,14.24c-8.27,30.37-36.1,50.88-67.23,49.8-79.42-2.71-92.13,23.82-93.6,36.83-1.49-13.03-14.2-39.54-93.62-36.83-31.12,1.07-58.97-19.43-67.22-49.8l-3.87-14.24-6.31-1.17c-8.77-1.63-15.54-8.73-16.79-17.64C19.11,179.75,0,164.28,0,164.28c0,0,19.11-15.45,23.21-44.6,1.25-8.91,8.02-16.01,16.79-17.64l6.31-1.18,3.87-14.22c8.25-30.39,36.1-50.88,67.22-49.82,79.41,2.72,92.13-23.79,93.62-36.82,1.47,13.01,14.18,39.54,93.6,36.82,31.14-1.06,58.97,19.43,67.23,49.82l3.86,14.22,6.31,1.18c8.77,1.63,15.54,8.73,16.79,17.64,4.1,29.15,23.23,44.6,23.23,44.6Z"/>
  </g>
</svg>