<?xml version="1.0" encoding="UTF-8"?>
<svg id="Capa_2" data-name="Capa 2" xmlns="http://www.w3.org/2000/svg" viewBox="0 0 388.82 241.42">
  <defs>
    <style>
      .cls-1 {
        fill: #fff5e1;
      }
    </style>
  </defs>
  <g id="Capa_1-2" data-name="Capa 1">
    <path class="cls-1" d="M388.81,122.94c-.49-30.2-22.37-57.27-51.21-66.28,10.62-4.62,14.97-17.71,12.89-28.54-2.79-14.51-16.68-23.96-30.6-26.9-20.2-4.28-40.12,3.64-58.88,10-19.62,6.64-50.11,15.69-64.45-5.25-.54-.8-1.47-.84-2.14-.46-.67-.37-1.61-.34-2.16.46-14.32,20.94-44.81,11.89-64.43,5.25C109.07,4.86,89.13-3.07,68.95,1.22c-13.92,2.95-27.83,12.39-30.62,26.9-2.08,10.84,2.27,23.92,12.91,28.54C22.38,65.68.52,92.74,0,122.94c-.47,27.97,19.69,59.91,48.26,67.23-10.32,6.69-18,16.44-11.6,29.17,7.25,14.41,26.85,20.89,42,21.98,35.42,2.55,87.52-42.33,114.34-2.54.38.55.98.61,1.41.36.43.25,1.01.2,1.4-.36,26.81-39.79,78.91,5.09,114.34,2.54,15.16-1.09,34.75-7.57,42-21.98,6.42-12.73-1.29-22.47-11.6-29.17,28.57-7.32,48.73-39.25,48.26-67.23Z"/>
  </g>
</svg>