<?xml version="1.0" encoding="UTF-8"?>
<svg id="Capa_2" data-name="Capa 2" xmlns="http://www.w3.org/2000/svg" viewBox="0 0 713.3 1163.01">
  <defs>
    <style>
      .cls-1 {
        fill: #47072c;
      }

      .cls-2 {
        fill: #661041;
      }
    </style>
  </defs>
  <g id="Capa_1-2" data-name="Capa 1">
    <g>
      <g>
        <polygon class="cls-1" points="40.4 321.74 40.4 39.98 79.97 0 79.97 281.76 40.4 321.74"/>
        <polygon class="cls-2" points="78.97 0 120.37 39.51 120.38 321.74 78.97 281.76 78.97 0"/>
        <polygon class="cls-2" points="0 0 41.4 39.51 41.41 321.74 0 281.76 0 0"/>
        <polygon class="cls-2" points="40.4 603.02 40.4 321.27 79.97 281.29 79.97 563.04 40.4 603.02"/>
        <polygon class="cls-1" points="78.97 281.29 120.37 320.8 120.38 603.02 78.97 563.04 78.97 281.29"/>
        <polygon class="cls-1" points="0 281.29 41.4 320.8 41.41 603.02 0 563.04 0 281.29"/>
        <polygon class="cls-1" points="40.4 881.49 40.4 599.73 79.97 559.75 79.97 841.5 40.4 881.49"/>
        <polygon class="cls-2" points="78.97 559.75 120.37 599.26 120.38 881.49 78.97 841.5 78.97 559.75"/>
        <polygon class="cls-2" points="0 559.75 41.4 599.26 41.41 881.49 0 841.5 0 559.75"/>
        <polygon class="cls-2" points="40.4 1162.77 40.4 881.02 79.97 841.03 79.97 1122.79 40.4 1162.77"/>
        <polygon class="cls-1" points="78.97 841.03 120.37 880.55 120.38 1162.77 78.97 1122.79 78.97 841.03"/>
        <polygon class="cls-1" points="0 841.03 41.4 880.55 41.41 1162.77 0 1122.79 0 841.03"/>
        <polygon class="cls-1" points="198.74 321.97 198.74 40.22 238.3 .24 238.3 281.99 198.74 321.97"/>
        <polygon class="cls-1" points="119.61 321.97 119.61 40.22 159.18 .24 159.18 281.99 119.61 321.97"/>
        <polygon class="cls-2" points="158.33 .24 199.74 39.75 199.75 321.97 158.33 281.99 158.33 .24"/>
        <polygon class="cls-2" points="198.74 603.26 198.74 321.5 238.3 281.52 238.3 563.28 198.74 603.26"/>
        <polygon class="cls-2" points="119.61 603.26 119.61 321.5 159.18 281.52 159.18 563.28 119.61 603.26"/>
        <polygon class="cls-1" points="158.33 281.52 199.74 321.03 199.75 603.26 158.33 563.28 158.33 281.52"/>
        <polygon class="cls-1" points="198.74 881.72 198.74 599.97 238.3 559.98 238.3 841.74 198.74 881.72"/>
        <polygon class="cls-1" points="119.61 881.72 119.61 599.97 159.18 559.98 159.18 841.74 119.61 881.72"/>
        <polygon class="cls-2" points="158.33 559.98 199.74 599.5 199.75 881.72 158.33 841.74 158.33 559.98"/>
        <polygon class="cls-2" points="198.74 1163.01 198.74 881.25 238.3 841.27 238.3 1123.03 198.74 1163.01"/>
        <polygon class="cls-2" points="119.61 1163.01 119.61 881.25 159.18 841.27 159.18 1123.03 119.61 1163.01"/>
        <polygon class="cls-1" points="158.33 841.27 199.74 880.78 199.75 1163.01 158.33 1123.03 158.33 841.27"/>
      </g>
      <g>
        <g>
          <polygon class="cls-1" points="277.4 321.74 277.4 39.98 316.97 0 316.97 281.76 277.4 321.74"/>
          <polygon class="cls-2" points="315.97 0 357.37 39.51 357.38 321.74 315.97 281.76 315.97 0"/>
          <polygon class="cls-2" points="237 0 278.4 39.51 278.41 321.74 237 281.76 237 0"/>
          <polygon class="cls-2" points="277.4 603.02 277.4 321.27 316.97 281.29 316.97 563.04 277.4 603.02"/>
          <polygon class="cls-1" points="315.97 281.29 357.37 320.8 357.38 603.02 315.97 563.04 315.97 281.29"/>
          <polygon class="cls-1" points="237 281.29 278.4 320.8 278.41 603.02 237 563.04 237 281.29"/>
          <polygon class="cls-1" points="277.4 881.49 277.4 599.73 316.97 559.75 316.97 841.5 277.4 881.49"/>
          <polygon class="cls-2" points="315.97 559.75 357.37 599.26 357.38 881.49 315.97 841.5 315.97 559.75"/>
          <polygon class="cls-2" points="237 559.75 278.4 599.26 278.41 881.49 237 841.5 237 559.75"/>
          <polygon class="cls-2" points="277.4 1162.77 277.4 881.02 316.97 841.03 316.97 1122.79 277.4 1162.77"/>
          <polygon class="cls-1" points="315.97 841.03 357.37 880.55 357.38 1162.77 315.97 1122.79 315.97 841.03"/>
          <polygon class="cls-1" points="237 841.03 278.4 880.55 278.41 1162.77 237 1122.79 237 841.03"/>
          <polygon class="cls-1" points="435.74 321.97 435.74 40.22 475.3 .24 475.3 281.99 435.74 321.97"/>
          <polygon class="cls-1" points="356.61 321.97 356.61 40.22 396.18 .24 396.18 281.99 356.61 321.97"/>
          <polygon class="cls-2" points="395.33 .24 436.74 39.75 436.75 321.97 395.33 281.99 395.33 .24"/>
          <polygon class="cls-2" points="435.74 603.26 435.74 321.5 475.3 281.52 475.3 563.28 435.74 603.26"/>
          <polygon class="cls-2" points="356.61 603.26 356.61 321.5 396.18 281.52 396.18 563.28 356.61 603.26"/>
          <polygon class="cls-1" points="395.33 281.52 436.74 321.03 436.75 603.26 395.33 563.28 395.33 281.52"/>
          <polygon class="cls-1" points="435.74 881.72 435.74 599.97 475.3 559.98 475.3 841.74 435.74 881.72"/>
          <polygon class="cls-1" points="356.61 881.72 356.61 599.97 396.18 559.98 396.18 841.74 356.61 881.72"/>
          <polygon class="cls-2" points="395.33 559.98 436.74 599.5 436.75 881.72 395.33 841.74 395.33 559.98"/>
          <polygon class="cls-2" points="435.74 1163.01 435.74 881.25 475.3 841.27 475.3 1123.03 435.74 1163.01"/>
          <polygon class="cls-2" points="356.61 1163.01 356.61 881.25 396.18 841.27 396.18 1123.03 356.61 1163.01"/>
          <polygon class="cls-1" points="395.33 841.27 436.74 880.78 436.75 1163.01 395.33 1123.03 395.33 841.27"/>
        </g>
        <g>
          <polygon class="cls-1" points="515.4 321.74 515.4 39.98 554.97 0 554.97 281.76 515.4 321.74"/>
          <polygon class="cls-2" points="553.97 0 595.37 39.51 595.38 321.74 553.97 281.76 553.97 0"/>
          <polygon class="cls-2" points="475 0 516.4 39.51 516.41 321.74 475 281.76 475 0"/>
          <polygon class="cls-2" points="515.4 603.02 515.4 321.27 554.97 281.29 554.97 563.04 515.4 603.02"/>
          <polygon class="cls-1" points="553.97 281.29 595.37 320.8 595.38 603.02 553.97 563.04 553.97 281.29"/>
          <polygon class="cls-1" points="475 281.29 516.4 320.8 516.41 603.02 475 563.04 475 281.29"/>
          <polygon class="cls-1" points="515.4 881.49 515.4 599.73 554.97 559.75 554.97 841.5 515.4 881.49"/>
          <polygon class="cls-2" points="553.97 559.75 595.37 599.26 595.38 881.49 553.97 841.5 553.97 559.75"/>
          <polygon class="cls-2" points="475 559.75 516.4 599.26 516.41 881.49 475 841.5 475 559.75"/>
          <polygon class="cls-2" points="515.4 1162.77 515.4 881.02 554.97 841.03 554.97 1122.79 515.4 1162.77"/>
          <polygon class="cls-1" points="553.97 841.03 595.37 880.55 595.38 1162.77 553.97 1122.79 553.97 841.03"/>
          <polygon class="cls-1" points="475 841.03 516.4 880.55 516.41 1162.77 475 1122.79 475 841.03"/>
          <polygon class="cls-1" points="673.74 321.97 673.74 40.22 713.3 .24 713.3 281.99 673.74 321.97"/>
          <polygon class="cls-1" points="594.61 321.97 594.61 40.22 634.18 .24 634.18 281.99 594.61 321.97"/>
          <polygon class="cls-2" points="633.33 .24 674.74 39.75 674.75 321.97 633.33 281.99 633.33 .24"/>
          <polygon class="cls-2" points="673.74 603.26 673.74 321.5 713.3 281.52 713.3 563.28 673.74 603.26"/>
          <polygon class="cls-2" points="594.61 603.26 594.61 321.5 634.18 281.52 634.18 563.28 594.61 603.26"/>
          <polygon class="cls-1" points="633.33 281.52 674.74 321.03 674.75 603.26 633.33 563.28 633.33 281.52"/>
          <polygon class="cls-1" points="673.74 881.72 673.74 599.97 713.3 559.98 713.3 841.74 673.74 881.72"/>
          <polygon class="cls-1" points="594.61 881.72 594.61 599.97 634.18 559.98 634.18 841.74 594.61 881.72"/>
          <polygon class="cls-2" points="633.33 559.98 674.74 599.5 674.75 881.72 633.33 841.74 633.33 559.98"/>
          <polygon class="cls-2" points="673.74 1163.01 673.74 881.25 713.3 841.27 713.3 1123.03 673.74 1163.01"/>
          <polygon class="cls-2" points="594.61 1163.01 594.61 881.25 634.18 841.27 634.18 1123.03 594.61 1163.01"/>
          <polygon class="cls-1" points="633.33 841.27 674.74 880.78 674.75 1163.01 633.33 1123.03 633.33 841.27"/>
        </g>
      </g>
    </g>
  </g>
</svg>