<svg width="859" height="555" viewBox="0 0 859 555" fill="none" xmlns="http://www.w3.org/2000/svg">
<g clip-path="url(#clip0_3033_2929)">
<path d="M858.68 282.631C857.6 213.191 809.27 150.981 745.58 130.261C769.04 119.631 778.65 89.5506 774.05 64.6406C767.88 31.2806 737.22 9.57063 706.47 2.80063C661.87 -7.04937 617.87 11.1706 576.43 25.7806C533.11 41.0406 465.77 61.8506 434.1 13.7206C432.9 11.8706 430.86 11.7906 429.38 12.6506C427.9 11.7906 425.82 11.8706 424.61 13.7206C392.98 61.8606 325.64 41.0506 282.32 25.7806C240.88 11.1706 196.84 -7.04937 152.28 2.79063C121.53 9.56063 90.8198 31.2706 84.6598 64.6306C80.0598 89.5406 89.6598 119.621 113.17 130.251C49.4198 150.981 1.1398 213.201 0.0197985 282.631C-1.0202 346.941 43.4998 420.351 106.6 437.181C83.8198 452.571 66.8398 474.981 80.9798 504.241C96.9898 537.361 140.27 552.261 173.74 554.761C251.97 560.631 367.04 457.461 426.25 548.931C427.09 550.201 428.41 550.331 429.37 549.751C430.33 550.331 431.61 550.201 432.45 548.931C491.66 457.461 606.73 560.631 684.96 554.761C718.43 552.261 761.71 537.361 777.72 504.241C791.89 474.981 774.88 452.571 752.1 437.181C815.2 420.351 859.72 346.941 858.68 282.631Z" fill="#FFF5E1"/>
<path d="M430 185C518.918 185 591 170.449 591 152.5C591 134.551 518.918 120 430 120C341.082 120 269 134.551 269 152.5C269 170.449 341.082 185 430 185Z" stroke="#62202E" stroke-width="2" stroke-miterlimit="10"/>
<path d="M400.42 308.279C397.83 304.209 393.63 300.809 387.83 298.089C387.85 298.069 387.88 298.049 387.9 298.039C386.82 297.769 385.9 297.329 385.11 296.749C385.09 296.769 385.07 296.779 385.05 296.799C381.59 295.439 377.67 294.419 373.29 293.739C368.91 293.059 363.94 292.719 358.38 292.719C345.91 292.719 334.7 294.479 324.77 297.999C314.83 301.519 306.4 306.089 299.49 311.699C292.57 317.319 287.29 323.249 283.65 329.479C280.01 335.719 278.19 341.609 278.19 347.169C278.19 352.729 279.95 356.959 283.47 360.599C286.99 364.239 292.45 366.369 299.86 366.989C300.97 367.119 301.53 366.929 301.53 366.439C301.53 366.069 301.16 365.879 300.42 365.879C294.74 365.389 290.63 363.749 288.1 360.969C285.57 358.189 284.3 354.769 284.3 350.689C284.3 346.609 285.5 341.889 287.91 336.889C290.32 331.889 293.77 326.949 298.28 322.069C302.79 317.189 308.12 312.719 314.3 308.639C320.47 304.569 327.33 301.299 334.86 298.819C342.39 296.349 350.48 295.119 359.12 295.119C364.06 295.119 368.41 295.489 372.18 296.229C375.95 296.969 379.25 297.959 382.09 299.189C377.52 303.139 373.11 307.489 368.85 312.249C364.59 316.999 360.54 321.729 356.72 326.419C348.57 336.919 340.08 347.229 331.25 357.349C322.42 367.479 313.75 377.289 305.23 386.799C301.77 390.629 298.34 394.239 294.95 397.629C291.55 401.029 288.07 404.139 284.49 406.979C274.74 414.879 265.01 421.149 255.32 425.779C245.63 430.409 236.21 432.729 227.08 432.729C218.56 432.729 211.68 430.629 206.43 426.429C201.18 422.229 197.82 417.289 196.34 411.609C195.85 409.759 195.6 407.539 195.6 404.939C195.6 400.249 196.43 395.529 198.1 390.769C199.77 386.019 201.96 382.779 204.68 381.049C204.19 380.559 203.69 380.309 203.2 380.309C201.96 380.309 200.3 381.179 198.2 382.899C196.1 384.629 194.1 387.039 192.18 390.119C190.27 393.209 188.88 396.729 188.01 400.679C187.64 402.899 187.45 404.999 187.45 406.979C187.45 412.779 188.93 417.659 191.9 421.609C194.86 425.559 198.75 428.649 203.57 430.869C208.38 433.089 213.51 434.569 218.94 435.309C220.17 435.429 221.38 435.519 222.55 435.589C223.72 435.649 224.93 435.679 226.16 435.679C235.67 435.679 245.64 433.799 256.07 430.029C266.5 426.259 276.41 421.109 285.8 414.569C290 411.609 293.92 408.579 297.56 405.489C301.2 402.409 304.69 399.259 308.02 396.039C318.51 385.789 327.68 374.929 335.52 363.439C343.36 351.959 351.17 340.969 358.95 330.469C362.78 325.279 366.88 320.069 371.27 314.819C375.65 309.569 380.19 304.849 384.88 300.649C388.83 302.869 391.7 305.559 393.49 308.709C395.28 311.859 396.18 315.159 396.18 318.619C396.18 322.079 395.35 325.409 393.68 328.989C392.01 332.569 389.79 335.929 387.01 339.079C384.23 342.229 381.05 344.889 377.47 347.039C373.89 349.199 370.25 350.469 366.54 350.839C365.8 348.129 364.07 346.769 361.35 346.769C360.11 346.769 359.5 347.269 359.5 348.249C359.5 348.989 359.9 349.759 360.7 350.569C361.5 351.369 362.71 351.899 364.31 352.139C364.56 352.629 364.68 353.129 364.68 353.619C364.68 355.469 364 358.129 362.64 361.579C361.28 365.039 359.71 368.869 357.92 373.059C356.13 377.259 354.52 381.389 353.1 385.469C351.68 389.539 350.91 393.189 350.79 396.399C350.66 400.849 351.22 404.209 352.46 406.489C353.69 408.769 355.33 410.289 357.37 411.029C359.41 411.769 361.47 412.139 363.58 412.139C366.54 412.139 369.6 411.429 372.75 410.009C375.9 408.589 378.28 406.699 379.88 404.359C380.25 403.739 380.31 403.369 380.06 403.249C379.81 403.129 379.63 403.059 379.51 403.059C378.15 404.169 376.61 405.189 374.88 406.119C373.15 407.049 371.11 407.509 368.77 407.509C366.05 407.509 364.17 406.209 363.12 403.619C362.07 401.029 361.54 397.879 361.54 394.169C361.54 390.959 361.79 387.629 362.28 384.169C362.77 380.719 363.33 377.599 363.95 374.819C364.57 372.039 365 370.039 365.25 368.799C366.36 363.239 366.92 358.679 366.92 355.099V353.429C366.92 352.939 366.86 352.439 366.73 351.949C373.52 351.949 379.76 350.439 385.44 347.409C391.12 344.389 395.69 340.459 399.15 335.649C402.61 330.829 404.34 325.899 404.34 320.829C404.34 316.509 403.04 312.309 400.45 308.239L400.42 308.279Z" fill="#661041"/>
<path d="M394.68 406.262C389 406.262 384.98 405.022 382.64 402.562C380.3 400.092 379.12 396.762 379.12 392.562C379.12 388.362 380.26 384.202 382.55 379.692C384.83 375.182 387.7 370.892 391.16 366.822C393.26 364.352 395.85 361.762 398.94 359.042C402.03 356.332 405.36 353.762 408.94 351.352C412.52 348.942 416.07 346.972 419.59 345.422C423.11 343.882 426.23 343.102 428.94 343.102C430.42 343.102 431.78 343.442 433.01 344.122C434.24 344.802 434.86 346.252 434.86 348.472C434.86 351.562 433.38 354.492 430.41 357.272C427.44 360.052 424.11 362.612 420.41 364.962C416.21 367.682 411.83 369.962 407.26 371.812C402.69 373.662 398.74 375.082 395.41 376.072C393.56 379.032 392.08 382.062 390.96 385.152C389.85 388.242 389.29 391.262 389.29 394.222C389.29 397.432 390.06 399.622 391.61 400.792C393.15 401.972 394.97 402.552 397.07 402.552C400.9 402.552 404.39 401.662 407.53 399.862C410.68 398.072 413.61 395.762 416.33 392.912C419.04 390.072 421.64 387.232 424.11 384.392C424.6 384.392 424.85 384.762 424.85 385.502C424.85 386.612 424.6 387.482 424.11 388.092C421.64 390.932 418.95 393.772 416.05 396.612C413.15 399.452 409.97 401.772 406.51 403.562C403.05 405.352 399.1 406.252 394.66 406.252L394.68 406.262ZM397.64 373.472C400.85 372.362 404.65 370.822 409.03 368.842C413.41 366.872 417.27 364.702 420.61 362.362C421.35 361.872 422.65 360.852 424.5 359.302C426.35 357.762 428.08 356.032 429.68 354.112C431.28 352.202 432.09 350.502 432.09 349.022C432.09 347.052 431.1 346.062 429.13 346.062C427.03 346.062 424.65 346.992 422 348.842C419.34 350.692 417.21 352.302 415.61 353.662C412.65 356.382 409.56 359.402 406.35 362.742C403.14 366.072 400.24 369.662 397.65 373.482L397.64 373.472Z" fill="#661041"/>
<path d="M428.19 404.959C425.23 404.959 423.13 404.279 421.89 402.919C420.66 401.559 420.04 399.839 420.04 397.729C420.04 395.619 420.5 393.319 421.43 390.779C422.36 388.249 423.5 385.749 424.86 383.279C427.2 379.329 429.89 375.349 432.92 371.329C435.94 367.319 439.03 363.579 442.18 360.129C445.33 356.669 448.14 353.709 450.61 351.239C452.95 348.899 455.36 347.169 457.83 346.049C460.3 344.939 463.32 343.949 466.91 343.089C464.19 346.179 460.52 350.559 455.89 356.239C451.26 361.919 446.6 367.969 441.91 374.389C441.41 375.009 440.52 376.309 439.22 378.279C437.92 380.259 436.53 382.449 435.05 384.859C433.57 387.269 432.3 389.609 431.25 391.899C430.2 394.189 429.68 396.009 429.68 397.359C429.68 398.709 430.42 399.339 431.9 399.209C433.5 399.089 435.6 397.909 438.2 395.689C440.79 393.469 443.57 390.749 446.53 387.539C449.49 384.329 452.3 381.149 454.96 377.999C457.61 374.849 459.8 372.229 461.53 370.129C462.89 368.529 464.55 366.519 466.53 364.109C468.5 361.699 470.54 359.199 472.64 356.609C474.74 354.019 476.65 351.729 478.38 349.759C480.35 347.539 482.45 345.959 484.68 345.039C486.9 344.109 489.68 343.469 493.02 343.099C492.03 344.339 490.08 346.739 487.19 350.319C484.29 353.899 481.05 358.129 477.47 363.009C473.89 367.889 470.49 372.949 467.28 378.199C464.07 383.449 461.6 388.419 459.87 393.109C459 395.209 458.57 396.939 458.57 398.299C458.57 399.539 458.88 400.369 459.5 400.799C460.12 401.229 460.8 401.449 461.54 401.449C463.27 401.449 465.21 400.709 467.37 399.229C469.53 397.749 471.63 395.989 473.67 393.949C475.71 391.909 477.53 389.969 479.13 388.119C480.73 386.269 481.78 385.039 482.28 384.419C482.77 384.419 483.02 384.789 483.02 385.529C483.02 386.639 482.77 387.509 482.28 388.119C480.43 390.339 478.17 392.749 475.52 395.339C472.86 397.929 470.09 400.189 467.18 402.099C464.28 404.019 461.41 404.969 458.57 404.969C455.48 404.969 453.32 404.229 452.09 402.749C450.85 401.269 450.24 399.419 450.24 397.189C450.24 395.089 450.67 392.779 451.54 390.239C452.4 387.709 453.45 385.329 454.69 383.109C453.21 384.589 451.45 386.539 449.41 388.939C447.37 391.349 445.12 393.789 442.65 396.259C440.18 398.729 437.71 400.799 435.24 402.459C432.77 404.129 430.42 404.959 428.2 404.959H428.19ZM467.64 334.399C467.14 334.399 466.9 334.279 466.9 334.029C466.9 333.909 467.67 333.259 469.21 332.089C470.75 330.919 472.67 329.529 474.95 327.919C477.23 326.319 479.58 324.709 481.99 323.099C484.4 321.499 486.5 320.139 488.29 319.029C490.08 317.919 491.22 317.359 491.72 317.359C492.34 317.359 493.05 317.699 493.85 318.379C494.65 319.059 495.05 319.769 495.05 320.509C495.05 321.249 493.85 322.359 491.44 323.839C489.03 325.319 486.19 326.869 482.92 328.469C479.65 330.079 476.56 331.469 473.66 332.639C470.76 333.819 468.75 334.399 467.64 334.399Z" fill="#661041"/>
<path d="M511.53 405.144C508.94 405.144 507.08 404.434 505.97 403.014C504.86 401.594 504.3 399.774 504.3 397.554C504.3 394.224 505.47 390.424 507.82 386.164C510.16 381.904 513.22 377.434 516.99 372.734C520.76 368.044 524.7 363.414 528.84 358.844C532.98 354.274 536.9 350.074 540.6 346.254C538.75 346.254 536.74 346.744 534.58 347.734C532.42 348.724 530.23 349.894 528.01 351.254C524.68 353.474 521.03 356.444 517.08 360.144C513.13 363.844 509.18 367.804 505.23 371.994C501.28 376.194 497.51 380.324 493.93 384.404C491.09 387.734 488.84 390.514 487.17 392.734C485.5 394.954 484.08 396.964 482.91 398.754C481.74 400.544 480.47 402.554 479.11 404.774C477.14 404.774 476.15 403.604 476.15 401.254C476.15 398.784 476.92 395.824 478.46 392.364C480 388.904 481.33 386.194 482.44 384.214C485.65 378.784 489.32 373.074 493.46 367.084C497.6 361.094 501.45 355.814 505.04 351.254C506.89 348.784 508.87 346.964 510.97 345.794C513.07 344.624 515.6 343.724 518.56 343.104C517.82 344.214 516.27 346.564 513.93 350.144C511.58 353.724 508.87 357.924 505.78 362.734C502.69 367.554 499.54 372.424 496.34 377.364C501.4 371.564 506.83 365.914 512.64 360.414C518.44 354.924 524 350.444 529.31 346.984C530.91 345.874 532.58 344.944 534.31 344.204C536.04 343.464 537.83 343.094 539.68 343.094C543.01 343.094 544.68 344.394 544.68 346.984C544.68 348.964 543.51 351.304 541.16 354.024C538.32 357.354 535.23 361.064 531.9 365.134C528.57 369.204 525.39 373.344 522.36 377.544C519.33 381.744 516.86 385.634 514.95 389.214C513.03 392.794 512.08 395.694 512.08 397.914C512.08 399.154 512.42 400.044 513.1 400.604C513.78 401.164 514.36 401.434 514.86 401.434C516.71 401.434 518.78 400.694 521.07 399.214C523.35 397.734 525.58 395.974 527.74 393.934C529.9 391.894 531.81 389.954 533.48 388.104C535.15 386.254 536.23 385.024 536.72 384.404C537.21 384.404 537.46 384.774 537.46 385.514C537.46 386.624 537.21 387.494 536.72 388.104C534.99 389.954 532.71 392.244 529.87 394.954C527.03 397.674 524.01 400.044 520.8 402.084C517.59 404.124 514.5 405.144 511.54 405.144H511.53Z" fill="#661041"/>
<path d="M563.39 437.004C555.86 437.004 549.78 435.674 545.15 433.024C540.52 430.364 537.19 426.844 535.15 422.464C533.11 418.084 532.09 413.234 532.09 407.924C532.09 396.814 535.42 385.824 542.09 374.954C544.56 370.884 547.65 366.964 551.35 363.194C555.05 359.424 559 356.034 563.2 353.004C567.4 349.984 571.53 347.574 575.61 345.784C579.68 343.994 583.2 343.094 586.17 343.094C588.02 343.094 589.41 343.554 590.34 344.484C591.27 345.414 591.73 346.554 591.73 347.914C591.73 351.004 590.56 353.844 588.21 356.434C585.86 359.024 583.08 361.314 579.88 363.284C576.67 365.264 573.77 366.984 571.17 368.474C567.96 370.204 564.78 371.684 561.63 372.924C558.48 374.164 555.3 375.214 552.09 376.074C549.25 381.014 546.78 386.264 544.68 391.814C542.58 397.374 541.53 403.114 541.53 409.034C541.53 413.724 542.24 418.044 543.66 421.994C545.08 425.944 547.52 429.064 550.97 431.344C554.43 433.624 559.24 434.774 565.42 434.774C570.48 434.774 575.76 433.414 581.25 430.704C586.74 427.984 592.05 424.034 597.18 418.854C602.3 413.664 606.78 407.374 610.61 399.964C611.47 398.234 612.46 396.044 613.57 393.394C614.68 390.744 615.64 387.874 616.44 384.784C617.24 381.694 617.64 378.854 617.64 376.264C617.64 373.674 617.02 371.204 615.79 369.224C614.55 367.254 612.15 366.264 608.57 366.264C604.5 366.264 600.7 367.504 597.18 369.964C593.66 372.434 590.51 375.464 587.74 379.034C584.96 382.614 582.61 386.224 580.7 389.864C578.78 393.504 577.33 396.564 576.35 399.034C575.36 401.504 574.93 402.734 575.05 402.734C574.92 402.734 574.77 402.334 574.59 401.534C574.41 400.734 574.31 399.904 574.31 399.034C574.31 398.544 574.37 398.174 574.49 397.924C574.74 396.934 575.35 395.144 576.34 392.554C577.33 389.964 578.75 387.064 580.6 383.854C582.45 380.644 584.73 377.524 587.45 374.504C590.16 371.484 593.31 368.984 596.89 367.004C600.47 365.034 604.48 364.044 608.93 364.044C613.99 364.044 617.51 365.594 619.49 368.674C621.46 371.764 622.45 375.344 622.45 379.414C622.45 383.114 621.86 386.944 620.69 390.894C619.51 394.844 618.25 398.054 616.89 400.524C610.22 412.874 602.13 422.034 592.63 428.024C583.12 434.014 573.37 437.004 563.37 437.004H563.39ZM553.76 373.474C557.71 371.994 561.88 370.204 566.26 368.104C570.64 366.004 574.62 363.784 578.21 361.434C580.68 359.704 582.96 357.634 585.06 355.234C587.16 352.824 588.21 350.574 588.21 348.474C588.21 347.854 588.02 347.304 587.65 346.804C587.28 346.314 586.6 346.064 585.61 346.064C582.65 346.064 579.62 347.024 576.54 348.934C573.45 350.854 570.46 353.284 567.56 356.254C564.66 359.214 562 362.244 559.6 365.324C557.19 368.414 555.25 371.134 553.77 373.474H553.76Z" fill="#661041"/>
<path d="M178.08 291.583H180.28C189.42 291.063 195.45 284.633 201.39 280.163L201.2 293.053L201.17 294.443H163.05C164.7 292.233 166.56 282.123 166.79 270.883V238.203C166.74 236.163 166.65 234.153 166.5 232.233C165.87 223.613 164.39 216.573 163.05 214.773H201.17L201.39 229.053C195.45 224.593 189.42 218.163 180.28 217.633H178.1V244.153C178.1 244.153 188.85 236.223 196.06 231.373V245.203C185.62 242.653 178.12 247.073 178.12 247.073L178.08 291.573V291.583Z" fill="#661041"/>
<path d="M207.66 277.01C207.8 275.08 207.9 273.07 207.95 271.02V238.33C207.9 236.28 207.81 234.26 207.66 232.33C207.03 223.68 205.55 216.62 204.21 214.82H223C221.66 216.63 220.18 223.68 219.55 232.33C219.41 234.26 219.31 236.28 219.26 238.33L219.22 291.55C227.63 291.55 236.24 287.11 247.22 282.19L247.33 294.44L204.22 294.36C205.56 292.55 207.03 285.66 207.66 277.01Z" fill="#661041"/>
<path d="M323.3 214.757L303.36 290.017L305.96 294.387H291.89L277.07 237.407L271.18 214.787L291.96 214.757C290.92 216.137 289.73 220.787 288.99 226.727C288.36 231.917 288.92 238.087 290.2 243.157L301.5 287.117L310.58 237.727C312.23 231.647 312.27 225.297 310.48 219.257C310.07 217.867 309.66 216.417 309.27 214.847L323.28 214.727L323.3 214.757Z" fill="#661041"/>
<path d="M339.65 276.945C340.28 285.585 341.76 292.635 343.1 294.445H324.31C325.65 292.635 327.13 285.595 327.76 276.945C327.9 275.025 328 273.005 328.05 270.965V238.305C328 236.255 327.91 234.235 327.76 232.305C327.13 223.665 325.65 216.615 324.31 214.805H343.1C341.76 216.615 340.28 223.655 339.65 232.305C339.51 234.235 339.41 236.255 339.36 238.305V270.965C339.41 273.005 339.51 275.025 339.65 276.945Z" fill="#661041"/>
<path d="M392.01 282.16L395.48 294.45H384.23C383.38 290.42 381.73 286.79 379.93 283.24L361.7 245.95L352.28 226.7L352.41 249.33C352.97 266.6 357.54 282.97 360.02 294.53L347.27 294.45C349 281.42 349.03 277.68 349.36 264.43V254.97L349.33 220.39L347.82 214.82H360.07C360.27 214.82 361.08 218.41 361.18 218.74C361.75 220.66 362.58 222.55 363.43 224.25C363.6 224.59 382.52 263.16 382.52 263.16L388.83 276.51L388.91 260.03C388.35 242.76 383.77 226.39 381.3 214.83H394.08C392.35 227.85 392.32 231.59 391.99 244.84V254.3L392.02 282.16H392.01Z" fill="#661041"/>
<path d="M477.81 256.279C476.9 278.249 458.34 295.319 436.36 294.409C414.38 293.499 397.3 274.939 398.21 252.969C399.12 230.999 417.68 213.929 439.66 214.839C461.64 215.749 478.72 234.309 477.81 256.279ZM461.79 245.939C453.07 226.169 438.51 216.249 425.1 220.109C411.7 223.969 405.47 244.559 414.19 264.319C422.91 284.089 437.9 293.009 451.31 289.149C464.71 285.289 470.52 265.709 461.79 245.939Z" fill="#661041"/>
<path d="M551.61 282.16L555.08 294.45H543.83C542.98 290.42 541.33 286.79 539.53 283.24L521.3 245.95L511.88 226.7L512.01 249.33C512.57 266.6 517.14 282.97 519.62 294.53L506.87 294.45C508.6 281.42 508.63 277.68 508.96 264.43V254.97L508.93 220.39L507.42 214.82H519.67C519.87 214.82 520.68 218.41 520.78 218.74C521.35 220.66 522.18 222.55 523.03 224.25C523.2 224.59 542.12 263.16 542.12 263.16L548.43 276.51L548.51 260.03C547.95 242.76 543.37 226.39 540.9 214.83H553.68C551.95 227.85 551.92 231.59 551.59 244.84V254.3L551.62 282.16H551.61Z" fill="#661041"/>
<path d="M637.41 256.279C636.5 278.249 617.94 295.319 595.96 294.409C573.98 293.499 556.9 274.939 557.81 252.969C558.72 230.999 577.28 213.929 599.26 214.839C621.24 215.749 638.32 234.309 637.41 256.279ZM621.38 245.939C612.66 226.169 598.1 216.249 584.69 220.109C571.29 223.969 565.06 244.559 573.78 264.319C582.5 284.089 597.49 293.009 610.9 289.149C624.3 285.289 630.11 265.709 621.38 245.939Z" fill="#661041"/>
<path d="M684.12 271.007C685.62 276.857 684.98 282.647 681.55 287.637C672.62 300.657 649.26 293.407 641.75 287.367L641.89 269.957C656.81 292.107 671.78 296.107 674.69 286.857C675.58 284.037 675.6 278.357 671.27 272.007C664.53 262.137 651.13 258.467 644.35 247.787C640.29 241.397 638.99 233.817 642.21 225.517C645.42 217.257 652.28 215.557 652.88 215.407C657.47 214.707 668.39 213.337 676.9 219.057C678.2 219.937 679.36 220.887 680.38 221.857L680.24 239.267C677.56 233.267 666.37 217.797 655.23 217.797C645.2 217.797 647.24 231.637 654.77 240.087C664.53 251.047 680.21 255.757 684.12 270.997V271.007Z" fill="#661041"/>
<path d="M316.141 154.4H318.384V156.12C318.384 156.282 318.33 156.417 318.222 156.534C318.114 156.652 317.961 156.706 317.754 156.706H316.141V160.948H313.485V156.706H305.973C305.766 156.706 305.586 156.643 305.433 156.516C305.279 156.39 305.18 156.237 305.135 156.057L304.829 154.553L313.259 143.547H316.141V154.4ZM313.475 148.717C313.475 148.465 313.475 148.185 313.503 147.888C313.521 147.591 313.548 147.285 313.593 146.96L308.062 154.409H313.475V148.717Z" fill="#62202E"/>
<path d="M333.29 154.199V160.963H329.976V154.199L323.491 143.562H326.409C326.698 143.562 326.923 143.635 327.094 143.77C327.265 143.905 327.4 144.076 327.517 144.283L330.778 150.092C330.967 150.435 331.129 150.768 331.273 151.074C331.408 151.38 331.543 151.687 331.651 151.984C331.759 151.678 331.876 151.371 332.012 151.065C332.147 150.759 332.309 150.435 332.498 150.092L335.731 144.283C335.821 144.103 335.956 143.941 336.137 143.788C336.317 143.635 336.551 143.562 336.83 143.562H339.757L333.281 154.199H333.29Z" fill="#62202E"/>
<path d="M356.617 144.823C356.617 145.247 356.482 145.589 356.203 145.859C355.923 146.129 355.473 146.255 354.834 146.255H349.934L349.294 149.885C350.096 149.723 350.835 149.642 351.501 149.642C352.438 149.642 353.257 149.777 353.969 150.047C354.68 150.318 355.275 150.696 355.761 151.182C356.248 151.659 356.608 152.227 356.86 152.875C357.112 153.524 357.229 154.217 357.229 154.965C357.229 155.884 357.067 156.73 356.734 157.487C356.401 158.252 355.941 158.901 355.347 159.441C354.752 159.982 354.059 160.405 353.248 160.702C352.438 160.999 351.555 161.144 350.609 161.144C350.051 161.144 349.52 161.089 349.024 160.972C348.52 160.864 348.052 160.711 347.61 160.522C347.169 160.333 346.764 160.117 346.394 159.874C346.025 159.63 345.683 159.369 345.395 159.099L346.331 157.838C346.529 157.568 346.791 157.433 347.124 157.433C347.331 157.433 347.538 157.496 347.745 157.622C347.952 157.748 348.196 157.892 348.475 158.045C348.754 158.198 349.078 158.342 349.448 158.469C349.817 158.595 350.267 158.658 350.79 158.658C351.348 158.658 351.843 158.568 352.267 158.396C352.69 158.216 353.05 157.973 353.329 157.658C353.609 157.343 353.825 156.964 353.969 156.523C354.113 156.082 354.185 155.613 354.185 155.1C354.185 154.154 353.906 153.416 353.338 152.884C352.78 152.353 351.951 152.083 350.862 152.083C349.997 152.083 349.132 152.236 348.268 152.542L346.367 152.011L347.844 143.562H356.635V144.823H356.617Z" fill="#62202E"/>
<path d="M381.079 152.262C381.079 153.541 380.863 154.712 380.431 155.774C379.999 156.837 379.386 157.756 378.594 158.53C377.81 159.296 376.855 159.899 375.747 160.323C374.64 160.746 373.415 160.962 372.064 160.962H365.264V143.57H372.064C373.406 143.57 374.64 143.786 375.747 144.21C376.855 144.642 377.801 145.237 378.594 146.002C379.386 146.768 379.99 147.686 380.431 148.749C380.863 149.812 381.079 150.983 381.079 152.262ZM377.693 152.262C377.693 151.307 377.558 150.451 377.297 149.695C377.035 148.938 376.657 148.299 376.18 147.767C375.693 147.245 375.108 146.84 374.414 146.561C373.721 146.281 372.937 146.137 372.073 146.137H368.614V158.386H372.073C372.946 158.386 373.721 158.242 374.414 157.963C375.108 157.684 375.693 157.278 376.18 156.756C376.666 156.234 377.035 155.585 377.297 154.829C377.558 154.072 377.693 153.216 377.693 152.262Z" fill="#62202E"/>
<path d="M394.905 143.562V146.138H387.015V150.966H393.23V153.452H387.015V158.369H394.905V160.954H383.674V143.562H394.905Z" fill="#62202E"/>
<path d="M412.073 146.727C411.982 146.907 411.874 147.024 411.757 147.096C411.64 147.168 411.496 147.204 411.334 147.204C411.172 147.204 410.983 147.141 410.776 147.015C410.568 146.889 410.325 146.754 410.046 146.601C409.767 146.447 409.443 146.312 409.064 146.186C408.695 146.06 408.254 145.997 407.74 145.997C407.281 145.997 406.885 146.051 406.542 146.159C406.2 146.267 405.912 146.42 405.678 146.61C405.444 146.799 405.273 147.033 405.155 147.303C405.038 147.573 404.984 147.871 404.984 148.186C404.984 148.591 405.101 148.933 405.336 149.213C405.57 149.483 405.876 149.717 406.263 149.906C406.651 150.095 407.092 150.275 407.578 150.419C408.074 150.573 408.569 150.735 409.082 150.906C409.596 151.077 410.1 151.275 410.586 151.509C411.082 151.734 411.514 152.023 411.901 152.374C412.289 152.725 412.595 153.148 412.829 153.653C413.063 154.157 413.18 154.77 413.18 155.49C413.18 156.274 413.045 157.012 412.766 157.697C412.487 158.381 412.091 158.976 411.559 159.489C411.028 160.003 410.379 160.399 409.623 160.696C408.857 160.984 407.984 161.137 407.002 161.137C406.434 161.137 405.876 161.083 405.327 160.975C404.777 160.867 404.246 160.714 403.741 160.516C403.237 160.318 402.769 160.075 402.327 159.795C401.886 159.516 401.499 159.201 401.147 158.859L402.111 157.31C402.201 157.201 402.309 157.102 402.435 157.03C402.562 156.958 402.706 156.913 402.859 156.913C403.066 156.913 403.282 156.994 403.525 157.156C403.768 157.319 404.048 157.508 404.372 157.706C404.696 157.904 405.074 158.093 405.516 158.255C405.957 158.417 406.479 158.498 407.101 158.498C408.047 158.498 408.776 158.282 409.29 157.841C409.803 157.409 410.064 156.778 410.064 155.959C410.064 155.499 409.947 155.13 409.713 154.842C409.479 154.553 409.172 154.31 408.785 154.112C408.398 153.914 407.957 153.752 407.47 153.617C406.975 153.482 406.479 153.329 405.966 153.175C405.453 153.013 404.957 152.824 404.462 152.599C403.967 152.374 403.534 152.086 403.147 151.716C402.76 151.356 402.453 150.906 402.219 150.365C401.985 149.825 401.868 149.158 401.868 148.366C401.868 147.735 401.994 147.114 402.255 146.511C402.516 145.907 402.895 145.376 403.39 144.907C403.886 144.439 404.498 144.07 405.218 143.791C405.939 143.511 406.768 143.367 407.695 143.367C408.749 143.367 409.713 143.529 410.604 143.845C411.487 144.169 412.244 144.61 412.874 145.196L412.064 146.727H412.073Z" fill="#62202E"/>
<path d="M426.96 143.562V146.138H419.07V150.966H425.285V153.452H419.07V158.369H426.96V160.954H415.729V143.562H426.96Z" fill="#62202E"/>
<path d="M433.256 154.838V160.962H429.941V143.57H435.742C436.931 143.57 437.957 143.705 438.831 143.976C439.705 144.246 440.416 144.633 440.984 145.119C441.551 145.606 441.965 146.191 442.236 146.876C442.506 147.56 442.641 148.299 442.641 149.109C442.641 149.92 442.497 150.722 442.209 151.424C441.92 152.127 441.488 152.73 440.912 153.234C440.335 153.739 439.615 154.135 438.759 154.414C437.894 154.694 436.886 154.838 435.733 154.838H433.247H433.256ZM433.256 152.307H435.742C436.345 152.307 436.877 152.235 437.327 152.082C437.777 151.938 438.155 151.721 438.444 151.442C438.741 151.163 438.957 150.83 439.11 150.433C439.254 150.037 439.335 149.596 439.335 149.1C439.335 148.605 439.263 148.218 439.11 147.839C438.957 147.461 438.741 147.146 438.444 146.876C438.146 146.615 437.777 146.407 437.327 146.272C436.877 146.128 436.345 146.065 435.742 146.065H433.256V152.307Z" fill="#62202E"/>
<path d="M457.772 143.562V146.219H452.413V160.954H449.099V146.219H443.722V143.562H457.772Z" fill="#62202E"/>
<path d="M463.599 160.954H460.275V143.562H463.599V160.954Z" fill="#62202E"/>
<path d="M478.829 143.562V146.138H470.939V150.966H477.154V153.452H470.939V158.369H478.829V160.954H467.598V143.562H478.829Z" fill="#62202E"/>
<path d="M491.024 154.54C491.141 154.82 491.258 155.099 491.376 155.378C491.493 155.09 491.61 154.802 491.736 154.522C491.862 154.243 491.988 153.973 492.132 153.721L497.401 144.084C497.464 143.967 497.536 143.868 497.608 143.795C497.68 143.723 497.752 143.669 497.842 143.642C497.932 143.615 498.022 143.588 498.131 143.579C498.239 143.579 498.365 143.57 498.509 143.57H501.004V160.962H498.085V149.731C498.085 149.524 498.086 149.29 498.104 149.046C498.122 148.803 498.131 148.542 498.158 148.29L492.781 158.152C492.654 158.377 492.501 158.548 492.303 158.675C492.105 158.801 491.88 158.864 491.61 158.864H491.15C490.889 158.864 490.655 158.801 490.457 158.675C490.259 158.548 490.097 158.377 489.979 158.152L484.521 148.254C484.557 148.515 484.575 148.776 484.594 149.028C484.612 149.281 484.612 149.515 484.612 149.731V160.962H481.693V143.57H484.188C484.332 143.57 484.467 143.57 484.566 143.579C484.675 143.579 484.774 143.606 484.855 143.642C484.945 143.678 485.017 143.723 485.098 143.795C485.17 143.868 485.242 143.967 485.305 144.084L490.628 153.739C490.772 154 490.898 154.261 491.015 154.54H491.024Z" fill="#62202E"/>
<path d="M504.597 160.954V143.562H510.739C511.901 143.562 512.901 143.671 513.721 143.887C514.54 144.103 515.225 144.409 515.756 144.814C516.288 145.22 516.675 145.697 516.918 146.274C517.161 146.841 517.287 147.48 517.287 148.201C517.287 148.606 517.224 149.003 517.098 149.372C516.972 149.741 516.783 150.092 516.522 150.417C516.261 150.741 515.936 151.038 515.54 151.299C515.144 151.56 514.666 151.786 514.117 151.975C516.567 152.515 517.783 153.803 517.783 155.848C517.783 156.586 517.639 157.271 517.35 157.892C517.062 158.514 516.648 159.054 516.098 159.513C515.549 159.964 514.873 160.324 514.063 160.576C513.261 160.837 512.343 160.963 511.307 160.963H504.588L504.597 160.954ZM507.911 151.092H510.559C511.685 151.092 512.541 150.894 513.117 150.489C513.703 150.092 513.991 149.453 513.991 148.579C513.991 147.706 513.73 147.03 513.207 146.643C512.685 146.255 511.865 146.066 510.748 146.066H507.92V151.092H507.911ZM507.911 153.335V158.433H511.271C511.883 158.433 512.406 158.36 512.82 158.216C513.234 158.072 513.568 157.883 513.82 157.64C514.072 157.397 514.252 157.118 514.36 156.802C514.468 156.487 514.522 156.145 514.522 155.776C514.522 155.406 514.459 155.064 514.333 154.758C514.207 154.461 514.018 154.199 513.757 153.983C513.495 153.767 513.153 153.605 512.748 153.497C512.334 153.389 511.838 153.326 511.262 153.326H507.911V153.335Z" fill="#62202E"/>
<path d="M524.062 154.162V160.962H520.747V143.57H526.178C527.394 143.57 528.43 143.696 529.303 143.94C530.168 144.183 530.88 144.525 531.429 144.966C531.978 145.408 532.393 145.939 532.645 146.552C532.906 147.164 533.032 147.839 533.032 148.578C533.032 149.163 532.942 149.713 532.771 150.235C532.591 150.758 532.339 151.226 532.005 151.658C531.672 152.082 531.267 152.46 530.772 152.775C530.285 153.099 529.727 153.352 529.105 153.541C529.52 153.775 529.889 154.108 530.186 154.54L534.644 160.962H531.663C531.375 160.962 531.132 160.908 530.934 160.791C530.735 160.683 530.564 160.521 530.42 160.314L526.673 154.748C526.529 154.54 526.376 154.387 526.214 154.306C526.043 154.216 525.8 154.171 525.467 154.171H524.053L524.062 154.162ZM524.062 151.838H526.133C526.755 151.838 527.304 151.766 527.763 151.613C528.223 151.46 528.61 151.253 528.907 150.983C529.204 150.713 529.429 150.397 529.574 150.028C529.718 149.659 529.799 149.254 529.799 148.812C529.799 147.93 529.502 147.254 528.907 146.777C528.313 146.299 527.403 146.065 526.178 146.065H524.062V151.838Z" fill="#62202E"/>
<path d="M548 143.562V146.138H540.11V150.966H546.325V153.452H540.11V158.369H548V160.954H536.769V143.562H548Z" fill="#62202E"/>
<path d="M311.848 475H309.52V457.804H311.848V475ZM324.115 473.308C324.579 473.308 325.003 473.288 325.387 473.248C325.779 473.2 326.147 473.132 326.491 473.044C326.835 472.956 327.159 472.852 327.463 472.732C327.767 472.604 328.071 472.46 328.375 472.3V468.508H325.711C325.559 468.508 325.435 468.464 325.339 468.376C325.251 468.288 325.207 468.18 325.207 468.052V466.732H330.487V473.332C330.055 473.644 329.603 473.916 329.131 474.148C328.667 474.38 328.167 474.576 327.631 474.736C327.103 474.888 326.535 475 325.927 475.072C325.319 475.152 324.659 475.192 323.947 475.192C322.699 475.192 321.555 474.98 320.515 474.556C319.475 474.124 318.579 473.524 317.827 472.756C317.075 471.98 316.487 471.052 316.063 469.972C315.647 468.892 315.439 467.704 315.439 466.408C315.439 465.096 315.643 463.9 316.051 462.82C316.467 461.74 317.055 460.816 317.815 460.048C318.583 459.272 319.507 458.672 320.587 458.248C321.675 457.824 322.891 457.612 324.235 457.612C324.915 457.612 325.547 457.664 326.131 457.768C326.715 457.864 327.255 458.008 327.751 458.2C328.255 458.384 328.719 458.612 329.143 458.884C329.567 459.148 329.963 459.448 330.331 459.784L329.671 460.84C329.535 461.056 329.359 461.164 329.143 461.164C329.015 461.164 328.875 461.12 328.723 461.032C328.523 460.92 328.299 460.784 328.051 460.624C327.803 460.464 327.499 460.312 327.139 460.168C326.787 460.016 326.367 459.888 325.879 459.784C325.399 459.68 324.827 459.628 324.163 459.628C323.195 459.628 322.319 459.788 321.535 460.108C320.751 460.42 320.083 460.872 319.531 461.464C318.979 462.048 318.555 462.76 318.259 463.6C317.963 464.432 317.815 465.368 317.815 466.408C317.815 467.496 317.967 468.468 318.271 469.324C318.583 470.172 319.019 470.892 319.579 471.484C320.139 472.076 320.803 472.528 321.571 472.84C322.339 473.152 323.187 473.308 324.115 473.308ZM340.756 473.152C341.468 473.152 342.104 473.032 342.664 472.792C343.224 472.552 343.696 472.216 344.08 471.784C344.472 471.352 344.768 470.836 344.968 470.236C345.176 469.636 345.28 468.976 345.28 468.256V457.804H347.596V468.256C347.596 469.248 347.436 470.168 347.116 471.016C346.804 471.864 346.352 472.6 345.76 473.224C345.176 473.84 344.46 474.324 343.612 474.676C342.764 475.028 341.812 475.204 340.756 475.204C339.7 475.204 338.748 475.028 337.9 474.676C337.052 474.324 336.332 473.84 335.74 473.224C335.148 472.6 334.692 471.864 334.372 471.016C334.06 470.168 333.904 469.248 333.904 468.256V457.804H336.22V468.244C336.22 468.964 336.32 469.624 336.52 470.224C336.728 470.824 337.024 471.34 337.408 471.772C337.8 472.204 338.276 472.544 338.836 472.792C339.404 473.032 340.044 473.152 340.756 473.152ZM365.072 475H363.272C363.064 475 362.896 474.948 362.768 474.844C362.64 474.74 362.544 474.608 362.48 474.448L360.872 470.296H353.156L351.548 474.448C351.492 474.592 351.396 474.72 351.26 474.832C351.124 474.944 350.956 475 350.756 475H348.956L355.832 457.804H358.196L365.072 475ZM353.804 468.616H360.224L357.524 461.62C357.348 461.188 357.176 460.648 357.008 460C356.92 460.328 356.832 460.632 356.744 460.912C356.664 461.184 356.584 461.424 356.504 461.632L353.804 468.616ZM379.212 457.804V458.668C379.212 458.94 379.128 459.196 378.96 459.436L369.228 473.104H379.044V475H366.18V474.088C366.18 473.848 366.256 473.62 366.408 473.404L376.152 459.7H366.636V457.804H379.212ZM388.897 473.152C389.609 473.152 390.245 473.032 390.805 472.792C391.365 472.552 391.837 472.216 392.221 471.784C392.613 471.352 392.909 470.836 393.109 470.236C393.317 469.636 393.421 468.976 393.421 468.256V457.804H395.737V468.256C395.737 469.248 395.577 470.168 395.257 471.016C394.945 471.864 394.493 472.6 393.901 473.224C393.317 473.84 392.601 474.324 391.753 474.676C390.905 475.028 389.953 475.204 388.897 475.204C387.841 475.204 386.889 475.028 386.041 474.676C385.193 474.324 384.473 473.84 383.881 473.224C383.289 472.6 382.833 471.864 382.513 471.016C382.201 470.168 382.045 469.248 382.045 468.256V457.804H384.361V468.244C384.361 468.964 384.461 469.624 384.661 470.224C384.869 470.824 385.165 471.34 385.549 471.772C385.941 472.204 386.417 472.544 386.977 472.792C387.545 473.032 388.185 473.152 388.897 473.152ZM392.977 453.616L389.449 456.208C389.313 456.304 389.193 456.368 389.089 456.4C388.985 456.432 388.849 456.448 388.681 456.448H387.025L389.557 454.012C389.637 453.932 389.709 453.868 389.773 453.82C389.845 453.772 389.917 453.732 389.989 453.7C390.061 453.668 390.141 453.648 390.229 453.64C390.317 453.624 390.429 453.616 390.565 453.616H392.977ZM398.856 466.9H404.784V468.712H398.856V466.9ZM426.853 475H425.053C424.845 475 424.677 474.948 424.549 474.844C424.421 474.74 424.325 474.608 424.261 474.448L422.653 470.296H414.937L413.329 474.448C413.273 474.592 413.177 474.72 413.041 474.832C412.905 474.944 412.737 475 412.537 475H410.737L417.613 457.804H419.977L426.853 475ZM415.585 468.616H422.005L419.305 461.62C419.129 461.188 418.957 460.648 418.789 460C418.701 460.328 418.613 460.632 418.525 460.912C418.445 461.184 418.365 461.424 418.285 461.632L415.585 468.616ZM431.574 467.824V475H429.258V457.804H434.118C435.206 457.804 436.146 457.916 436.938 458.14C437.73 458.356 438.382 458.672 438.894 459.088C439.414 459.504 439.798 460.008 440.046 460.6C440.294 461.184 440.418 461.84 440.418 462.568C440.418 463.176 440.322 463.744 440.13 464.272C439.938 464.8 439.658 465.276 439.29 465.7C438.93 466.116 438.486 466.472 437.958 466.768C437.438 467.064 436.846 467.288 436.182 467.44C436.47 467.608 436.726 467.852 436.95 468.172L441.966 475H439.902C439.478 475 439.166 474.836 438.966 474.508L434.502 468.364C434.366 468.172 434.218 468.036 434.058 467.956C433.898 467.868 433.658 467.824 433.338 467.824H431.574ZM431.574 466.132H434.01C434.69 466.132 435.286 466.052 435.798 465.892C436.318 465.724 436.75 465.492 437.094 465.196C437.446 464.892 437.71 464.532 437.886 464.116C438.062 463.7 438.15 463.24 438.15 462.736C438.15 461.712 437.81 460.94 437.13 460.42C436.458 459.9 435.454 459.64 434.118 459.64H431.574V466.132ZM451.569 473.308C452.033 473.308 452.457 473.288 452.841 473.248C453.233 473.2 453.601 473.132 453.945 473.044C454.289 472.956 454.613 472.852 454.917 472.732C455.22 472.604 455.525 472.46 455.829 472.3V468.508H453.165C453.013 468.508 452.889 468.464 452.793 468.376C452.705 468.288 452.661 468.18 452.661 468.052V466.732H457.941V473.332C457.509 473.644 457.057 473.916 456.585 474.148C456.121 474.38 455.621 474.576 455.085 474.736C454.557 474.888 453.989 475 453.381 475.072C452.773 475.152 452.113 475.192 451.401 475.192C450.153 475.192 449.009 474.98 447.969 474.556C446.929 474.124 446.033 473.524 445.281 472.756C444.529 471.98 443.941 471.052 443.517 469.972C443.101 468.892 442.893 467.704 442.893 466.408C442.893 465.096 443.097 463.9 443.505 462.82C443.921 461.74 444.509 460.816 445.269 460.048C446.037 459.272 446.961 458.672 448.041 458.248C449.129 457.824 450.345 457.612 451.689 457.612C452.369 457.612 453.001 457.664 453.585 457.768C454.169 457.864 454.709 458.008 455.205 458.2C455.709 458.384 456.173 458.612 456.597 458.884C457.021 459.148 457.417 459.448 457.785 459.784L457.125 460.84C456.989 461.056 456.813 461.164 456.597 461.164C456.469 461.164 456.329 461.12 456.177 461.032C455.977 460.92 455.753 460.784 455.505 460.624C455.257 460.464 454.953 460.312 454.593 460.168C454.241 460.016 453.821 459.888 453.333 459.784C452.853 459.68 452.281 459.628 451.617 459.628C450.649 459.628 449.773 459.788 448.989 460.108C448.205 460.42 447.537 460.872 446.985 461.464C446.433 462.048 446.009 462.76 445.713 463.6C445.417 464.432 445.269 465.368 445.269 466.408C445.269 467.496 445.421 468.468 445.725 469.324C446.037 470.172 446.473 470.892 447.033 471.484C447.593 472.076 448.257 472.528 449.025 472.84C449.793 473.152 450.641 473.308 451.569 473.308ZM472.122 457.804V459.7H463.866V465.412H470.55V467.236H463.866V473.104H472.122V475H461.526V457.804H472.122ZM476.671 457.804C476.879 457.804 477.031 457.832 477.127 457.888C477.231 457.936 477.347 458.04 477.475 458.2L487.435 471.16C487.411 470.952 487.395 470.752 487.387 470.56C487.379 470.36 487.375 470.168 487.375 469.984V457.804H489.415V475H488.239C488.055 475 487.899 474.968 487.771 474.904C487.651 474.84 487.531 474.732 487.411 474.58L477.463 461.632C477.479 461.832 477.491 462.028 477.499 462.22C477.507 462.412 477.511 462.588 477.511 462.748V475H475.471V457.804H476.671ZM505.323 457.804V459.76H499.767V475H497.439V459.76H491.859V457.804H505.323ZM510.528 475H508.2V457.804H510.528V475ZM516.327 457.804C516.535 457.804 516.687 457.832 516.783 457.888C516.887 457.936 517.003 458.04 517.131 458.2L527.091 471.16C527.067 470.952 527.051 470.752 527.043 470.56C527.035 470.36 527.031 470.168 527.031 469.984V457.804H529.071V475H527.895C527.711 475 527.555 474.968 527.427 474.904C527.307 474.84 527.187 474.732 527.067 474.58L517.119 461.632C517.135 461.832 517.147 462.028 517.155 462.22C517.163 462.412 517.167 462.588 517.167 462.748V475H515.127V457.804H516.327ZM547.416 475H545.616C545.408 475 545.24 474.948 545.112 474.844C544.984 474.74 544.888 474.608 544.824 474.448L543.216 470.296H535.5L533.892 474.448C533.836 474.592 533.74 474.72 533.604 474.832C533.468 474.944 533.3 475 533.1 475H531.3L538.176 457.804H540.54L547.416 475ZM536.148 468.616H542.568L539.868 461.62C539.692 461.188 539.52 460.648 539.352 460C539.264 460.328 539.176 460.632 539.088 460.912C539.008 461.184 538.928 461.424 538.848 461.632L536.148 468.616Z" fill="#47072C"/>
</g>
<defs>
<clipPath id="clip0_3033_2929">
<rect width="858.7" height="555" fill="white"/>
</clipPath>
</defs>
</svg>
