<?xml version="1.0" encoding="UTF-8"?>
<svg id="Capa_2" data-name="Capa 2" xmlns="http://www.w3.org/2000/svg" viewBox="0 0 185.92 194.3">
  <defs>
    <style>
      .cls-1 {
        letter-spacing: .04em;
      }

      .cls-1, .cls-2, .cls-3, .cls-4, .cls-5, .cls-6, .cls-7 {
        isolation: isolate;
      }

      .cls-1, .cls-2, .cls-3, .cls-4, .cls-5, .cls-8, .cls-7 {
        fill: #fff;
      }

      .cls-1, .cls-2, .cls-3, .cls-4, .cls-5, .cls-7 {
        font-family: ChaparralPro-ItCapt, 'Chaparral Pro';
        font-size: 12px;
        font-style: italic;
      }

      .cls-2 {
        letter-spacing: .07em;
      }

      .cls-3 {
        letter-spacing: .06em;
      }

      .cls-4 {
        letter-spacing: .05em;
      }

      .cls-5, .cls-9 {
        letter-spacing: .05em;
      }

      .cls-10 {
        fill: #ba7e1a;
      }

      .cls-11 {
        letter-spacing: .05em;
      }

      @keyframes rotate {
        from { transform: rotate(0deg); }
        to { transform: rotate(360deg); }
      }

      .rotating-text {
        animation: rotate 8s linear infinite;
        transform-origin: 92.96px 99.74px;
      }
    </style>
  </defs>
  <g id="Capa_2-2" data-name="Capa 2">
    <g>
      <path class="cls-8" d="M13.01,63.78c-.15.13-.32.18-.79,0l-7.78-2.66c-.47-.16-.58-.3-.62-.5v-.07l-.31-.1-.5,1.46,4.8,5.47-7.29,1.83-.52,1.53,1.26-.39,7.07,2.41c.54.18,1.1.8,1.17,1.29v.08l.3.1.71-2.08-.29-.1-.06.05c-.36.34-1.18.49-1.72.31l-6.57-2.25,6.98-1.79.09-.25-5-5.73,7.84,2.68c.46.16.58.31.62.5l.02.07.28.09.66-1.94-.28-.09-.05.05-.02.02Z"/>
      <path class="cls-8" d="M14.44,56.76l.05.1c.29.56.88,2.05.07,3.76l-.45.95-4.78-2.24,1.83-3.18-.92-.43-1.26,3.44-3.63-1.7.38-.81c.65-1.39,1.67-1.85,2.67-2.15l.12-.03-.07-.28-1.76-.45-2.4,5.12.28.13.06-.04c.15-.1.34-.12.79.08l7.44,3.49c.45.21.55.37.57.55v.07l.28.13,2.59-5.53-1.6-1.14s-.26.16-.26.16Z"/>
      <path class="cls-8" d="M12.71,43.88v-.08l-.27-.16-1.12,1.89.27.16.07-.04c.42-.26,1.25-.24,1.73.04l5.35,3.18-10.15,1.35h-.06l-.91,1.54,1.71-.22,6.17,3.66c.49.29.91,1.02.87,1.52v.08l.26.16,1.13-1.9-.26-.16-.07.04c-.42.27-1.26.25-1.75-.04l-5.78-3.43,10.81-1.39.21-.35-7.34-4.36c-.48-.29-.9-1-.87-1.5h0Z"/>
      <path class="cls-8" d="M24.38,44.38c-.18.07-.37.06-.76-.23l-7.17-5.35.12-.15c.89-1.2,2.1-1.39,3.17-1.48h.1l.05-.3-1.88-.76-4.46,5.98-.06.08,1.26,1.58.26-.13-.02-.09c-.22-1.04-.38-2.26.52-3.46l.12-.16,7.17,5.35c.39.29.46.48.44.67v.07l.05.04s.08.06.08.06l.1.08,1.23-1.64-.24-.18-.07.03h-.01Z"/>
      <path class="cls-8" d="M22.52,30.8c-.97,1.04-1.49,2.4-1.46,3.83.04,1.44.62,2.76,1.66,3.73.97.91,2.24,1.41,3.6,1.41h.23c1.43-.06,2.76-.67,3.73-1.71s1.49-2.4,1.45-3.84c-.04-1.44-.62-2.76-1.66-3.73-2.14-2-5.53-1.87-7.56.31h.01ZM22.03,35.49c-.55-1.07-.57-2.19-.06-3.23.69-1.42,2.02-2.01,3.45-2.01.91,0,1.85.24,2.7.65,1.19.58,2.13,1.46,2.65,2.47.55,1.07.57,2.19.06,3.23s-1.41,1.71-2.59,1.93c-1.11.21-2.38,0-3.58-.58-1.19-.58-2.12-1.45-2.64-2.46h0Z"/>
      <path class="cls-8" d="M40.13,28.39c-.7-.02-1.37-.07-3.01-.66l-2.32-.83c.93-1.33,1-2.63.18-3.58-1.13-1.32-3.17-1.05-5.2.69l-2.23,1.91.2.24h.07c.19-.04.36.01.68.39l5.35,6.24c.32.38.35.56.29.74l-.02.07.19.22,1.54-1.32-.19-.23h-.07c-.18.05-.36,0-.68-.39l-2.34-2.73.93-.8c.14-.12.28-.25.43-.4l2.87,1.02.05.02c1.08.39,1.51.56,1.48.98v.05l.18.21,1.88-1.61-.18-.21h-.06l-.02-.02ZM32.32,28.86l-3.24-3.78.93-.8c.9-.77,1.72-1.1,2.45-.99.51.08.99.38,1.46.93.46.54.68,1.05.68,1.58,0,.74-.45,1.5-1.35,2.27l-.93.8h0Z"/>
      <path class="cls-8" d="M44.44,23.14v.12c-.03.63-.25,2.22-1.79,3.32l-.85.61-3.07-4.29,3.15-1.88-.59-.82-2.79,2.39-2.34-3.27.72-.52c1.25-.9,2.42-.79,3.39-.57l.12.03.08-.28-1.31-1.26-4.6,3.29.18.25h.07c.18-.03.36.05.65.45l4.79,6.69c.29.4.3.59.23.76l-.03.06.17.24,4.98-3.56-.84-1.78h-.3l-.02.02Z"/>
      <path class="cls-8" d="M46.82,16.87c-1.52.27-2.84.5-3.39-.67-.32-.69-.11-1.76,1.12-2.48,1.03-.61,2.32-.35,3.83.76l.07.05.24-.14-.44-1.69h-.08c-.84-.12-2.41-.2-3.52.45-2.01,1.19-2.2,2.96-1.52,4.11,1,1.69,2.85,1.39,4.48,1.13,1.56-.25,2.91-.47,3.48.83.35.82-.15,1.95-1.12,2.52-1.95,1.15-3.95.12-4.72-.38l-.06-.04-.24.14.51,1.82h.08c.4.06.78.08,1.15.08,1.01,0,1.95-.21,3.04-.85,1.86-1.1,2.56-3.01,1.66-4.54-1.01-1.71-2.89-1.38-4.56-1.09h0Z"/>
      <path class="cls-8" d="M61.14,14.45l-.03.11c-.16.61-.7,2.11-2.44,2.87l-.96.42-2.09-4.84,3.47-1.17-.4-.93-3.23,1.74-1.59-3.68.82-.35c1.41-.61,2.48-.28,3.43.16l.11.05.13-.25-1.02-1.5-5.07,2.19-.11.05.12.29h.07c.18.03.34.14.53.59l3.26,7.54c.2.45.17.64.06.79l-.04.06.12.27,5.52-2.39.1-.04-.45-1.92-.3-.06h0Z"/>
      <path class="cls-8" d="M68.43,3.66l.05-.05-.1-.3-2.09.67.1.3h.08c.49.09,1.09.66,1.26,1.2l1.89,5.93-8.54-5.76-1.7.54,1.42.97,2.18,6.84c.17.55,0,1.36-.35,1.71l-.05.05.09.29,2.1-.67-.09-.29h-.08c-.5-.09-1.11-.66-1.28-1.21l-2.05-6.41,8.96,6.11.05.03.38-.12-2.6-8.13c-.17-.54,0-1.35.34-1.7h.03Z"/>
      <path class="cls-8" d="M81.06,9.34c-.29.56-1.18,1.89-3.04,2.22l-1.03.18-.91-5.2,3.65-.33-.17-1-3.54.94-.69-3.96.88-.15c1.51-.26,2.48.3,3.29.96l.09.07.19-.21-.64-1.7-5.57.97.02.12s.01.09.02.12v.07l.08.02c.17.07.3.21.38.69l1.41,8.1c.08.49.01.66-.13.78l-.05.05.05.29,6.02-1.05v-1.97l-.26-.12-.05.1h0Z"/>
      <path class="cls-8" d="M88.36,8.62c-.34.53-1.33,1.79-3.21,1.96l-1.19.11-.82-8.91c-.04-.49.04-.66.19-.77l.06-.04-.03-.31-2.04.19.03.31.07.03c.18.08.29.22.34.72l.75,8.18c.04.49-.04.66-.2.77l-.06.04.03.3,6.14-.57h.1l.17-1.97-.27-.15-.06.1h0Z"/>
      <path class="cls-8" d="M98.51,6.59l-3.72-6.45-.03-.06-1.62-.08.72,1.1-.39,7.46c-.03.57-.47,1.28-.92,1.48l-.07.03v.3l2.18.11v-.3l-.05-.04c-.43-.25-.79-1-.76-1.57l.36-6.94,3.6,6.17.03.06h.27l4.14-6.37-.43,8.28c-.02.48-.14.64-.31.73l-.06.03v.3l2.03.1.02-.3-.06-.04c-.17-.11-.26-.26-.23-.76l.42-8.21c.03-.5.13-.64.31-.73l.06-.03.02-.31-1.54-.08-3.95,6.11h-.02Z"/>
      <path class="cls-8" d="M114.23,2.65l.07-.02.05-.31-2.02-.35-.06.34.1.03c.61.2.81,1.08.68,1.8l-.83,4.77c-.25,1.45-1.45,2.84-3.26,2.68-.89-.08-1.58-.42-2.04-1.02-.55-.72-.73-1.76-.51-3.02l.92-5.34c.08-.49.2-.62.38-.69l.07-.03.05-.31-2.02-.35-.05.31.06.05c.16.13.22.29.14.78l-.92,5.34c-.22,1.25.02,2.35.69,3.17.6.74,1.53,1.24,2.67,1.44.23.04.47.06.7.06.75,0,1.46-.22,2.04-.63.75-.54,1.26-1.38,1.44-2.38l.85-4.93c.05-.28.25-1.22.79-1.4h.01Z"/>
      <path class="cls-8" d="M124.89,5.63h.07l.09-.32-2.11-.61-.09.31.05.05c.36.34.55,1.15.39,1.69l-1.74,5.97-3.84-9.49-.02-.06-1.71-.5.64,1.6-2.01,6.89c-.16.55-.76,1.14-1.25,1.23h-.08l-.08.3,2.12.62.08-.29-.06-.05c-.37-.34-.56-1.16-.4-1.71l1.88-6.46,4.02,10.07.02.06.39.11,2.39-8.19c.16-.54.75-1.12,1.23-1.21h.02Z"/>
      <path class="cls-8" d="M133.56,10.4c-.63-1.32-1.82-2.39-3.33-3.03l-3.45-1.46-.12.29.04.06c.11.15.14.34-.05.79l-3.2,7.57c-.19.46-.34.56-.53.59h-.07l-.11.28,3.45,1.46c.9.38,1.81.56,2.68.56,2.13,0,4-1.1,4.82-3.04.56-1.31.52-2.76-.11-4.07h-.02ZM128.21,6.92l1.87.79c2.75,1.16,3.24,4.01,2.3,6.22-.94,2.22-3.33,3.86-6.07,2.7l-1.87-.79s3.77-8.92,3.77-8.92Z"/>
      <path class="cls-8" d="M142.01,13.02c-2.57-1.49-5.85-.64-7.32,1.9-1.47,2.54-.57,5.81,2,7.3.83.48,1.76.73,2.7.73.46,0,.92-.06,1.37-.17,1.39-.36,2.55-1.23,3.26-2.45,1.47-2.54.57-5.81-2-7.3h0ZM135.53,16.72c.35-1.52,1.18-2.79,2.27-3.47.57-.36,1.2-.54,1.84-.54.27,0,.54.03.82.1,2.5.58,3.26,3.3,2.7,5.69-.56,2.39-2.44,4.51-4.94,3.92-1.13-.26-1.98-.98-2.46-2.09-.45-1.04-.54-2.32-.24-3.61h.01Z"/>
      <path class="cls-8" d="M153.91,21.31l-2.9-2.37-.2.24.02.07c.06.17.04.36-.27.74l-5.2,6.37c-.31.38-.49.45-.67.42h-.07l-.19.22,2.9,2.37c1.22,1,2.65,1.54,4.04,1.54h.2c1.45-.05,2.75-.69,3.65-1.8,1.88-2.3,1.31-5.64-1.31-7.78v-.02ZM152.1,20.31l1.58,1.29c1.04.85,1.62,1.96,1.67,3.22.05,1.18-.38,2.39-1.21,3.4-1.52,1.87-4.28,2.77-6.59.88l-1.58-1.29,6.12-7.5h.01Z"/>
      <path class="cls-8" d="M158.15,36.43l-.12.02c-.63.08-2.22.13-3.57-1.21l-.74-.74,3.72-3.74,2.28,2.69.09.1.71-.72-2.81-2.35,2.83-2.84.63.63c1.09,1.09,1.18,2.25,1.12,3.24v.12l.28.03,1.02-1.5-4-3.98-.22.22.02.07c.05.18,0,.36-.34.71l-5.8,5.82c-.35.35-.53.39-.71.35l-.07-.02-.21.21,4.33,4.31,1.62-1.12-.06-.3h0Z"/>
      <path class="cls-8" d="M166.13,33.49l.07.02.24-.2-1.33-1.56-.24.2v.07c.05.2,0,.37-.38.69l-6.25,5.34c-.38.32-.56.35-.74.28l-.07-.03-.23.19,4.07,4.77,1.7-.99-.04-.3h-.12c-.64.04-2.23-.04-3.46-1.48l-.78-.91,6.8-5.81c.38-.32.55-.35.74-.29h.02Z"/>
      <path class="cls-8" d="M176.79,48.04h.05l.24-.15-1.08-1.65-.24.16v.05c-.19.76-.68,1.09-2.1,1.44l-5.83,1.41,4-5.54c.63-.88.97-1.22,1.41-1.14h.05l.24-.15-1.35-2.06-.24.16v.04c-.28.86-.77,1.79-1.4,2.68-.71.98-4.61,6.4-4.61,6.4l-.05.07.77,1.18.86-1.19,6.26-1.51c1.45-.35,2.2-.33,3.01-.18v-.02Z"/>
      <path class="cls-8" d="M177.39,50.84c.43-.24.61-.23.78-.13l.06.04.27-.15-1-1.78-.27.15v.07c0,.19-.1.35-.53.59l-7.16,4.02c-.43.24-.62.23-.78.14l-.06-.03-.26.14,1,1.79.26-.15v-.07c0-.2.08-.36.52-.6l7.16-4.02h0Z"/>
      <path class="cls-8" d="M182.9,60.38l.06.05.29-.14-.93-1.98-.29.13v.08c-.02.5-.51,1.17-1.02,1.41l-5.64,2.63,4.6-9.15.03-.05-.75-1.61-.78,1.53-6.5,3.04c-.52.24-1.35.18-1.75-.13l-.06-.05-.07.04-.09.04-.12.05.93,2,.28-.13v-.08c.02-.5.5-1.18,1.02-1.42l6.09-2.85-4.92,9.67-.03.05.17.37,7.73-3.61c.51-.24,1.34-.18,1.73.13l.02-.02Z"/>
      <path class="cls-8" d="M185.64,66.67c-.45-1.35-1.39-2.46-2.66-3.12-1.28-.66-2.72-.78-4.07-.34-2.78.92-4.29,3.96-3.36,6.78.45,1.35,1.39,2.46,2.67,3.12.77.4,1.6.6,2.44.6.55,0,1.09-.09,1.63-.26,1.35-.44,2.44-1.4,3.07-2.69.63-1.28.73-2.74.29-4.09h0ZM176.11,67.98c.35-1.08,1.14-2.09,2.23-2.85,1.04-.74,2.21-1.14,3.3-1.14.24,0,.48.02.71.06.94.16,1.73.66,2.28,1.44,1.48,2.1.23,4.63-1.77,6.05-2.01,1.41-4.82,1.75-6.3-.36-.67-.95-.82-2.05-.45-3.2Z"/>
      <path class="cls-8" d="M15.34,137.32c.48-.21.58-.14.67-.07l.12.09.47-.21-.59-1.34.23-.1-.28-.03-.05-.12-7.1-.76,4.04-6.17-.78-1.77-.76,1.31-6.8,3c-.47.21-1.26.14-1.61-.14l-.12-.1-.46.2.99,2.24.46-.2v-.15c.04-.45.51-1.07.99-1.28l5.97-2.64-3.72,5.76.17.38,7.17.77-7.16,3.16c-.47.21-.6.12-.67.07l-.12-.08-.45.2.93,2.1.46-.2v-.15c.03-.12.07-.25.51-.45l7.52-3.32h-.03Z"/>
      <path class="cls-8" d="M12.8,146.84l-.23-.03c-.61-.08-2.12-.44-3.03-2.04l-.46-.8,4.35-2.5,1.56,3.32,1.11-.64-2.1-3.01,3.25-1.87.38.66c.74,1.29.54,2.36.22,3.32l-.08.22.45.18,1.51-1.3-2.93-5.09-.44.25v.14c0,.12-.04.25-.46.49l-7.12,4.1c-.42.24-.55.21-.65.15l-.12-.07-.43.24,3.17,5.5,2.03-.72.03-.5h0Z"/>
      <path class="cls-8" d="M25.11,151.2l.14.07.42-.3-1.41-1.99-.42.3.02.15c.06.45-.27,1.15-.69,1.44l-4.77,3.39,2.81-9.59-1.21-1.71-.55,1.85-5.81,4.13c-.43.3-1.21.39-1.61.18l-.14-.07-.41.29,1.42,2,.41-.29-.02-.16c-.07-.45.27-1.16.69-1.46l5.18-3.68-2.99,10.04-.04.12.34.48,7.05-5.01c.42-.3,1.2-.38,1.59-.18h0Z"/>
      <path class="cls-8" d="M28.54,155.12l.05.05c.95,1.08.9,2.23.76,3.31l-.02.19.46.19,1.25-1.84-5.12-5.83-1.99,1,.13.48h.19c1.09,0,2.23.09,3.18,1.18l.04.05-6.63,5.82c-.39.34-.53.29-.62.26l-.13-.04-.38.32,1.52,1.72.37-.33-.02-.14c-.02-.09-.04-.24.34-.58l6.63-5.82h-.01Z"/>
      <path class="cls-8" d="M35.12,160.69c-1.08-.99-2.48-1.49-3.94-1.45-1.47.05-2.82.67-3.8,1.74-2.03,2.21-1.85,5.68.39,7.73,1.07.98,2.41,1.46,3.75,1.46,1.47,0,2.93-.59,3.99-1.74,2.03-2.21,1.85-5.68-.39-7.73h0ZM29.37,169.04c-1.01-.48-1.66-1.34-1.88-2.48-.21-1.08-.02-2.33.54-3.5.66-1.38,1.71-2.42,2.9-2.83.38-.13.76-.2,1.14-.2.5,0,.99.11,1.46.34,2.25,1.07,2.38,3.82,1.35,5.97-1.03,2.16-3.26,3.78-5.5,2.71h-.01Z"/>
      <path class="cls-8" d="M40.02,172.14c1.5.55,2.78.29,3.53-.74,1.07-1.46.34-3.46-1.88-5.09l-2.47-1.81-.3.41.06.13c.04.09.09.21-.22.63l-4.86,6.63c-.29.39-.43.41-.54.4h-.14l-.29.38,1.84,1.35.29-.4-.05-.13c-.04-.11-.06-.25.22-.64l2.06-2.8.89.65c.13.1.27.19.42.29l-.34,3c-.13,1.11-.21,1.51-.51,1.55l-.1.02-.27.37,2.2,1.61.28-.37-.02-.11c-.15-.7-.24-1.33-.04-3.05l.27-2.29h-.03ZM40.42,166.16l.89.65c2.08,1.53,1.52,2.8.92,3.62-.6.82-1.64,1.72-3.72.2l-.88-.65,2.8-3.82h0Z"/>
      <path class="cls-8" d="M46.61,179.66c-.57.22-2.07.63-3.64-.33l-.79-.48,2.61-4.28,2.96,2.16.67-1.1-3.28-1.63,1.95-3.21.65.4c1.27.77,1.61,1.8,1.79,2.8l.04.23.48-.06.7-1.87-5.02-3.06-.26.43.07.13c.05.1.09.24-.16.65l-4.27,7.02c-.25.41-.37.44-.5.44h-.14l-.26.42,5.41,3.3,1.43-1.61-.21-.46-.22.08v.03Z"/>
      <path class="cls-8" d="M55.6,174.66c-1.27-.63-2.24-.53-2.83-.34-.71.23-1.29.72-1.61,1.36-.91,1.83.38,3.25,1.52,4.5,1.03,1.13,1.92,2.11,1.19,3.21-.46.69-1.61.86-2.57.39-1.97-.98-2.19-3.16-2.19-4.05v-.15l-.4-.2-1.36,1.56.08.15c.68,1.36,1.42,2.36,2.99,3.14.68.34,1.39.51,2.06.51.27,0,.53-.03.78-.08.91-.2,1.63-.76,2.04-1.57.92-1.85-.42-3.29-1.59-4.55-1.02-1.09-1.9-2.04-1.27-3.05.37-.6,1.32-.97,2.53-.37,1.04.52,1.49,1.66,1.38,3.51v.16l.4.21,1.3-1.42-.07-.15c-.37-.77-1.17-2.16-2.37-2.75v-.02Z"/>
      <path class="cls-8" d="M70.4,181.15l.15-.02.17-.49-2.32-.77-.16.49.11.11c.31.32.46,1.09.3,1.58l-1.84,5.56-3.37-9.29-.04-.11-1.99-.66.65,1.82-2.25,6.77c-.17.5-.75,1.03-1.2,1.09l-.15.02-.16.48,2.33.77.16-.48-.11-.11c-.32-.32-.47-1.09-.3-1.59l2-6.04,3.57,9.99.56.19,2.73-8.22c.16-.49.74-1.02,1.18-1.09h-.02Z"/>
      <path class="cls-8" d="M75.87,181.59c-1.42-.29-2.89-.02-4.12.77-1.24.8-2.08,2.02-2.37,3.44-.61,2.94,1.32,5.83,4.3,6.44.37.08.75.11,1.12.11,1.05,0,2.09-.3,3-.89,1.24-.8,2.08-2.02,2.37-3.43.29-1.42,0-2.88-.82-4.1-.82-1.21-2.05-2.05-3.48-2.34h0ZM70.99,187.26c-.14-1.52.23-2.95,1.03-3.92.59-.71,1.38-1.13,2.3-1.21.12,0,.23-.02.34-.02,2.27,0,3.67,2.18,3.88,4.45.22,2.38-.85,4.92-3.33,5.15-1.11.11-2.11-.3-2.89-1.16-.74-.82-1.21-1.99-1.33-3.28h0Z"/>
      <path class="cls-8" d="M94.16,183.37l-.15.24h-.13l-3.8,6.04-3.77-6.34-1.93-.08.84,1.26-.29,7.42c-.02.52-.42,1.19-.83,1.38l-.14.06-.02.5,2.44.1.02-.5-.13-.08c-.39-.22-.74-.92-.72-1.44l.25-6.52,3.53,5.88h.41l3.85-6.08-.3,7.81c-.02.51-.16.59-.24.63l-.12.07-.02.49,2.29.09.02-.5-.12-.08c-.11-.07-.2-.16-.18-.64l.32-8.21c.02-.52.13-.58.23-.63l.13-.06.02-.51-1.46-.06v-.25h0Z"/>
      <path class="cls-8" d="M114.22,181.74l.12-.09-.09-.51-2.4.45.1.51.14.04c.43.13.93.73,1.02,1.23l1.09,5.76-7.45-6.48-.09-.08-2,.38v-.03l-2.29.18.04.58h.22c.57.05.94.8.99,1.48l.37,4.83c.11,1.41-.68,2.99-2.4,3.26-.85.14-1.57-.02-2.12-.46-.68-.54-1.1-1.48-1.19-2.71l-.42-5.4c-.04-.52.06-.59.15-.65l.11-.08-.04-.51-2.29.18.04.51.13.06c.1.05.21.1.25.62l.42,5.4c.1,1.3.62,2.34,1.5,2.99.69.51,1.57.78,2.57.78.15,0,.3,0,.46-.02,1.05-.08,1.97-.53,2.59-1.27.62-.73.92-1.71.84-2.75l-.38-4.99c-.04-.55.03-1.22.37-1.43l.13-.08-.03-.41,1.38,1.22,1.32,7c.1.52-.15,1.26-.51,1.54l-.12.09.09.5,2.41-.46-.09-.5-.15-.04c-.44-.12-.94-.73-1.04-1.24l-1.18-6.25,7.96,6.99.58-.11-1.6-8.5c-.1-.51.14-1.24.5-1.52h0Z"/>
      <path class="cls-8" d="M118.12,179.96l-3.7,1.15.15.48.14.03c.11.03.24.09.38.55l2.43,7.85c.14.46.08.58,0,.67l-.09.11.15.47,3.7-1.14c3.3-1.02,5.11-3.98,4.21-6.88-.9-2.9-4.06-4.31-7.36-3.29h-.01ZM119.27,190.12l-2.79-9,1.82-.56c1.25-.38,2.46-.26,3.5.37.98.59,1.73,1.59,2.11,2.81.7,2.24-.05,4.96-2.82,5.81l-1.82.57Z"/>
      <path class="cls-8" d="M128.89,175.79c-2.77,1.25-4.02,4.49-2.79,7.22.59,1.32,1.68,2.33,3.06,2.84.63.23,1.28.35,1.93.35.77,0,1.54-.16,2.26-.49,1.33-.6,2.35-1.68,2.88-3.05.53-1.37.5-2.85-.09-4.17-1.23-2.73-4.49-3.94-7.26-2.7h0ZM128.27,183.24c-1.01-1.15-1.54-2.53-1.46-3.78.06-.92.46-1.73,1.15-2.33.67-.59,1.44-.84,2.21-.84,1.38,0,2.8.81,3.81,1.96,1.58,1.8,2.19,4.48.32,6.12-.84.74-1.89,1-3.02.75-1.08-.23-2.15-.9-3-1.88h-.01Z"/>
      <path class="cls-8" d="M139.98,169.95l-3.24,2.12.28.42h.14c.09,0,.25.02.52.42l4.51,6.87c.26.4.24.54.19.65l-.06.13.27.41,3.24-2.13c2.89-1.89,3.81-5.24,2.15-7.77-1.67-2.54-5.1-3.02-7.99-1.12h0ZM143.89,179.4l-5.17-7.88,1.6-1.05c1.09-.72,2.29-.93,3.47-.61,1.11.3,2.11,1.05,2.81,2.12.7,1.07,1,2.29.83,3.43-.18,1.21-.85,2.22-1.94,2.94l-1.6,1.05h0Z"/>
      <path class="cls-8" d="M149.17,162.97c-1.11.94-1.8,2.26-1.94,3.72-.14,1.47.31,2.88,1.25,3.99,1.07,1.26,2.59,1.91,4.14,1.91,1.26,0,2.54-.43,3.58-1.32,2.32-1.96,2.63-5.42.69-7.71-1.94-2.29-5.41-2.55-7.72-.59ZM150.63,170.31c-1.29-.83-2.18-2-2.45-3.23-.2-.9-.04-1.79.46-2.56.71-1.11,1.81-1.57,2.99-1.57,1.05,0,2.16.37,3.11.98,2.01,1.3,3.35,3.71,2,5.8-.6.94-1.54,1.48-2.7,1.56-1.11.08-2.31-.27-3.41-.97h0Z"/>
      <path class="cls-8" d="M170.68,154.99c-.12.05-.25.07-.63-.23l-6.51-5.01c-.38-.29-.4-.43-.38-.55l.02-.15-.41-.31-1.4,1.82.09.07-1.43,1.63.35.31h.1c.73-.04,1.14.32,1.83,1.56l2.76,4.94-6.1-2.24c-1.07-.4-1.37-.6-1.4-.95v-.1l-.36-.31-1.79,2.04.34.3h.09c.89.03,1.9.24,2.92.61,1.14.42,7.41,2.72,7.41,2.72l.16.06,1.11-1.26-1.51-.56-3.12-5.58c-.72-1.28-.9-2-.97-2.8v-.1l-.05-.04.1-.04c.11-.04.25-.06.63.23l6.51,5.01c.38.29.4.43.39.55l-.02.14.39.3,1.4-1.82-.4-.3-.13.06h0Z"/>
      <path class="cls-8" d="M168.76,141l.02-.15-.43-.28-1.34,2.04.43.29.14-.08c.39-.22,1.17-.16,1.6.12l4.89,3.23-9.84.84h-.12l-1.16,1.76,1.93-.15,5.95,3.93c.44.29.8.99.75,1.44l-.02.15.42.28,1.35-2.05-.42-.28-.14.08c-.39.23-1.18.17-1.62-.12l-5.31-3.5,10.57-.85.32-.49-7.23-4.77c-.43-.28-.79-.97-.74-1.42v-.02Z"/>
      <path class="cls-8" d="M181.21,137.54c-.1.06-.23.1-.66-.12l-7.3-3.76c-.43-.22-.47-.35-.48-.47v-.14l-.46-.24-1.05,2.04.45.23.12-.08c.1-.07.23-.11.66.11l2.55,1.31-2.08,4.04-2.55-1.31c-.43-.22-.47-.35-.48-.47v-.14l-.46-.24-1.05,2.04.45.23.12-.08c.1-.07.23-.11.66.11l7.3,3.76c.43.22.47.35.47.47v.14l.45.23,1.05-2.04-.44-.22-.12.07c-.1.06-.23.1-.66-.12l-4.22-2.17,2.08-4.04,4.22,2.18c.43.22.47.35.47.47v.15l.45.23,1.05-2.04-.44-.22-.12.07.02.02Z"/>
      <path class="cls-8" d="M181.24,124.38c-2.8-1.06-5.96.39-7.03,3.23-.52,1.36-.48,2.85.11,4.19.59,1.35,1.67,2.37,3.02,2.88.61.23,1.25.35,1.88.35.78,0,1.55-.17,2.29-.51,1.33-.61,2.35-1.7,2.86-3.06,1.08-2.84-.33-6.02-3.13-7.08h0ZM182.49,132.51c-.93.6-2.16.88-3.45.8-1.53-.1-2.88-.7-3.71-1.64-.61-.69-.9-1.54-.84-2.46.15-2.34,2.37-3.49,4.62-3.49.14,0,.28,0,.42.01,2.39.16,4.72,1.62,4.56,4.1-.07,1.11-.63,2.04-1.61,2.67h.01Z"/>
      <circle class="cls-8" cx="4.28" cy="99.74" r="2.21"/>
      <circle class="cls-8" cx="182.6" cy="99.74" r="2.21"/>
    </g>
    <g>
      <g>
        <path class="cls-8" d="M146.83,92.73c-.86-.16-1.53.72-1.82.77-1.31.21-2.29,3.15-3.87,5.43-1.52,2.19-3.74,3.84-5.84,3.51-3.88-.6-4.48-5.32-4.65-9.71-.17-4.38.29-5.44.29-5.44,0,0-.17-.83-1.33-.97-1.15-.13-1.47-.57-1.7-.28-.16.2-.31.71-.39,1.02v.11c-.32-.23-.95-.58-1.91-.81-1.91-.45-5.71-.21-10.4,4.92-2.17,2.37-3.54,5.39-4.1,8.2-2.13,2.59-5.64,6.49-7,6-2.22-.81-.86-13.65-.06-15.94.43-1.24,4.51-13.35,6.51-20.52,1.04-3.75-1.02-3.43-3.52-3.74-2.41-.3-4.2,8.98-4.44,9.99-1.01,4.39-3.05,13.89-3.28,14.52-.29.78-.46,1.52-.79,1.87-.27.28-.46.04-.46.04,0,0-.32-1.52-2.64-2.01-4.22-.88-9.25,3.91-11.69,8.24-3.99,7.06-4.01,13.12-.68,15.46,2.47,1.73,5.9-.56,9.28-4.73,3.66-4.52,5.68-9.57,6.13-9.38s.52,1.06.53,1.25c.01.2.02,8.34,3.7,9.07,3.12.62,6.3-1.69,8.28-4.95.02-.04.04-.08.07-.11.31,1.39.94,2.47,1.9,3.02,4.06,2.33,8.17-1.84,11.31-5.86,2.37-3.04,2.83-4.35,3.11-4.83l.09-.2c.06-.14.29-.39.33-.15.4,2.14,1.07,8.66,7.02,9.82,3.45.67,6.91-1.48,10-4.96,2.01-2.27,3.82-4.95,3.82-6.25,0-1.05-.66-2.18-1.78-2.38M91.12,104.44c-2.11,2.6-4.18,5.36-5.5,4.67-1.1-.57-1.13-4.7,1.8-9.71,1.5-2.57,5.17-7.51,8.12-6.49,1.61.56,2.13,2.45,2.13,2.45,0,0-4.43,6.49-6.54,9.09M121.92,98.8c-1.68,2.07-4.56,6.69-6.37,5.66-1.6-.91-1.07-6.3,2.57-10.71,2.55-3.09,5.1-5.13,7.24-4.57,1.54.4,2.08,1.77,2.15,1.94v.03c-.14.19-3.87,5.53-5.59,7.65"/>
        <path class="cls-10" d="M142.62,118.68c-.39.47-.69.88-1.12,1.24-.4.33-.65.59-1.2.98-.72.51-1.41,1.04-2.16,1.5-.7.42-1.43.79-2.2,1.06-.46.16-.92.23-1.41.23-.54,0-.9-.28-1.15-.73-.13-.23-.19-.47-.2-.74-.02-.5.1-.99.21-1.47.06-.25.08-.51.07-.77,0-.26-.16-.46-.44-.49-.24-.03-.45-.12-.67-.24-.22-.11-.51-.15-.78-.11-.33.05-.58.11-.89.25-.58.26-1.01.48-1.53.85-.29.2-.64.44-.96.71-.15.13-.33.27-.48.4-1.2,1.01-2.38,2.05-3.51,3.14-.6.58-1.26,1.1-1.98,1.53-.59.35-1.23.55-1.93.56-.63,0-.97-.3-1.01-.92-.03-.43-.01-.9.24-1.26.38-.54.8-.94,1.45-1.45.42-.33,1.09-.7,1.55-.96.09-.05.44-.12.55-.11.1,0,.19.03.29.04.22.03.39-.09.44-.3.06-.22-.02-.43-.23-.57-.22-.16-.47-.2-.74-.2-.64-.01-1.22.21-1.75.52-.72.42-1.44.85-2.13,1.31-1.12.75-2.2,1.58-3.25,2.42-.98.78-1.98,1.54-3.03,2.22-.59.38-1.21.7-1.87.91-.26.08-.54.13-.82.15-.17,0-.36-.04-.52-.09-.3-.1-.35-.27-.2-.53.17-.29.23-.35.44-.61.09-.11.27-.23.36-.32.38-.36.67-.69.93-1.08.14-.21.27-.44.37-.68.15-.37.24-.76.2-1.16-.06-.53-.48-.86-1-.77-.19.03-.38.11-.55.21-.42.24-.78.55-1.09.93-.69.83-1.14,1.77-1.25,2.86-.04.36-.17.64-.46.86-.94.7-1.87,1.43-2.93,1.93-.2.09-.4.17-.62.22-.24.06-.43-.1-.45-.35,0-.12,0-.24.03-.35.07-.27.12-.55.23-.8.28-.72.58-1.44.89-2.15.62-1.43,1.33-2.81,2.11-4.15.21-.36.45-.71.71-1.03.49-.6.95-1.23,1.44-1.83.13-.16.31-.34.58-.45h0c.07-.03.14-.05.21-.07.85-.19,1.83-.42,2.7-.63,1.16-.28,1.84-.42,2.96-.7,1.24-.31,2.4-.56,3.64-.86,1.19-.29,1.97-.46,3.18-.76.33-.08.66-.16.98-.26.21-.06.42-.13.61-.23.2-.1.37-.45.31-.6-.1-.23-.3-.3-.53-.31-.14,0-.28,0-.42.03-.33.06-.66.13-.99.21-2.47.59-4.48,1.02-6.95,1.6-1.57.37-2.42.56-4.85,1.21-.42.11-.81.08-1.22-.13-.25-.13-.51-.05-.71.15-.08.08-.17.16-.26.25-.14.14-.31.24-.51.3-.5.13-.99.29-1.49.41-1.1.28-2.2.54-3.31.81-1.03.24-2.05.49-3.08.72-1.34.3-2.68.58-4.03.87-.17.04-.35.09-.51.17-.15.07-.18.44-.17.62.01.17.12.38.31.4.14.02.48-.03.62-.06.88-.19,1.4-.34,2.17-.52,1.14-.27,2.4-.57,3.6-.84,1.57-.35,3.14-.73,4.71-1.09.09-.02.28-.07.37-.08.09-.01.18-.05.21-.02-.06.1-.13.2-.16.24-.26.43-.53.84-.88,1.2-1.17,1.22-2.5,2.27-3.81,3.34-.05.04-.1.06-.15.09-.78.45-1.55.9-2.33,1.33-.74.41-1.53.66-2.36.83-.22.04-.44.09-.64-.03-.34-.2-.69-.4-.99-.66-.34-.29-.68-.31-1.05-.14-.23.11-.45.26-.65.41-.75.59-1.49,1.19-2.24,1.79-.39.31-.77.63-1.16.93-.71.55-1.42,1.09-2.12,1.65-1.21.95-2.47,1.82-3.77,2.63-.23.15-.49.27-.74.38-.07.03-.21.02-.27-.03s-.07-.18-.06-.27c0-.1.05-.19.1-.28.29-.57.55-1.15.89-1.69.33-.53.57-1.09.77-1.68.09-.27.11-.54.11-.82,0-.4-.22-.64-.57-.75-.19-.06-.39-.09-.58-.07-.31.04-.63.1-.93.21-.71.26-1.35.68-1.97,1.12-.45.32-.87.7-1.34.99-.86.53-1.54,1.25-2.29,1.91-.66.58-1.25,1.23-1.87,1.84-.06.06-.16.09-.3.16,0-.15-.01-.23.02-.29.16-.37.32-.73.48-1.09.19-.42.38-.83.55-1.26.15-.39.24-.8.19-1.23-.08-.61-.46-.91-1.07-.83-.3.04-.58.14-.83.32-.7.5-1.41.96-2.08,1.5-.77.62-1.51,1.3-2.24,1.97-1.29,1.19-2.58,2.38-4.06,3.33-.38.25-.79.46-1.2.66-.26.13-.46-.03-.4-.3.1-.43.2-.86.37-1.26.45-1.07,1.01-2.08,1.73-2.99.16-.19.25-.41.23-.66-.02-.21-.11-.38-.31-.47s-.4-.08-.56.07c-.16.14-.31.31-.46.47-.71.8-1.4,1.63-2.17,2.38-1.04,1.02-2.1,2.01-3.25,2.89-.71.55-1.46,1.04-2.25,1.46-.41.22-.83.39-1.3.4-.1,0-.2.02-.29.05-.24.07-.32.31-.19.53.14.24.36.39.63.38.32,0,.64-.04.94-.13.68-.18,1.31-.48,1.89-.88.39-.27.79-.53,1.17-.83.55-.43,1.07-.89,1.61-1.33.23-.19.46-.38.7-.55.16-.11.33,0,.32.2,0,.2-.05.39-.06.59-.04.94.67,1.55,1.58,1.35.1-.02.19-.05.29-.08.89-.27,1.66-.76,2.41-1.29.45-.32.87-.7,1.3-1.05.15-.13.32-.24.44-.4.47-.61,1.08-1.06,1.67-1.52.87-.67,1.62-1.47,2.45-2.18.35-.3.7-.59,1.06-.87.12-.09.28-.21.43-.07.12.11.03.26-.02.39,0,.02-.02.04-.02.05-.47.96-.95,1.93-1.42,2.89-.21.43-.41.86-.6,1.3-.07.16-.13.34-.15.51-.04.38.19.64.48.84.23.15.47.05.67-.08.75-.47,1.37-1.08,2-1.7.2-.19.37-.42.57-.61.69-.63,1.3-1.34,2.07-1.89.08-.06.14-.14.21-.21.14-.14.28-.28.43-.41.87-.79,1.85-1.44,2.8-2.13.37-.27.76-.52,1.21-.63.1-.03.22,0,.38.02-.11.46-.27.84-.48,1.2-.19.33-.39.65-.57.98-.29.55-.48,1.14-.64,1.73-.19.7.36,1.58,1.23,1.51.45-.04.87-.12,1.26-.34.78-.43,1.59-.79,2.26-1.42.5-.47,1.12-.83,1.69-1.22.69-.47,1.37-.94,2.02-1.48.35-.29.74-.53,1.12-.79.06-.04.14-.05.19-.07.16.15.08.28.05.41-.11.36-.25.72-.34,1.08-.14.53-.07,1.02.26,1.48.2.28.46.42.81.43.48,0,.9-.12,1.28-.42.16-.12.31-.25.46-.38.56-.48,1.08-.99,1.48-1.62.41-.64.74-1.32.86-2.08.03-.18.06-.35.09-.53.03-.22.15-.36.38-.4.06,0,.12-.03.18-.04.87-.14,1.69-.46,2.48-.84,1.13-.54,2.23-1.14,3.25-1.88.13-.09.27-.16.42-.23.09-.05.19-.06.28.06.03.24-.1.45-.19.66-.23.51-.49,1-.7,1.52-.28.68-.56,1.36-.73,2.08-.09.39-.13.79-.09,1.19.06.61.54,1.15,1.06,1.22.32.04.64,0,.94-.12.22-.09.44-.18.66-.28.38-.18.77-.33,1.13-.54.48-.28.94-.6,1.4-.91.25-.17.48-.36.72-.53.22-.16.32-.17.53,0,.22.17.46.34.74.37.39.04.8.08,1.19.03.85-.11,1.66-.4,2.42-.8.54-.29,1.06-.63,1.53-1.03.36-.31.75-.59,1.13-.88.54-.41,1.07-.83,1.61-1.23.28-.21.54-.46.91-.62.05.14.11.24.11.35.02.24-.02.48.01.72.09.74.46,1.32,1.11,1.68.38.21.83.29,1.27.28,1.13-.03,2.16-.39,3.05-1.08.8-.62,1.67-1.16,2.34-1.93.01-.01.03-.02.05-.04.15-.11.3-.11.42.04.1.12.18.26.29.38.34.35.73.54,1.24.36.81-.3,1.58-.7,2.17-1.33.45-.48.94-.92,1.4-1.38l.25-.25c.2-.18.37-.15.46.09.04.09.05.2.09.29.12.27.23.55.38.81.41.72,1.05,1.06,1.87,1.07.89.01,1.74-.13,2.56-.49.4-.17.81-.34,1.2-.53.53-.26.95-.51,1.52-.89.18-.12.54-.34.72-.46.38-.25.62-.42.96-.71.5-.42.97-.88,1.43-1.35.23-.24.42-.53.59-.82.16-.28.11-.58-.04-.86-.16-.29-.56-.36-.8-.07M95.55,128.01c-.04.41-.13.82-.31,1.19-.36.76-.84,1.44-1.47,2-.22.19-.48.35-.74.49-.16.09-.28-.04-.31-.23-.04-.27.04-.64.14-.9,0,0,.96-2.14,1.65-2.78.08-.08.17-.15.23-.21.17-.17.37-.2.55-.13.19.08.26.23.25.43v.13M108.94,126.73h-.15c-.11-.07.06-.56.08-.64.13-.42,1.14-1.76,1.56-1.92.04-.02.13-.02.16,0,.03.03.04.11.03.16-.15.7-1.38,2.34-1.68,2.39M131.75,120.84c-.08.2-.25.41-.39.56l-2.86,2.66c-.2.16-.44.26-.68.34-.26.09-.42-.14-.36-.4.13-.52.31-.9.7-1.3.67-.69,1.39-1.31,2.23-1.77.26-.14.54-.26.81-.38.09-.04.19-.04.24-.05.23,0,.36.16.3.33"/>
        <path class="cls-10" d="M58.6,132.5c.48-.46.97-.89,1.5-1.27.23-.16.47-.31.68-.48,1.39-1.11,3.37-2.41,4.99-3.15.62-.28,1.25-.38,1.91-.17.08.02.15.06.23.08.3.07.5-.02.65-.28.15-.25.13-.5-.02-.73-.29-.46-.73-.66-1.26-.68-.6-.02-1.18.09-1.75.31-1.42.55-3.17,1.72-4.42,2.58-2.18,1.48-4.13,3.24-6.01,5.08-.43.42-.84.85-1.25,1.28-.74.78-1.47,1.56-2.2,2.36-.44.48-.86.99-1.3,1.48-.11.13-.21.29-.49.31,0-.11-.04-.19-.02-.26.09-.45.16-.9.28-1.34.3-1.16.62-2.31.92-3.46.08-.31.13-.62.19-.94.04-.21-.02-.39-.19-.53-.41-.33-.99-.14-1.14.38-.19.67-.34,1.35-.5,2.03-.24,1.02-.43,1.56-.72,2.53-.09.3-.29.99-.36,1.31-.14.6-.2,1.09-.3,1.64-.05.3-.06.59.04.88.09.26.27.45.54.5.49.1.96.08,1.33-.32.27-.29.55-.57.81-.88.84-.98,1.65-1.99,2.51-2.96,1.03-1.17,2.1-2.29,3.24-3.35.7-.65,1.43-1.27,2.12-1.93"/>
        <path class="cls-8" d="M59.43,77.72c-.76-.76-.44-1.82-1.49-2-.84-.15-1.61.89-3.06.48-1.28-.36-2.31,1.11-2.31,1.11,0,0-4.87,5.72-6.16,19.05-1.03,10.6,2.76,20.95,9.69,23.12,9,2.81,20.13-7.4,25.06-32.02,4.44-22.17-2.57-33.09-12.07-34.95-12.27-2.4-23.63,7.22-27.94,19.18-4.38,12.14-3.25,28.1.06,27.2.4-.11.44-1.04.66-1.37.34-.5.9-.96,1.06-1.19.32-.44.65-1.72.64-2.18-.11-4.45-.89-15.82,7.55-28.65,5.59-8.5,13.62-10.48,18.82-8.83,8.03,2.54,10.79,14.24,5.16,34.32-3.91,13.96-11.56,25-17.08,22.41-3.55-1.67-5.36-8.43-2.75-17.56,1.22-4.3,4.84-11.85,4.59-12.94-.11-.47-.32-.4-.62-.63-.49-.37,1-3.73.19-4.54"/>
      </g>
      <g class="rotating-text">
        <text class="cls-2" transform="translate(60.14 41.7)"><tspan x="0" y="0">R</tspan></text>
        <text class="cls-5" transform="translate(67.14 41.7)"><tspan x="0" y="0">e</tspan></text>
        <text class="cls-5" transform="translate(71.93 41.7)"><tspan x="0" y="0">a</tspan></text>
        <text class="cls-4" transform="translate(77.41 41.7)"><tspan x="0" y="0">l</tspan></text>
        <text class="cls-5" transform="translate(80.41 41.7)"><tspan x="0" y="0">i</tspan></text>
        <text class="cls-3" transform="translate(83.55 41.7)"><tspan x="0" y="0">z</tspan></text>
        <text class="cls-3" transform="translate(88.58 41.7)"><tspan x="0" y="0">a</tspan></text>
        <text class="cls-7" transform="translate(94.06 41.7)"><tspan class="cls-11" x="0" y="0">d</tspan><tspan class="cls-9" x="6.54" y="0">o p</tspan></text>
        <text class="cls-1" transform="translate(113.05 41.7)"><tspan x="0" y="0">o</tspan></text>
        <text class="cls-5" transform="translate(118.21 41.7)"><tspan x="0" y="0">r</tspan></text>
      </g>
    </g>
  </g>
</svg>
