<?xml version="1.0" encoding="UTF-8"?>
<svg id="Capa_2" data-name="Capa 2" xmlns="http://www.w3.org/2000/svg" viewBox="0 0 439.13 187.16">
  <defs>
    <style>
      .cls-1 {
        fill: #fff5e1;
      }

      .cls-2 {
        fill: #323505;
        opacity: .46;
      }

      .cls-3 {
        fill: none;
        stroke: #4c5409;
        stroke-dasharray: 6 6 6 6 6 6;
        stroke-miterlimit: 10;
      }
    </style>
  </defs>
  <g id="Capa_1-2" data-name="Capa 1">
    <g>
      <path class="cls-2" d="M427.56,184.25c-.05.81-.02,1.59.09,2.36l-318.18.43c.12-.57.2-1.16.24-1.77.4-6.34-4.37-11.8-10.65-12.19s-11.7,4.42-12.1,10.76c-.07,1.12.02,2.2.25,3.23l-71.04.09c-.24-5.8-4.78-10.59-10.66-10.96-.36-.02-.7-.02-1.05-.02l-.03-156.53c5.19-.57,9.42-4.71,10.07-10.05l73.55-.1c.1,5.93,4.71,10.87,10.67,11.24,6.28.4,11.7-4.42,12.1-10.76.01-.17.02-.34.02-.51l314.92-.42c.26,5.78,4.81,10.55,10.66,10.92.92.06,1.82,0,2.69-.15l.02,153.64c-6.06-.1-11.19,4.63-11.57,10.78Z"/>
      <path class="cls-1" d="M427,175.2c-.05.81-.02,1.59.09,2.36l-321.02.25c.12-.57.2-1.16.24-1.77.4-6.34-4.42-11.8-10.75-12.2-6.34-.4-11.8,4.42-12.2,10.75-.07,1.12.02,2.2.26,3.23l-71.68.05c-.25-5.8-4.83-10.59-10.76-10.97-.36-.02-.71-.02-1.06-.02L0,10.35C5.24,9.78,9.5,5.65,10.15.31l74.21-.05c.11,5.93,4.76,10.87,10.77,11.25,6.34.4,11.8-4.42,12.2-10.75.01-.17.02-.34.02-.51l317.72-.24c.27,5.78,4.86,10.56,10.76,10.93.93.06,1.83,0,2.71-.15l.11,153.64c-6.12-.1-11.28,4.62-11.67,10.78Z"/>
      <line class="cls-3" x1="94.79" y1="12.47" x2="94.79" y2="164.8"/>
    </g>
  </g>
</svg>
