<?xml version="1.0" encoding="UTF-8"?>
<svg id="Capa_2" data-name="Capa 2" xmlns="http://www.w3.org/2000/svg" viewBox="0 0 643.67 220.88">
  <defs>
    <style>
      .cls-1 {
        fill: #fff5e1;
      }
    </style>
  </defs>
  <g id="Capa_1-2" data-name="Capa 1">
    <path class="cls-1" d="M632,218.2c-.05.81-.02,1.59.09,2.36l-526.02.25c.12-.57.2-1.16.24-1.77.4-6.34-4.42-11.8-10.75-12.2-6.34-.4-11.8,4.42-12.2,10.75-.07,1.12.02,2.2.26,3.23l-71.68.05c-.25-5.8-4.83-10.59-10.76-10.97-.36-.02-.71-.02-1.06-.02L0,10.35C5.24,9.78,9.5,5.65,10.15.31l74.21-.05c.11,5.93,4.76,10.87,10.77,11.25,6.34.4,11.8-4.42,12.2-10.75.01-.17.02-.34.02-.51l522.72-.24c.27,5.78,4.86,10.56,10.76,10.93.93.06,1.83,0,2.71-.15l.11,196.64c-6.12-.1-11.28,4.62-11.67,10.78Z"/>
  </g>
</svg>
